SplineFontDB: 3.0
FontName: Pixeletter
FullName: Pixeletter
FamilyName: Pixeletter
Weight: Regular
Copyright: Made by Sik in 2016\nDo whatever you want with this font, no credit needed
UComments: "2016-3-3: Created." 
FontLog: "1.3 - Latin Extended A+AAoA-1.23 - Fixed +BCYA and +BCkACgAA-1.22 - Metadata update+AAoA-1.21 - Cyrillic (lower block)+AAoA-1.2 - Cyrillic (Russian only)+AAoA-1.12 - +ACIA-c+ACIA wasn't easy to read+AAoA-1.11 - ...some tweak I forgot+AAoA-1.1 - Latin-1+AAoA-1.0 - ASCII" 
Version: 1.3
ItalicAngle: 0
UnderlinePosition: -2
UnderlineWidth: 2
Ascent: 14
Descent: 4
LayerCount: 2
Layer: 0 0 "Atr+AOEA-s"  1
Layer: 1 0 "Fore"  0
XUID: [1021 571 375086453 4894787]
FSType: 8
OS2Version: 0
OS2_WeightWidthSlopeOnly: 0
OS2_UseTypoMetrics: 1
CreationTime: 1457045742
ModificationTime: 1472246740
PfmFamily: 33
TTFWeight: 500
TTFWidth: 5
LineGap: 0
VLineGap: 0
OS2TypoAscent: 0
OS2TypoAOffset: 1
OS2TypoDescent: 0
OS2TypoDOffset: 1
OS2TypoLinegap: 0
OS2WinAscent: 0
OS2WinAOffset: 1
OS2WinDescent: 0
OS2WinDOffset: 1
HheadAscent: 18
HheadAOffset: 0
HheadDescent: -4
HheadDOffset: 0
OS2FamilyClass: 2058
OS2Vendor: 'Sik '
MarkAttachClasses: 1
DEI: 91125
Encoding: UnicodeBmp
UnicodeInterp: none
NameList: Adobe Glyph List
DisplaySize: -48
AntiAlias: 1
FitToEm: 1
WinInfo: 162 27 9
BeginPrivate: 0
EndPrivate
Grid
0 18 m 25
 12 18 l 29
EndSplineSet
BeginChars: 65536 416

StartChar: I
Encoding: 73 73 0
Width: 8
VWidth: 0
Flags: HW
LayerCount: 2
Fore
SplineSet
1 0 m 29
 1 2 l 25
 3 2 l 25
 3 12 l 25
 1 12 l 25
 1 14 l 25
 7 14 l 25
 7 12 l 25
 5 12 l 25
 5 2 l 25
 7 2 l 25
 7 0 l 25
 1 0 l 29
EndSplineSet
EndChar

StartChar: i
Encoding: 105 105 1
Width: 8
VWidth: 0
Flags: HW
LayerCount: 2
Fore
SplineSet
5 12 m 29
 3 12 l 25
 3 14 l 25
 5 14 l 25
 5 12 l 29
1 0 m 25
 1 2 l 25
 3 2 l 25
 3 8 l 25
 1 8 l 25
 1 10 l 25
 5 10 l 25
 5 2 l 25
 7 2 l 25
 7 0 l 25
 1 0 l 25
EndSplineSet
EndChar

StartChar: O
Encoding: 79 79 2
Width: 12
VWidth: 0
Flags: HW
LayerCount: 2
Fore
SplineSet
3 2 m 29
 9 2 l 25
 9 12 l 25
 3 12 l 25
 3 2 l 29
3 0 m 25
 3 2 l 25
 1 2 l 25
 1 12 l 25
 3 12 l 25
 3 14 l 25
 9 14 l 25
 9 12 l 25
 11 12 l 25
 11 2 l 25
 9 2 l 25
 9 0 l 25
 3 0 l 25
EndSplineSet
EndChar

StartChar: o
Encoding: 111 111 3
Width: 12
VWidth: 0
Flags: HW
LayerCount: 2
Fore
SplineSet
3 2 m 25
 9 2 l 25
 9 8 l 29
 3 8 l 29
 3 2 l 25
3 0 m 25
 3 2 l 25
 1 2 l 25
 1 8 l 29
 3 8 l 29
 3 10 l 29
 9 10 l 29
 9 8 l 29
 11 8 l 29
 11 2 l 25
 9 2 l 25
 9 0 l 25
 3 0 l 25
EndSplineSet
EndChar

StartChar: C
Encoding: 67 67 4
Width: 12
VWidth: 0
Flags: HW
LayerCount: 2
Fore
SplineSet
9 10 m 29
 9 12 l 25
 11 12 l 25
 11 10 l 25
 9 10 l 29
9 14 m 25
 9 12 l 25
 3 12 l 25
 3 14 l 25
 9 14 l 25
11 2 m 25
 9 2 l 25
 9 4 l 25
 11 4 l 25
 11 2 l 25
3 0 m 25
 3 2 l 25
 9 2 l 25
 9 0 l 25
 3 0 l 25
1 2 m 25
 1 12 l 25
 3 12 l 25
 3 2 l 25
 1 2 l 25
EndSplineSet
EndChar

StartChar: c
Encoding: 99 99 5
Width: 12
VWidth: 0
Flags: HW
LayerCount: 2
Fore
SplineSet
9 10 m 25
 9 8 l 25
 3 8 l 25
 3 10 l 25
 9 10 l 25
11 2 m 25
 9 2 l 25
 9 4 l 25
 11 4 l 25
 11 2 l 25
3 0 m 25
 3 2 l 25
 9 2 l 25
 9 0 l 25
 3 0 l 25
1 2 m 25
 1 8 l 25
 3 8 l 25
 3 2 l 25
 1 2 l 25
EndSplineSet
EndChar

StartChar: E
Encoding: 69 69 6
Width: 12
VWidth: 0
Flags: HW
LayerCount: 2
Fore
SplineSet
1 0 m 29
 1 14 l 25
 11 14 l 25
 11 12 l 25
 3 12 l 25
 3 8 l 25
 9 8 l 25
 9 6 l 25
 3 6 l 25
 3 2 l 25
 11 2 l 25
 11 0 l 25
 1 0 l 29
EndSplineSet
EndChar

StartChar: F
Encoding: 70 70 7
Width: 12
VWidth: 0
Flags: HW
LayerCount: 2
Fore
SplineSet
1 0 m 29
 1 14 l 25
 11 14 l 25
 11 12 l 25
 3 12 l 25
 3 8 l 25
 9 8 l 25
 9 6 l 25
 3 6 l 25
 3 0 l 25
 1 0 l 29
EndSplineSet
EndChar

StartChar: e
Encoding: 101 101 8
Width: 12
VWidth: 0
Flags: HW
LayerCount: 2
Fore
SplineSet
3 0 m 29
 3 2 l 25
 9 2 l 25
 9 0 l 25
 3 0 l 29
3 6 m 25
 9 6 l 25
 9 8 l 25
 3 8 l 25
 3 6 l 25
1 2 m 25
 1 8 l 25
 3 8 l 25
 3 10 l 25
 9 10 l 25
 9 8 l 25
 11 8 l 25
 11 4 l 25
 3 4 l 25
 3 2 l 25
 1 2 l 25
EndSplineSet
EndChar

StartChar: a
Encoding: 97 97 9
Width: 12
VWidth: 0
Flags: HW
LayerCount: 2
Fore
SplineSet
3 8 m 29
 3 10 l 25
 9 10 l 25
 9 8 l 25
 3 8 l 29
9 2 m 25
 9 4 l 25
 3 4 l 25
 3 2 l 25
 9 2 l 25
3 0 m 25
 3 2 l 25
 1 2 l 25
 1 4 l 25
 3 4 l 25
 3 6 l 25
 9 6 l 25
 9 8 l 25
 11 8 l 25
 11 0 l 25
 3 0 l 25
EndSplineSet
EndChar

StartChar: D
Encoding: 68 68 10
Width: 12
VWidth: 0
Flags: HW
LayerCount: 2
Fore
SplineSet
3 2 m 29
 7 2 l 25
 7 4 l 25
 9 4 l 25
 9 10 l 25
 7 10 l 25
 7 12 l 25
 3 12 l 25
 3 2 l 29
1 0 m 25
 1 14 l 25
 7 14 l 25
 7 12 l 25
 9 12 l 25
 9 10 l 25
 11 10 l 25
 11 4 l 25
 9 4 l 25
 9 2 l 25
 7 2 l 25
 7 0 l 25
 1 0 l 25
EndSplineSet
EndChar

StartChar: A
Encoding: 65 65 11
Width: 12
VWidth: 0
Flags: HW
LayerCount: 2
Fore
SplineSet
3 6 m 29
 9 6 l 25
 9 10 l 25
 7 10 l 25
 7 12 l 25
 5 12 l 25
 5 10 l 25
 3 10 l 25
 3 6 l 29
1 0 m 25
 1 10 l 25
 3 10 l 25
 3 12 l 25
 5 12 l 25
 5 14 l 25
 7 14 l 25
 7 12 l 25
 9 12 l 25
 9 10 l 25
 11 10 l 25
 11 0 l 25
 9 0 l 25
 9 4 l 25
 3 4 l 25
 3 0 l 25
 1 0 l 25
EndSplineSet
EndChar

StartChar: B
Encoding: 66 66 12
Width: 12
VWidth: 0
Flags: HW
LayerCount: 2
Fore
SplineSet
3 8 m 29
 9 8 l 25
 9 12 l 25
 3 12 l 25
 3 8 l 29
3 2 m 25
 9 2 l 25
 9 6 l 25
 3 6 l 25
 3 2 l 25
1 0 m 25
 1 14 l 25
 9 14 l 25
 9 12 l 25
 11 12 l 25
 11 8 l 25
 9 8 l 25
 9 6 l 25
 11 6 l 25
 11 2 l 25
 9 2 l 25
 9 0 l 25
 1 0 l 25
EndSplineSet
EndChar

StartChar: b
Encoding: 98 98 13
Width: 12
VWidth: 0
Flags: HW
LayerCount: 2
Fore
SplineSet
3 2 m 29
 9 2 l 25
 9 8 l 25
 5 8 l 25
 5 6 l 25
 3 6 l 25
 3 2 l 29
1 0 m 25
 1 14 l 25
 3 14 l 25
 3 8 l 25
 5 8 l 25
 5 10 l 25
 9 10 l 25
 9 8 l 25
 11 8 l 25
 11 2 l 25
 9 2 l 25
 9 0 l 25
 1 0 l 25
EndSplineSet
EndChar

StartChar: f
Encoding: 102 102 14
Width: 12
VWidth: 0
Flags: HW
LayerCount: 2
Fore
SplineSet
9 10 m 29
 9 12 l 25
 11 12 l 25
 11 10 l 25
 9 10 l 29
5 14 m 25
 9 14 l 25
 9 12 l 25
 5 12 l 25
 5 14 l 25
3 0 m 25
 3 6 l 25
 1 6 l 25
 1 8 l 25
 3 8 l 25
 3 12 l 25
 5 12 l 25
 5 8 l 25
 9 8 l 25
 9 6 l 25
 5 6 l 25
 5 0 l 25
 3 0 l 25
EndSplineSet
EndChar

StartChar: h
Encoding: 104 104 15
Width: 12
VWidth: 0
Flags: HW
LayerCount: 2
Fore
SplineSet
9 0 m 29
 9 8 l 25
 11 8 l 25
 11 0 l 25
 9 0 l 29
5 10 m 25
 9 10 l 25
 9 8 l 25
 5 8 l 25
 5 10 l 25
1 0 m 25
 1 14 l 25
 3 14 l 25
 3 8 l 25
 5 8 l 25
 5 6 l 25
 3 6 l 25
 3 0 l 25
 1 0 l 25
EndSplineSet
EndChar

StartChar: H
Encoding: 72 72 16
Width: 12
VWidth: 0
Flags: HW
LayerCount: 2
Fore
SplineSet
1 0 m 29
 1 14 l 25
 3 14 l 25
 3 8 l 25
 9 8 l 25
 9 14 l 25
 11 14 l 25
 11 0 l 25
 9 0 l 25
 9 6 l 25
 3 6 l 25
 3 0 l 25
 1 0 l 29
EndSplineSet
EndChar

StartChar: K
Encoding: 75 75 17
Width: 12
VWidth: 0
Flags: HW
LayerCount: 2
Fore
SplineSet
9 14 m 29
 11 14 l 25
 11 10 l 25
 9 10 l 25
 9 14 l 29
7 10 m 25
 9 10 l 25
 9 8 l 25
 7 8 l 25
 7 10 l 25
9 0 m 25
 9 4 l 25
 11 4 l 25
 11 0 l 25
 9 0 l 25
7 4 m 25
 7 6 l 25
 9 6 l 25
 9 4 l 25
 7 4 l 25
1 0 m 25
 1 14 l 25
 3 14 l 25
 3 8 l 25
 7 8 l 25
 7 6 l 25
 3 6 l 25
 3 0 l 25
 1 0 l 25
EndSplineSet
EndChar

StartChar: k
Encoding: 107 107 18
Width: 12
VWidth: 0
Flags: HW
LayerCount: 2
Fore
SplineSet
9 10 m 29
 11 10 l 29
 11 8 l 29
 9 8 l 29
 9 10 l 29
7 8 m 29
 9 8 l 29
 9 6 l 29
 7 6 l 29
 7 8 l 29
9 0 m 25
 9 2 l 29
 11 2 l 29
 11 0 l 25
 9 0 l 25
7 2 m 29
 7 4 l 29
 9 4 l 29
 9 2 l 29
 7 2 l 29
1 0 m 25
 1 14 l 25
 3 14 l 25
 3 6 l 29
 7 6 l 29
 7 4 l 29
 3 4 l 29
 3 0 l 25
 1 0 l 25
EndSplineSet
EndChar

StartChar: J
Encoding: 74 74 19
Width: 12
VWidth: 0
Flags: HW
LayerCount: 2
Fore
SplineSet
9 14 m 29
 11 14 l 25
 11 2 l 25
 9 2 l 25
 9 14 l 29
3 0 m 25
 3 2 l 25
 9 2 l 25
 9 0 l 25
 3 0 l 25
1 2 m 25
 1 6 l 25
 3 6 l 25
 3 2 l 25
 1 2 l 25
EndSplineSet
EndChar

StartChar: L
Encoding: 76 76 20
Width: 12
VWidth: 0
Flags: HW
LayerCount: 2
Fore
SplineSet
1 0 m 25
 1 14 l 25
 3 14 l 25
 3 2 l 25
 11 2 l 25
 11 0 l 29
 1 0 l 25
EndSplineSet
EndChar

StartChar: M
Encoding: 77 77 22
Width: 12
VWidth: 0
Flags: HW
LayerCount: 2
Fore
SplineSet
7 12 m 29
 9 12 l 25
 9 14 l 25
 11 14 l 25
 11 0 l 25
 9 0 l 25
 9 10 l 25
 7 10 l 25
 7 12 l 29
5 6 m 25
 5 10 l 25
 7 10 l 25
 7 6 l 25
 5 6 l 25
1 0 m 25
 1 14 l 25
 3 14 l 25
 3 12 l 25
 5 12 l 25
 5 10 l 25
 3 10 l 25
 3 0 l 25
 1 0 l 25
EndSplineSet
EndChar

StartChar: N
Encoding: 78 78 23
Width: 12
VWidth: 0
Flags: HW
LayerCount: 2
Fore
SplineSet
7 4 m 29
 7 6 l 25
 9 6 l 25
 9 14 l 25
 11 14 l 25
 11 0 l 25
 9 0 l 25
 9 4 l 25
 7 4 l 29
5 6 m 25
 5 8 l 25
 7 8 l 25
 7 6 l 25
 5 6 l 25
1 0 m 25
 1 14 l 25
 3 14 l 25
 3 10 l 25
 5 10 l 25
 5 8 l 25
 3 8 l 25
 3 0 l 25
 1 0 l 25
EndSplineSet
EndChar

StartChar: P
Encoding: 80 80 24
Width: 12
VWidth: 0
Flags: HW
LayerCount: 2
Fore
SplineSet
3 8 m 29
 9 8 l 25
 9 12 l 25
 3 12 l 25
 3 8 l 29
1 0 m 25
 1 14 l 25
 9 14 l 25
 9 12 l 25
 11 12 l 25
 11 8 l 25
 9 8 l 25
 9 6 l 25
 3 6 l 25
 3 0 l 25
 1 0 l 25
EndSplineSet
EndChar

StartChar: l
Encoding: 108 108 25
Width: 8
VWidth: 0
Flags: HW
LayerCount: 2
Fore
SplineSet
1 0 m 29
 1 2 l 25
 3 2 l 25
 3 12 l 25
 1 12 l 25
 1 14 l 25
 5 14 l 25
 5 2 l 25
 7 2 l 25
 7 0 l 25
 1 0 l 29
EndSplineSet
EndChar

StartChar: n
Encoding: 110 110 26
Width: 12
VWidth: 0
Flags: HW
LayerCount: 2
Fore
SplineSet
9 0 m 29
 9 8 l 25
 11 8 l 25
 11 0 l 25
 9 0 l 29
5 10 m 25
 9 10 l 25
 9 8 l 25
 5 8 l 25
 5 10 l 25
1 0 m 25
 1 10 l 25
 3 10 l 25
 3 8 l 25
 5 8 l 25
 5 6 l 25
 3 6 l 25
 3 0 l 25
 1 0 l 25
EndSplineSet
EndChar

StartChar: m
Encoding: 109 109 27
Width: 12
VWidth: 0
Flags: HW
LayerCount: 2
Fore
SplineSet
9 0 m 29
 9 8 l 25
 11 8 l 25
 11 0 l 25
 9 0 l 29
7 10 m 25
 9 10 l 25
 9 8 l 25
 7 8 l 25
 7 10 l 25
5 4 m 25
 5 8 l 25
 7 8 l 25
 7 4 l 25
 5 4 l 25
1 0 m 25
 1 10 l 25
 5 10 l 25
 5 8 l 25
 3 8 l 25
 3 0 l 25
 1 0 l 25
EndSplineSet
EndChar

StartChar: W
Encoding: 87 87 28
Width: 12
VWidth: 0
Flags: HW
LayerCount: 2
Fore
SplineSet
11 2 m 29
 9 2 l 25
 9 14 l 25
 11 14 l 25
 11 2 l 29
7 0 m 25
 7 2 l 25
 9 2 l 25
 9 0 l 25
 7 0 l 25
5 8 m 25
 7 8 l 25
 7 2 l 25
 5 2 l 25
 5 8 l 25
3 0 m 25
 3 2 l 25
 5 2 l 25
 5 0 l 25
 3 0 l 25
1 2 m 25
 1 14 l 25
 3 14 l 25
 3 2 l 25
 1 2 l 25
EndSplineSet
EndChar

StartChar: w
Encoding: 119 119 29
Width: 12
VWidth: 0
Flags: HW
LayerCount: 2
Fore
SplineSet
11 2 m 25
 9 2 l 25
 9 10 l 29
 11 10 l 29
 11 2 l 25
7 0 m 25
 7 2 l 25
 9 2 l 25
 9 0 l 25
 7 0 l 25
5 6 m 29
 7 6 l 29
 7 2 l 25
 5 2 l 25
 5 6 l 29
3 0 m 25
 3 2 l 25
 5 2 l 25
 5 0 l 25
 3 0 l 25
1 2 m 25
 1 10 l 29
 3 10 l 29
 3 2 l 25
 1 2 l 25
EndSplineSet
EndChar

StartChar: X
Encoding: 88 88 30
Width: 12
VWidth: 0
Flags: HW
LayerCount: 2
Fore
SplineSet
9 14 m 29
 11 14 l 25
 11 10 l 25
 9 10 l 25
 9 14 l 29
7 10 m 25
 9 10 l 25
 9 8 l 25
 7 8 l 25
 7 10 l 25
1 0 m 25
 1 4 l 25
 3 4 l 25
 3 0 l 25
 1 0 l 25
3 4 m 25
 3 6 l 25
 5 6 l 25
 5 4 l 25
 3 4 l 25
9 0 m 25
 9 4 l 25
 11 4 l 25
 11 0 l 25
 9 0 l 25
7 4 m 25
 7 6 l 25
 9 6 l 25
 9 4 l 25
 7 4 l 25
5 6 m 25
 5 8 l 25
 7 8 l 25
 7 6 l 25
 5 6 l 25
3 8 m 25
 3 10 l 25
 5 10 l 25
 5 8 l 25
 3 8 l 25
1 14 m 25
 3 14 l 25
 3 10 l 25
 1 10 l 25
 1 14 l 25
EndSplineSet
EndChar

StartChar: x
Encoding: 120 120 31
Width: 12
VWidth: 0
Flags: HW
LayerCount: 2
Fore
SplineSet
9 10 m 29
 11 10 l 29
 11 8 l 29
 9 8 l 29
 9 10 l 29
7 8 m 29
 9 8 l 29
 9 6 l 29
 7 6 l 29
 7 8 l 29
1 0 m 25
 1 2 l 29
 3 2 l 29
 3 0 l 25
 1 0 l 25
3 2 m 29
 3 4 l 29
 5 4 l 29
 5 2 l 29
 3 2 l 29
9 0 m 25
 9 2 l 29
 11 2 l 29
 11 0 l 25
 9 0 l 25
7 2 m 29
 7 4 l 29
 9 4 l 29
 9 2 l 29
 7 2 l 29
5 4 m 29
 5 6 l 29
 7 6 l 29
 7 4 l 29
 5 4 l 29
3 6 m 29
 3 8 l 29
 5 8 l 29
 5 6 l 29
 3 6 l 29
1 10 m 29
 3 10 l 29
 3 8 l 29
 1 8 l 29
 1 10 l 29
EndSplineSet
EndChar

StartChar: Y
Encoding: 89 89 32
Width: 12
VWidth: 0
Flags: HW
LayerCount: 2
Fore
SplineSet
9 14 m 25
 11 14 l 25
 11 8 l 25
 9 8 l 25
 9 14 l 25
7 8 m 25
 9 8 l 25
 9 6 l 25
 7 6 l 25
 7 8 l 25
5 0 m 29
 5 6 l 25
 7 6 l 25
 7 0 l 29
 5 0 l 29
3 6 m 25
 3 8 l 25
 5 8 l 25
 5 6 l 25
 3 6 l 25
1 14 m 25
 3 14 l 25
 3 8 l 25
 1 8 l 25
 1 14 l 25
EndSplineSet
EndChar

StartChar: Z
Encoding: 90 90 33
Width: 12
VWidth: 0
Flags: HW
LayerCount: 2
Fore
SplineSet
1 4 m 29
 3 4 l 25
 3 2 l 25
 11 2 l 25
 11 0 l 25
 1 0 l 25
 1 4 l 29
3 6 m 25
 5 6 l 25
 5 4 l 25
 3 4 l 25
 3 6 l 25
5 8 m 25
 7 8 l 25
 7 6 l 25
 5 6 l 25
 5 8 l 25
7 8 m 25
 7 10 l 25
 9 10 l 25
 9 8 l 25
 7 8 l 25
1 12 m 25
 1 14 l 25
 11 14 l 25
 11 10 l 25
 9 10 l 25
 9 12 l 25
 1 12 l 25
EndSplineSet
EndChar

StartChar: z
Encoding: 122 122 34
Width: 12
VWidth: 0
Flags: HW
LayerCount: 2
Fore
SplineSet
9 6 m 29
 7 6 l 25
 7 8 l 25
 1 8 l 25
 1 10 l 25
 11 10 l 25
 11 8 l 25
 9 8 l 25
 9 6 l 29
5 6 m 25
 7 6 l 25
 7 4 l 25
 5 4 l 25
 5 6 l 25
1 0 m 25
 1 2 l 25
 3 2 l 25
 3 4 l 25
 5 4 l 25
 5 2 l 25
 11 2 l 25
 11 0 l 25
 1 0 l 25
EndSplineSet
EndChar

StartChar: U
Encoding: 85 85 35
Width: 12
VWidth: 0
Flags: HW
LayerCount: 2
Fore
SplineSet
11 2 m 29
 9 2 l 25
 9 14 l 25
 11 14 l 25
 11 2 l 29
3 0 m 25
 3 2 l 25
 9 2 l 25
 9 0 l 25
 3 0 l 25
1 2 m 25
 1 14 l 25
 3 14 l 25
 3 2 l 25
 1 2 l 25
EndSplineSet
EndChar

StartChar: T
Encoding: 84 84 36
Width: 12
VWidth: 0
Flags: HW
LayerCount: 2
Fore
SplineSet
1 14 m 29
 11 14 l 25
 11 12 l 25
 7 12 l 25
 7 0 l 25
 5 0 l 25
 5 12 l 25
 1 12 l 25
 1 14 l 29
EndSplineSet
EndChar

StartChar: S
Encoding: 83 83 37
Width: 12
VWidth: 0
Flags: HW
LayerCount: 2
Fore
SplineSet
9 10 m 29
 9 12 l 25
 11 12 l 25
 11 10 l 25
 9 10 l 29
3 14 m 25
 9 14 l 25
 9 12 l 25
 3 12 l 25
 3 14 l 25
1 8 m 25
 1 12 l 25
 3 12 l 25
 3 8 l 25
 1 8 l 25
3 6 m 25
 3 8 l 25
 9 8 l 25
 9 6 l 25
 3 6 l 25
11 2 m 25
 9 2 l 25
 9 6 l 25
 11 6 l 25
 11 2 l 25
3 0 m 25
 3 2 l 25
 9 2 l 25
 9 0 l 25
 3 0 l 25
1 2 m 25
 1 4 l 25
 3 4 l 25
 3 2 l 25
 1 2 l 25
EndSplineSet
EndChar

StartChar: s
Encoding: 115 115 38
Width: 12
VWidth: 0
Flags: HW
LayerCount: 2
Fore
SplineSet
3 10 m 29
 11 10 l 25
 11 8 l 25
 3 8 l 25
 3 10 l 29
1 6 m 25
 1 8 l 25
 3 8 l 25
 3 6 l 25
 1 6 l 25
3 4 m 25
 3 6 l 25
 9 6 l 25
 9 4 l 25
 3 4 l 25
11 2 m 25
 9 2 l 25
 9 4 l 25
 11 4 l 25
 11 2 l 25
1 0 m 25
 1 2 l 25
 9 2 l 25
 9 0 l 25
 1 0 l 25
EndSplineSet
EndChar

StartChar: t
Encoding: 116 116 39
Width: 12
VWidth: 0
Flags: HW
LayerCount: 2
Fore
SplineSet
11 2 m 29
 9 2 l 25
 9 4 l 25
 11 4 l 25
 11 2 l 29
5 0 m 25
 5 2 l 25
 9 2 l 25
 9 0 l 25
 5 0 l 25
1 10 m 25
 3 10 l 25
 3 14 l 25
 5 14 l 25
 5 10 l 25
 9 10 l 25
 9 8 l 25
 5 8 l 25
 5 2 l 25
 3 2 l 25
 3 8 l 25
 1 8 l 25
 1 10 l 25
EndSplineSet
EndChar

StartChar: V
Encoding: 86 86 40
Width: 12
VWidth: 0
Flags: HW
LayerCount: 2
Fore
SplineSet
9 14 m 29
 11 14 l 25
 11 6 l 25
 9 6 l 25
 9 14 l 29
7 6 m 25
 9 6 l 25
 9 2 l 25
 7 2 l 25
 7 6 l 25
1 6 m 25
 1 14 l 25
 3 14 l 25
 3 6 l 25
 1 6 l 25
3 2 m 25
 3 6 l 25
 5 6 l 25
 5 2 l 25
 3 2 l 25
5 0 m 25
 5 2 l 25
 7 2 l 25
 7 0 l 25
 5 0 l 25
EndSplineSet
EndChar

StartChar: v
Encoding: 118 118 41
Width: 12
VWidth: 0
Flags: HW
LayerCount: 2
Fore
SplineSet
9 10 m 29
 11 10 l 29
 11 6 l 25
 9 6 l 25
 9 10 l 29
7 6 m 25
 9 6 l 25
 9 2 l 25
 7 2 l 25
 7 6 l 25
1 6 m 25
 1 10 l 29
 3 10 l 29
 3 6 l 25
 1 6 l 25
3 2 m 25
 3 6 l 25
 5 6 l 25
 5 2 l 25
 3 2 l 25
5 0 m 25
 5 2 l 25
 7 2 l 25
 7 0 l 25
 5 0 l 25
EndSplineSet
EndChar

StartChar: R
Encoding: 82 82 42
Width: 12
VWidth: 0
Flags: HW
LayerCount: 2
Fore
SplineSet
9 0 m 29
 9 2 l 25
 11 2 l 25
 11 0 l 25
 9 0 l 29
7 2 m 25
 7 4 l 25
 9 4 l 25
 9 2 l 25
 7 2 l 25
3 8 m 25
 9 8 l 25
 9 12 l 25
 3 12 l 25
 3 8 l 25
1 0 m 25
 1 14 l 25
 9 14 l 25
 9 12 l 25
 11 12 l 25
 11 8 l 25
 9 8 l 25
 9 6 l 17
 7 6 l 1
 7 4 l 1
 5 4 l 1
 5 6 l 1
 3 6 l 9
 3 0 l 25
 1 0 l 25
EndSplineSet
EndChar

StartChar: exclam
Encoding: 33 33 43
Width: 6
VWidth: 0
Flags: HW
LayerCount: 2
Fore
SplineSet
1 4 m 29
 1 14 l 25
 5 14 l 25
 5 8 l 25
 3 8 l 25
 3 4 l 25
 1 4 l 29
1 0 m 25
 1 2 l 25
 3 2 l 25
 3 0 l 25
 1 0 l 25
EndSplineSet
EndChar

StartChar: Q
Encoding: 81 81 44
Width: 12
VWidth: 0
Flags: HW
LayerCount: 2
Fore
SplineSet
9 0 m 29
 9 2 l 25
 11 2 l 25
 11 0 l 25
 9 0 l 29
5 4 m 25
 5 6 l 25
 7 6 l 25
 7 4 l 25
 5 4 l 25
7 4 m 25
 9 4 l 25
 9 12 l 25
 3 12 l 25
 3 2 l 25
 7 2 l 25
 7 4 l 25
1 2 m 25
 1 12 l 25
 3 12 l 25
 3 14 l 25
 9 14 l 25
 9 12 l 25
 11 12 l 25
 11 4 l 25
 9 4 l 25
 9 2 l 25
 7 2 l 25
 7 0 l 25
 3 0 l 25
 3 2 l 25
 1 2 l 25
EndSplineSet
EndChar

StartChar: r
Encoding: 114 114 45
Width: 12
VWidth: 0
Flags: HW
LayerCount: 2
Fore
SplineSet
9 6 m 29
 9 8 l 25
 11 8 l 25
 11 6 l 25
 9 6 l 29
5 10 m 25
 9 10 l 25
 9 8 l 25
 5 8 l 25
 5 10 l 25
1 0 m 25
 1 10 l 25
 3 10 l 25
 3 8 l 25
 5 8 l 25
 5 6 l 25
 3 6 l 25
 3 0 l 25
 1 0 l 25
EndSplineSet
EndChar

StartChar: G
Encoding: 71 71 46
Width: 12
VWidth: 0
Flags: HW
LayerCount: 2
Fore
SplineSet
9 10 m 29
 9 12 l 25
 11 12 l 25
 11 10 l 25
 9 10 l 29
3 14 m 25
 9 14 l 25
 9 12 l 25
 3 12 l 25
 3 14 l 25
3 0 m 25
 3 2 l 25
 9 2 l 25
 9 6 l 25
 5 6 l 25
 5 8 l 25
 11 8 l 25
 11 0 l 25
 3 0 l 25
1 2 m 25
 1 12 l 25
 3 12 l 25
 3 2 l 25
 1 2 l 25
EndSplineSet
EndChar

StartChar: u
Encoding: 117 117 47
Width: 12
VWidth: 0
Flags: HW
LayerCount: 2
Fore
SplineSet
1 2 m 29
 1 10 l 25
 3 10 l 25
 3 2 l 25
 1 2 l 29
11 10 m 25
 11 0 l 25
 3 0 l 25
 3 2 l 25
 9 2 l 25
 9 10 l 25
 11 10 l 25
EndSplineSet
EndChar

StartChar: p
Encoding: 112 112 48
Width: 12
VWidth: 0
Flags: HW
LayerCount: 2
Fore
SplineSet
3 4 m 29
 5 4 l 25
 5 2 l 25
 9 2 l 25
 9 8 l 25
 5 8 l 25
 5 6 l 25
 3 6 l 25
 3 4 l 29
1 -4 m 25
 1 10 l 25
 3 10 l 25
 3 8 l 25
 5 8 l 25
 5 10 l 25
 9 10 l 25
 9 8 l 25
 11 8 l 25
 11 2 l 25
 9 2 l 25
 9 0 l 25
 5 0 l 25
 5 2 l 25
 3 2 l 25
 3 -4 l 25
 1 -4 l 25
EndSplineSet
EndChar

StartChar: q
Encoding: 113 113 49
Width: 12
VWidth: 0
Flags: HW
LayerCount: 2
Fore
SplineSet
9 2 m 25
 9 8 l 25
 3 8 l 25
 3 2 l 25
 9 2 l 25
11 -4 m 25
 9 -4 l 25
 9 0 l 25
 3 0 l 25
 3 2 l 25
 1 2 l 25
 1 8 l 25
 3 8 l 25
 3 10 l 25
 11 10 l 25
 11 -4 l 25
EndSplineSet
EndChar

StartChar: d
Encoding: 100 100 50
Width: 12
VWidth: 0
Flags: HW
LayerCount: 2
Fore
SplineSet
9 8 m 29
 3 8 l 25
 3 2 l 25
 7 2 l 25
 7 4 l 25
 9 4 l 25
 9 8 l 29
11 0 m 25
 9 0 l 25
 9 2 l 25
 7 2 l 25
 7 0 l 25
 3 0 l 25
 3 2 l 25
 1 2 l 25
 1 8 l 25
 3 8 l 25
 3 10 l 25
 9 10 l 25
 9 14 l 25
 11 14 l 25
 11 0 l 25
EndSplineSet
EndChar

StartChar: y
Encoding: 121 121 51
Width: 12
VWidth: 0
Flags: HW
LayerCount: 2
Fore
SplineSet
3 -4 m 29
 3 -2 l 25
 9 -2 l 25
 9 -4 l 25
 3 -4 l 29
7 4 m 25
 9 4 l 25
 9 10 l 25
 11 10 l 25
 11 -2 l 25
 9 -2 l 25
 9 2 l 25
 7 2 l 25
 7 4 l 25
3 0 m 25
 3 2 l 25
 7 2 l 25
 7 0 l 25
 3 0 l 25
3 2 m 25
 1 2 l 25
 1 10 l 25
 3 10 l 25
 3 2 l 25
EndSplineSet
EndChar

StartChar: g
Encoding: 103 103 52
Width: 12
VWidth: 0
Flags: HW
LayerCount: 2
Fore
SplineSet
9 2 m 29
 9 6 l 25
 7 6 l 25
 7 8 l 25
 3 8 l 25
 3 2 l 25
 9 2 l 29
3 -4 m 25
 3 -2 l 25
 9 -2 l 25
 9 -4 l 25
 3 -4 l 25
3 0 m 25
 3 2 l 25
 1 2 l 25
 1 8 l 25
 3 8 l 25
 3 10 l 25
 7 10 l 25
 7 8 l 25
 9 8 l 25
 9 10 l 25
 11 10 l 25
 11 -2 l 25
 9 -2 l 25
 9 0 l 25
 3 0 l 25
EndSplineSet
EndChar

StartChar: j
Encoding: 106 106 53
Width: 8
VWidth: 0
Flags: HW
LayerCount: 2
Fore
SplineSet
3 12 m 29
 3 14 l 25
 5 14 l 25
 5 12 l 25
 3 12 l 29
1 0 m 25
 1 -2 l 25
 -1 -2 l 25
 -1 0 l 25
 1 0 l 25
1 -4 m 25
 1 -2 l 25
 5 -2 l 25
 5 -4 l 25
 1 -4 l 25
1 10 m 25
 7 10 l 25
 7 -2 l 25
 5 -2 l 25
 5 8 l 25
 1 8 l 25
 1 10 l 25
EndSplineSet
EndChar

StartChar: zero
Encoding: 48 48 54
Width: 12
VWidth: 0
Flags: HW
LayerCount: 2
Fore
SplineSet
5 8 m 29
 7 8 l 25
 7 6 l 25
 5 6 l 25
 5 8 l 29
3 6 m 25
 5 6 l 25
 5 4 l 25
 3 4 l 25
 3 2 l 25
 9 2 l 25
 9 8 l 25
 7 8 l 25
 7 10 l 25
 9 10 l 25
 9 12 l 25
 3 12 l 25
 3 6 l 25
1 2 m 25
 1 12 l 25
 3 12 l 25
 3 14 l 25
 9 14 l 25
 9 12 l 25
 11 12 l 25
 11 2 l 25
 9 2 l 25
 9 0 l 25
 3 0 l 25
 3 2 l 25
 1 2 l 25
EndSplineSet
EndChar

StartChar: four
Encoding: 52 52 55
Width: 12
VWidth: 0
Flags: HW
LayerCount: 2
Fore
SplineSet
3 6 m 29
 7 6 l 25
 7 10 l 25
 5 10 l 25
 5 8 l 25
 3 8 l 25
 3 6 l 29
9 0 m 25
 7 0 l 25
 7 4 l 25
 1 4 l 25
 1 8 l 25
 3 8 l 25
 3 10 l 25
 5 10 l 25
 5 12 l 25
 7 12 l 25
 7 14 l 25
 9 14 l 25
 9 6 l 25
 11 6 l 25
 11 4 l 25
 9 4 l 25
 9 0 l 25
EndSplineSet
EndChar

StartChar: three
Encoding: 51 51 56
Width: 12
VWidth: 0
Flags: HW
LayerCount: 2
Fore
SplineSet
1 10 m 29
 1 12 l 25
 3 12 l 25
 3 10 l 25
 1 10 l 29
3 12 m 25
 3 14 l 25
 9 14 l 25
 9 12 l 25
 3 12 l 25
11 8 m 25
 9 8 l 25
 9 12 l 25
 11 12 l 25
 11 8 l 25
5 6 m 25
 5 8 l 25
 9 8 l 25
 9 6 l 25
 5 6 l 25
11 2 m 25
 9 2 l 25
 9 6 l 25
 11 6 l 25
 11 2 l 25
3 0 m 25
 3 2 l 25
 9 2 l 25
 9 0 l 25
 3 0 l 25
1 2 m 25
 1 4 l 25
 3 4 l 25
 3 2 l 25
 1 2 l 25
EndSplineSet
EndChar

StartChar: eight
Encoding: 56 56 57
Width: 12
VWidth: 0
Flags: HW
LayerCount: 2
Fore
SplineSet
3 8 m 25
 9 8 l 25
 9 12 l 25
 3 12 l 25
 3 8 l 25
3 2 m 25
 9 2 l 25
 9 6 l 25
 3 6 l 25
 3 2 l 25
3 2 m 5
 1 2 l 1
 1 6 l 1
 3 6 l 1
 3 8 l 1
 1 8 l 1
 1 12 l 1
 3 12 l 1
 3 14 l 1
 9 14 l 9
 9 12 l 25
 11 12 l 25
 11 8 l 25
 9 8 l 25
 9 6 l 25
 11 6 l 25
 11 2 l 25
 9 2 l 25
 9 0 l 17
 3 0 l 1
 3 2 l 5
EndSplineSet
EndChar

StartChar: seven
Encoding: 55 55 58
Width: 12
VWidth: 0
Flags: HW
LayerCount: 2
Fore
SplineSet
5 0 m 29
 5 6 l 25
 7 6 l 25
 7 0 l 25
 5 0 l 29
7 6 m 25
 7 8 l 25
 9 8 l 25
 9 6 l 25
 7 6 l 25
1 14 m 25
 11 14 l 25
 11 8 l 25
 9 8 l 25
 9 12 l 25
 1 12 l 25
 1 14 l 25
EndSplineSet
EndChar

StartChar: six
Encoding: 54 54 59
Width: 12
VWidth: 0
Flags: HW
LayerCount: 2
Fore
SplineSet
9 10 m 25
 9 12 l 25
 11 12 l 25
 11 10 l 29
 9 10 l 25
3 14 m 25
 9 14 l 25
 9 12 l 25
 3 12 l 25
 3 14 l 25
3 6 m 25
 3 2 l 25
 9 2 l 25
 9 6 l 25
 3 6 l 25
3 0 m 25
 3 2 l 25
 1 2 l 25
 1 12 l 25
 3 12 l 25
 3 8 l 25
 9 8 l 25
 9 6 l 25
 11 6 l 25
 11 2 l 25
 9 2 l 25
 9 0 l 25
 3 0 l 25
EndSplineSet
EndChar

StartChar: nine
Encoding: 57 57 60
Width: 12
VWidth: 0
Flags: HW
LayerCount: 2
Fore
SplineSet
3 2 m 29
 7 2 l 25
 7 0 l 25
 3 0 l 25
 3 2 l 29
7 4 m 25
 9 4 l 25
 9 2 l 25
 7 2 l 25
 7 4 l 25
9 8 m 25
 9 12 l 25
 3 12 l 25
 3 8 l 25
 9 8 l 25
1 12 m 25
 3 12 l 25
 3 14 l 25
 9 14 l 25
 9 12 l 25
 11 12 l 25
 11 4 l 25
 9 4 l 25
 9 6 l 25
 3 6 l 25
 3 8 l 25
 1 8 l 25
 1 12 l 25
EndSplineSet
EndChar

StartChar: two
Encoding: 50 50 61
Width: 12
VWidth: 0
Flags: HW
LayerCount: 2
Fore
SplineSet
1 4 m 29
 3 4 l 25
 3 2 l 25
 11 2 l 25
 11 0 l 25
 1 0 l 25
 1 4 l 29
3 6 m 25
 5 6 l 25
 5 4 l 25
 3 4 l 25
 3 6 l 25
5 8 m 25
 9 8 l 25
 9 6 l 25
 5 6 l 25
 5 8 l 25
11 12 m 25
 11 8 l 25
 9 8 l 25
 9 12 l 25
 11 12 l 25
3 14 m 25
 9 14 l 25
 9 12 l 25
 3 12 l 25
 3 14 l 25
1 12 m 25
 3 12 l 25
 3 10 l 25
 1 10 l 25
 1 12 l 25
EndSplineSet
EndChar

StartChar: five
Encoding: 53 53 62
Width: 12
VWidth: 0
Flags: HW
LayerCount: 2
Fore
SplineSet
3 6 m 29
 1 6 l 25
 1 14 l 25
 11 14 l 25
 11 12 l 25
 3 12 l 25
 3 10 l 25
 9 10 l 25
 9 8 l 25
 3 8 l 25
 3 6 l 29
11 2 m 25
 9 2 l 25
 9 8 l 25
 11 8 l 25
 11 2 l 25
3 0 m 25
 3 2 l 25
 9 2 l 25
 9 0 l 25
 3 0 l 25
1 2 m 25
 1 4 l 25
 3 4 l 25
 3 2 l 25
 1 2 l 25
EndSplineSet
EndChar

StartChar: period
Encoding: 46 46 63
Width: 6
VWidth: 0
Flags: HW
LayerCount: 2
Fore
SplineSet
1 0 m 29
 1 4 l 25
 5 4 l 25
 5 0 l 25
 1 0 l 29
EndSplineSet
EndChar

StartChar: comma
Encoding: 44 44 64
Width: 6
VWidth: 0
Flags: HW
LayerCount: 2
Fore
SplineSet
1 -4 m 29
 1 -2 l 25
 3 -2 l 25
 3 -4 l 25
 1 -4 l 29
1 0 m 25
 1 4 l 25
 5 4 l 25
 5 -2 l 25
 3 -2 l 25
 3 0 l 25
 1 0 l 25
EndSplineSet
EndChar

StartChar: plus
Encoding: 43 43 65
Width: 12
VWidth: 0
Flags: HW
LayerCount: 2
Fore
SplineSet
1 8 m 29
 5 8 l 25
 5 12 l 25
 7 12 l 25
 7 8 l 25
 11 8 l 25
 11 6 l 25
 7 6 l 25
 7 2 l 25
 5 2 l 25
 5 6 l 25
 1 6 l 25
 1 8 l 29
EndSplineSet
EndChar

StartChar: asterisk
Encoding: 42 42 66
Width: 12
VWidth: 0
Flags: HW
LayerCount: 2
Fore
SplineSet
9 4 m 29
 9 6 l 25
 11 6 l 25
 11 4 l 25
 9 4 l 29
9 10 m 25
 11 10 l 25
 11 8 l 25
 9 8 l 25
 9 10 l 25
1 8 m 25
 1 10 l 25
 3 10 l 25
 3 8 l 25
 1 8 l 25
3 8 m 25
 5 8 l 25
 5 12 l 25
 7 12 l 25
 7 8 l 25
 9 8 l 25
 9 6 l 25
 7 6 l 25
 7 2 l 25
 5 2 l 25
 5 6 l 25
 3 6 l 25
 3 8 l 25
1 6 m 25
 3 6 l 25
 3 4 l 25
 1 4 l 25
 1 6 l 25
EndSplineSet
EndChar

StartChar: one
Encoding: 49 49 67
Width: 12
VWidth: 0
Flags: HW
LayerCount: 2
Fore
SplineSet
5 14 m 29
 7 14 l 25
 7 2 l 25
 9 2 l 25
 9 0 l 25
 3 0 l 25
 3 2 l 25
 5 2 l 25
 5 10 l 25
 3 10 l 25
 3 12 l 25
 5 12 l 25
 5 14 l 29
EndSplineSet
EndChar

StartChar: question
Encoding: 63 63 68
Width: 12
VWidth: 0
Flags: HW
LayerCount: 2
Fore
SplineSet
5 2 m 29
 7 2 l 25
 7 0 l 25
 5 0 l 25
 5 2 l 29
5 6 m 25
 7 6 l 25
 7 4 l 25
 5 4 l 25
 5 6 l 25
7 8 m 25
 9 8 l 25
 9 6 l 25
 7 6 l 25
 7 8 l 25
11 12 m 25
 11 8 l 25
 9 8 l 25
 9 12 l 25
 11 12 l 25
3 14 m 25
 9 14 l 25
 9 12 l 25
 3 12 l 25
 3 14 l 25
1 12 m 25
 3 12 l 25
 3 10 l 25
 1 10 l 25
 1 12 l 25
EndSplineSet
EndChar

StartChar: hyphen
Encoding: 45 45 69
Width: 12
VWidth: 0
Flags: HW
LayerCount: 2
Fore
SplineSet
1 8 m 29
 11 8 l 29
 11 6 l 29
 1 6 l 29
 1 8 l 29
EndSplineSet
EndChar

StartChar: equal
Encoding: 61 61 70
Width: 12
VWidth: 0
Flags: HW
LayerCount: 2
Fore
SplineSet
1 6 m 29
 11 6 l 25
 11 4 l 25
 1 4 l 25
 1 6 l 29
1 8 m 25
 1 10 l 25
 11 10 l 25
 11 8 l 25
 1 8 l 25
EndSplineSet
EndChar

StartChar: less
Encoding: 60 60 71
Width: 10
VWidth: 0
Flags: HW
LayerCount: 2
Fore
SplineSet
7 14 m 29
 9 14 l 25
 9 12 l 25
 7 12 l 25
 7 14 l 29
5 12 m 25
 7 12 l 25
 7 10 l 25
 5 10 l 25
 5 12 l 25
3 10 m 25
 5 10 l 25
 5 8 l 25
 3 8 l 25
 3 10 l 25
1 6 m 25
 1 8 l 25
 3 8 l 25
 3 6 l 25
 1 6 l 25
3 4 m 25
 3 6 l 25
 5 6 l 25
 5 4 l 25
 3 4 l 25
5 2 m 25
 5 4 l 25
 7 4 l 25
 7 2 l 25
 5 2 l 25
9 0 m 25
 7 0 l 25
 7 2 l 25
 9 2 l 25
 9 0 l 25
EndSplineSet
EndChar

StartChar: greater
Encoding: 62 62 72
Width: 10
VWidth: 0
Flags: HW
LayerCount: 2
Fore
SplineSet
1 2 m 25
 3 2 l 25
 3 0 l 25
 1 0 l 25
 1 2 l 25
3 4 m 25
 5 4 l 25
 5 2 l 25
 3 2 l 25
 3 4 l 25
5 6 m 25
 7 6 l 25
 7 4 l 25
 5 4 l 25
 5 6 l 25
9 8 m 25
 9 6 l 25
 7 6 l 25
 7 8 l 25
 9 8 l 25
7 10 m 25
 7 8 l 25
 5 8 l 25
 5 10 l 25
 7 10 l 25
5 12 m 25
 5 10 l 25
 3 10 l 25
 3 12 l 25
 5 12 l 25
1 14 m 25
 3 14 l 25
 3 12 l 25
 1 12 l 25
 1 14 l 25
EndSplineSet
EndChar

StartChar: parenleft
Encoding: 40 40 73
Width: 8
VWidth: 0
Flags: HW
LayerCount: 2
Fore
SplineSet
1 12 m 29
 3 12 l 25
 3 2 l 25
 1 2 l 25
 1 12 l 29
5 12 m 25
 3 12 l 25
 3 14 l 25
 5 14 l 25
 5 12 l 25
7 16 m 25
 7 14 l 25
 5 14 l 25
 5 16 l 25
 7 16 l 25
5 2 m 25
 5 0 l 25
 3 0 l 25
 3 2 l 25
 5 2 l 25
7 0 m 25
 7 -2 l 25
 5 -2 l 25
 5 0 l 25
 7 0 l 25
EndSplineSet
EndChar

StartChar: parenright
Encoding: 41 41 74
Width: 8
VWidth: 0
Flags: HW
LayerCount: 2
Fore
SplineSet
1 0 m 29
 3 0 l 25
 3 -2 l 25
 1 -2 l 25
 1 0 l 29
3 0 m 25
 3 2 l 25
 5 2 l 25
 5 0 l 25
 3 0 l 25
7 12 m 25
 7 2 l 25
 5 2 l 25
 5 12 l 25
 7 12 l 25
5 14 m 25
 5 12 l 25
 3 12 l 25
 3 14 l 25
 5 14 l 25
1 14 m 25
 1 16 l 25
 3 16 l 25
 3 14 l 25
 1 14 l 25
EndSplineSet
EndChar

StartChar: bracketleft
Encoding: 91 91 75
Width: 8
VWidth: 0
Flags: HW
LayerCount: 2
Fore
SplineSet
1 -2 m 29
 1 16 l 25
 7 16 l 25
 7 14 l 25
 3 14 l 25
 3 0 l 25
 7 0 l 25
 7 -2 l 25
 1 -2 l 29
EndSplineSet
EndChar

StartChar: bracketright
Encoding: 93 93 76
Width: 8
VWidth: 0
Flags: HW
LayerCount: 2
Fore
SplineSet
7 -2 m 29
 1 -2 l 25
 1 0 l 25
 5 0 l 25
 5 14 l 25
 1 14 l 25
 1 16 l 25
 7 16 l 25
 7 -2 l 29
EndSplineSet
EndChar

StartChar: colon
Encoding: 58 58 77
Width: 6
VWidth: 0
Flags: HW
LayerCount: 2
Fore
SplineSet
5 8 m 25
 1 8 l 25
 1 12 l 25
 5 12 l 25
 5 8 l 25
1 2 m 29
 1 6 l 29
 5 6 l 29
 5 2 l 29
 1 2 l 29
EndSplineSet
EndChar

StartChar: semicolon
Encoding: 59 59 78
Width: 6
VWidth: 0
Flags: HW
LayerCount: 2
Fore
SplineSet
5 8 m 25
 1 8 l 25
 1 12 l 25
 5 12 l 25
 5 8 l 25
5 0 m 29
 3 0 l 29
 3 2 l 29
 1 2 l 29
 1 6 l 29
 5 6 l 29
 5 0 l 29
1 -2 m 29
 1 0 l 29
 3 0 l 29
 3 -2 l 29
 1 -2 l 29
EndSplineSet
EndChar

StartChar: percent
Encoding: 37 37 79
Width: 12
VWidth: 0
Flags: HW
LayerCount: 2
Fore
SplineSet
7 0 m 29
 7 4 l 25
 11 4 l 25
 11 0 l 25
 7 0 l 29
5 14 m 25
 5 10 l 25
 1 10 l 25
 1 14 l 25
 5 14 l 25
9 12 m 25
 11 12 l 25
 11 10 l 25
 9 10 l 25
 9 12 l 25
7 10 m 25
 9 10 l 25
 9 8 l 25
 7 8 l 25
 7 10 l 25
5 8 m 25
 7 8 l 25
 7 6 l 25
 5 6 l 25
 5 8 l 25
3 6 m 25
 5 6 l 25
 5 4 l 25
 3 4 l 25
 3 6 l 25
1 2 m 25
 1 4 l 25
 3 4 l 25
 3 2 l 25
 1 2 l 25
EndSplineSet
EndChar

StartChar: quotesingle
Encoding: 39 39 80
Width: 6
VWidth: 0
Flags: HW
LayerCount: 2
Fore
SplineSet
1 6 m 29
 1 8 l 29
 3 8 l 29
 3 6 l 29
 1 6 l 29
1 10 m 29
 1 14 l 29
 5 14 l 29
 5 8 l 29
 3 8 l 29
 3 10 l 29
 1 10 l 29
EndSplineSet
EndChar

StartChar: ampersand
Encoding: 38 38 81
Width: 12
VWidth: 0
Flags: HW
LayerCount: 2
Fore
SplineSet
9 0 m 25
 9 2 l 25
 11 2 l 25
 11 0 l 25
 9 0 l 25
9 6 m 25
 11 6 l 25
 11 4 l 25
 9 4 l 25
 9 6 l 25
5 10 m 29
 7 10 l 29
 7 12 l 29
 3 12 l 29
 3 8 l 29
 5 8 l 29
 5 10 l 29
5 4 m 25
 5 6 l 25
 3 6 l 25
 3 2 l 25
 7 2 l 25
 7 4 l 25
 5 4 l 25
1 2 m 25
 1 6 l 25
 3 6 l 25
 3 8 l 25
 1 8 l 25
 1 12 l 25
 3 12 l 25
 3 14 l 25
 7 14 l 25
 7 12 l 25
 9 12 l 25
 9 10 l 25
 7 10 l 25
 7 8 l 25
 5 8 l 25
 5 6 l 25
 7 6 l 25
 7 4 l 25
 9 4 l 25
 9 2 l 25
 7 2 l 25
 7 0 l 25
 3 0 l 25
 3 2 l 25
 1 2 l 25
EndSplineSet
EndChar

StartChar: quotedbl
Encoding: 34 34 82
Width: 12
VWidth: 0
Flags: HW
LayerCount: 2
Fore
SplineSet
7 6 m 25
 7 8 l 25
 9 8 l 25
 9 6 l 25
 7 6 l 25
7 10 m 25
 7 14 l 25
 11 14 l 25
 11 8 l 25
 9 8 l 25
 9 10 l 25
 7 10 l 25
1 6 m 25
 1 8 l 25
 3 8 l 25
 3 6 l 25
 1 6 l 25
1 10 m 25
 1 14 l 25
 5 14 l 25
 5 8 l 25
 3 8 l 25
 3 10 l 25
 1 10 l 25
EndSplineSet
EndChar

StartChar: grave
Encoding: 96 96 83
Width: 6
VWidth: 0
Flags: HW
LayerCount: 2
Fore
SplineSet
3 6 m 25
 3 8 l 25
 5 8 l 25
 5 6 l 25
 3 6 l 25
1 14 m 25
 5 14 l 25
 5 10 l 25
 3 10 l 25
 3 8 l 25
 1 8 l 25
 1 14 l 25
EndSplineSet
EndChar

StartChar: underscore
Encoding: 95 95 84
Width: 12
VWidth: 0
Flags: HW
LayerCount: 2
Fore
SplineSet
1 0 m 29
 1 2 l 25
 11 2 l 25
 11 0 l 25
 1 0 l 29
EndSplineSet
EndChar

StartChar: asciicircum
Encoding: 94 94 85
Width: 12
VWidth: 0
Flags: HW
LayerCount: 2
Fore
SplineSet
3 8 m 29
 1 8 l 25
 1 10 l 25
 3 10 l 25
 3 8 l 29
5 10 m 25
 3 10 l 25
 3 12 l 25
 5 12 l 25
 5 10 l 25
9 8 m 25
 9 10 l 25
 11 10 l 25
 11 8 l 25
 9 8 l 25
7 10 m 25
 7 12 l 25
 9 12 l 25
 9 10 l 25
 7 10 l 25
5 14 m 25
 7 14 l 25
 7 12 l 25
 5 12 l 25
 5 14 l 25
EndSplineSet
EndChar

StartChar: numbersign
Encoding: 35 35 86
Width: 12
VWidth: 0
Flags: HW
LayerCount: 2
Fore
SplineSet
5 4 m 29
 7 4 l 25
 7 8 l 25
 5 8 l 25
 5 4 l 29
3 0 m 25
 3 2 l 25
 1 2 l 25
 1 4 l 25
 3 4 l 25
 3 8 l 25
 1 8 l 25
 1 10 l 25
 3 10 l 25
 3 12 l 25
 5 12 l 25
 5 10 l 25
 7 10 l 25
 7 12 l 25
 9 12 l 25
 9 10 l 25
 11 10 l 25
 11 8 l 25
 9 8 l 25
 9 4 l 25
 11 4 l 25
 11 2 l 25
 9 2 l 25
 9 0 l 25
 7 0 l 25
 7 2 l 25
 5 2 l 25
 5 0 l 25
 3 0 l 25
EndSplineSet
EndChar

StartChar: dollar
Encoding: 36 36 87
Width: 12
VWidth: 0
Flags: HW
LayerCount: 2
Fore
SplineSet
5 8 m 29
 5 10 l 25
 3 10 l 25
 3 8 l 25
 5 8 l 29
7 4 m 25
 9 4 l 25
 9 6 l 25
 7 6 l 25
 7 4 l 25
5 0 m 25
 5 2 l 25
 1 2 l 25
 1 4 l 25
 5 4 l 25
 5 6 l 25
 3 6 l 25
 3 8 l 25
 1 8 l 25
 1 10 l 25
 3 10 l 25
 3 12 l 25
 5 12 l 25
 5 14 l 25
 7 14 l 25
 7 12 l 25
 11 12 l 25
 11 10 l 25
 7 10 l 25
 7 8 l 25
 9 8 l 25
 9 6 l 25
 11 6 l 25
 11 4 l 25
 9 4 l 25
 9 2 l 25
 7 2 l 25
 7 0 l 25
 5 0 l 25
EndSplineSet
EndChar

StartChar: slash
Encoding: 47 47 88
Width: 12
VWidth: 0
Flags: HW
LayerCount: 2
Fore
SplineSet
11 12 m 29
 9 12 l 25
 9 14 l 25
 11 14 l 25
 11 12 l 29
9 8 m 25
 7 8 l 25
 7 12 l 25
 9 12 l 25
 9 8 l 25
7 6 m 25
 5 6 l 25
 5 8 l 25
 7 8 l 25
 7 6 l 25
5 2 m 25
 3 2 l 25
 3 6 l 25
 5 6 l 25
 5 2 l 25
1 0 m 25
 1 2 l 25
 3 2 l 25
 3 0 l 25
 1 0 l 25
EndSplineSet
EndChar

StartChar: backslash
Encoding: 92 92 89
Width: 12
VWidth: 0
Flags: HW
LayerCount: 2
Fore
SplineSet
3 12 m 25
 1 12 l 25
 1 14 l 25
 3 14 l 25
 3 12 l 25
5 8 m 25
 3 8 l 25
 3 12 l 25
 5 12 l 25
 5 8 l 25
7 6 m 25
 5 6 l 25
 5 8 l 25
 7 8 l 25
 7 6 l 25
9 2 m 25
 7 2 l 25
 7 6 l 25
 9 6 l 25
 9 2 l 25
9 0 m 29
 9 2 l 29
 11 2 l 29
 11 0 l 29
 9 0 l 29
EndSplineSet
EndChar

StartChar: at
Encoding: 64 64 90
Width: 12
VWidth: 0
Flags: HW
LayerCount: 2
Fore
SplineSet
11 12 m 29
 11 4 l 25
 5 4 l 25
 5 10 l 25
 9 10 l 25
 9 12 l 25
 11 12 l 29
3 14 m 25
 9 14 l 25
 9 12 l 25
 3 12 l 25
 3 14 l 25
1 2 m 25
 1 12 l 25
 3 12 l 25
 3 2 l 25
 1 2 l 25
9 0 m 25
 3 0 l 25
 3 2 l 25
 9 2 l 25
 9 0 l 25
EndSplineSet
EndChar

StartChar: asciitilde
Encoding: 126 126 91
Width: 12
VWidth: 0
Flags: HW
LayerCount: 2
Fore
SplineSet
9 8 m 29
 11 8 l 25
 11 6 l 25
 9 6 l 25
 9 8 l 29
7 4 m 25
 7 6 l 25
 9 6 l 25
 9 4 l 25
 7 4 l 25
5 6 m 25
 5 8 l 25
 7 8 l 25
 7 6 l 25
 5 6 l 25
3 10 m 25
 5 10 l 25
 5 8 l 25
 3 8 l 25
 3 10 l 25
1 6 m 25
 1 8 l 25
 3 8 l 25
 3 6 l 25
 1 6 l 25
EndSplineSet
EndChar

StartChar: bar
Encoding: 124 124 92
Width: 4
VWidth: 0
Flags: HW
LayerCount: 2
Fore
SplineSet
1 16 m 29
 3 16 l 25
 3 -2 l 25
 1 -2 l 25
 1 16 l 29
EndSplineSet
EndChar

StartChar: braceleft
Encoding: 123 123 93
Width: 12
VWidth: 0
Flags: HW
LayerCount: 2
Fore
SplineSet
11 0 m 29
 11 -2 l 25
 7 -2 l 25
 7 0 l 25
 11 0 l 29
5 0 m 25
 5 6 l 25
 7 6 l 25
 7 0 l 25
 5 0 l 25
7 16 m 25
 11 16 l 25
 11 14 l 25
 7 14 l 25
 7 16 l 25
5 14 m 25
 7 14 l 25
 7 8 l 25
 5 8 l 25
 5 14 l 25
1 8 m 25
 5 8 l 25
 5 6 l 25
 1 6 l 25
 1 8 l 25
EndSplineSet
EndChar

StartChar: braceright
Encoding: 125 125 94
Width: 12
VWidth: 0
Flags: HW
LayerCount: 2
Fore
SplineSet
5 0 m 29
 5 -2 l 29
 1 -2 l 29
 1 0 l 29
 5 0 l 29
5 0 m 25
 5 6 l 25
 7 6 l 25
 7 0 l 25
 5 0 l 25
1 16 m 25
 5 16 l 25
 5 14 l 25
 1 14 l 25
 1 16 l 25
5 14 m 25
 7 14 l 25
 7 8 l 25
 5 8 l 25
 5 14 l 25
7 8 m 25
 11 8 l 25
 11 6 l 25
 7 6 l 25
 7 8 l 25
EndSplineSet
EndChar

StartChar: copyright
Encoding: 169 169 95
Width: 16
VWidth: 0
Flags: HW
LayerCount: 2
Fore
SplineSet
5 2 m 29
 5 12 l 25
 11 12 l 25
 11 10 l 25
 7 10 l 25
 7 4 l 25
 11 4 l 25
 11 2 l 25
 5 2 l 29
3 14 m 25
 3 0 l 25
 13 0 l 25
 13 14 l 25
 3 14 l 25
1 0 m 25
 1 14 l 25
 3 14 l 25
 3 16 l 25
 13 16 l 25
 13 14 l 25
 15 14 l 25
 15 0 l 25
 13 0 l 25
 13 -2 l 25
 3 -2 l 25
 3 0 l 25
 1 0 l 25
EndSplineSet
EndChar

StartChar: registered
Encoding: 174 174 96
Width: 16
VWidth: 0
Flags: HW
LayerCount: 2
Fore
SplineSet
9 2 m 25
 9 6 l 25
 11 6 l 25
 11 2 l 25
 9 2 l 25
7 8 m 25
 9 8 l 25
 9 10 l 25
 7 10 l 25
 7 8 l 25
5 2 m 25
 5 12 l 25
 11 12 l 25
 11 8 l 25
 9 8 l 25
 9 6 l 25
 7 6 l 25
 7 2 l 25
 5 2 l 25
3 14 m 25
 3 0 l 25
 13 0 l 25
 13 14 l 25
 3 14 l 25
1 0 m 25
 1 14 l 25
 3 14 l 25
 3 16 l 25
 13 16 l 25
 13 14 l 25
 15 14 l 25
 15 0 l 25
 13 0 l 25
 13 -2 l 25
 3 -2 l 25
 3 0 l 25
 1 0 l 25
EndSplineSet
EndChar

StartChar: exclamdown
Encoding: 161 161 97
Width: 6
VWidth: 0
Flags: HW
LayerCount: 2
Fore
SplineSet
5 8 m 29
 3 8 l 25
 3 10 l 25
 5 10 l 25
 5 8 l 29
5 -4 m 25
 1 -4 l 25
 1 2 l 25
 3 2 l 25
 3 6 l 25
 5 6 l 25
 5 -4 l 25
EndSplineSet
EndChar

StartChar: questiondown
Encoding: 191 191 98
Width: 12
VWidth: 0
Flags: HW
LayerCount: 2
Fore
SplineSet
5 8 m 29
 5 10 l 25
 7 10 l 25
 7 8 l 25
 5 8 l 29
5 6 m 25
 7 6 l 25
 7 4 l 25
 5 4 l 25
 5 6 l 25
3 4 m 25
 5 4 l 25
 5 2 l 25
 3 2 l 25
 3 4 l 25
3 2 m 25
 3 -2 l 25
 1 -2 l 25
 1 2 l 25
 3 2 l 25
9 0 m 25
 11 0 l 25
 11 -2 l 25
 9 -2 l 25
 9 0 l 25
3 -4 m 25
 3 -2 l 25
 9 -2 l 25
 9 -4 l 25
 3 -4 l 25
EndSplineSet
EndChar

StartChar: brokenbar
Encoding: 166 166 99
Width: 4
VWidth: 0
Flags: HW
LayerCount: 2
Fore
SplineSet
1 6 m 29
 3 6 l 25
 3 -2 l 25
 1 -2 l 25
 1 6 l 29
1 8 m 25
 1 16 l 25
 3 16 l 25
 3 8 l 25
 1 8 l 25
EndSplineSet
EndChar

StartChar: uni00B2
Encoding: 178 178 100
Width: 12
VWidth: 0
Flags: HW
LayerCount: 2
Fore
SplineSet
1 10 m 29
 3 10 l 25
 3 8 l 25
 11 8 l 25
 11 6 l 25
 1 6 l 25
 1 10 l 29
3 12 m 25
 9 12 l 25
 9 10 l 25
 3 10 l 25
 3 12 l 25
11 14 m 25
 11 12 l 25
 9 12 l 25
 9 14 l 25
 11 14 l 25
1 14 m 25
 1 16 l 25
 9 16 l 25
 9 14 l 25
 1 14 l 25
EndSplineSet
EndChar

StartChar: uni00B3
Encoding: 179 179 101
Width: 12
VWidth: 0
Flags: HW
LayerCount: 2
Fore
SplineSet
1 8 m 29
 9 8 l 25
 9 6 l 25
 1 6 l 25
 1 8 l 29
11 10 m 25
 11 8 l 25
 9 8 l 25
 9 10 l 25
 11 10 l 25
3 12 m 25
 9 12 l 25
 9 10 l 25
 3 10 l 25
 3 12 l 25
11 14 m 25
 11 12 l 25
 9 12 l 25
 9 14 l 25
 11 14 l 25
1 14 m 25
 1 16 l 25
 9 16 l 25
 9 14 l 25
 1 14 l 25
EndSplineSet
EndChar

StartChar: uni00B9
Encoding: 185 185 102
Width: 12
VWidth: 0
Flags: HW
LayerCount: 2
Fore
SplineSet
5 12 m 29
 3 12 l 25
 3 14 l 25
 5 14 l 25
 5 16 l 25
 7 16 l 25
 7 8 l 25
 9 8 l 25
 9 6 l 25
 3 6 l 25
 3 8 l 25
 5 8 l 25
 5 12 l 29
EndSplineSet
EndChar

StartChar: guillemotleft
Encoding: 171 171 103
Width: 14
VWidth: 0
Flags: HW
LayerCount: 2
Fore
SplineSet
11 2 m 25
 11 4 l 25
 13 4 l 25
 13 2 l 25
 11 2 l 25
9 4 m 25
 9 6 l 25
 11 6 l 25
 11 4 l 25
 9 4 l 25
11 12 m 25
 13 12 l 25
 13 10 l 25
 11 10 l 25
 11 12 l 25
9 10 m 25
 11 10 l 25
 11 8 l 25
 9 8 l 25
 9 10 l 25
7 8 m 25
 9 8 l 25
 9 6 l 25
 7 6 l 25
 7 8 l 25
5 2 m 25
 5 4 l 25
 7 4 l 25
 7 2 l 25
 5 2 l 25
3 4 m 25
 3 6 l 25
 5 6 l 25
 5 4 l 25
 3 4 l 25
5 12 m 25
 7 12 l 25
 7 10 l 25
 5 10 l 25
 5 12 l 25
3 10 m 25
 5 10 l 25
 5 8 l 25
 3 8 l 25
 3 10 l 25
1 8 m 25
 3 8 l 25
 3 6 l 25
 1 6 l 25
 1 8 l 25
EndSplineSet
EndChar

StartChar: guillemotright
Encoding: 187 187 104
Width: 14
VWidth: 0
Flags: HW
LayerCount: 2
Fore
SplineSet
7 2 m 29
 7 4 l 29
 9 4 l 29
 9 2 l 29
 7 2 l 29
9 4 m 25
 9 6 l 25
 11 6 l 25
 11 4 l 25
 9 4 l 25
7 12 m 25
 9 12 l 25
 9 10 l 25
 7 10 l 25
 7 12 l 25
9 10 m 25
 11 10 l 25
 11 8 l 25
 9 8 l 25
 9 10 l 25
11 8 m 25
 13 8 l 25
 13 6 l 25
 11 6 l 25
 11 8 l 25
1 2 m 29
 1 4 l 29
 3 4 l 29
 3 2 l 29
 1 2 l 29
3 4 m 25
 3 6 l 25
 5 6 l 25
 5 4 l 25
 3 4 l 25
1 12 m 25
 3 12 l 25
 3 10 l 25
 1 10 l 25
 1 12 l 25
3 10 m 25
 5 10 l 25
 5 8 l 25
 3 8 l 25
 3 10 l 25
5 8 m 25
 7 8 l 25
 7 6 l 25
 5 6 l 25
 5 8 l 25
EndSplineSet
EndChar

StartChar: plusminus
Encoding: 177 177 105
Width: 12
VWidth: 0
Flags: HW
LayerCount: 2
Fore
SplineSet
5 4 m 29
 5 8 l 25
 1 8 l 25
 1 10 l 25
 5 10 l 25
 5 14 l 25
 7 14 l 25
 7 10 l 25
 11 10 l 25
 11 8 l 25
 7 8 l 25
 7 4 l 25
 5 4 l 29
1 0 m 25
 1 2 l 25
 11 2 l 25
 11 0 l 25
 1 0 l 25
EndSplineSet
EndChar

StartChar: macron
Encoding: 175 175 106
Width: 12
VWidth: 0
Flags: HW
LayerCount: 2
Fore
SplineSet
1 14 m 29
 11 14 l 25
 11 12 l 25
 1 12 l 25
 1 14 l 29
EndSplineSet
EndChar

StartChar: onehalf
Encoding: 189 189 107
Width: 12
VWidth: 0
Flags: HW
LayerCount: 2
Fore
SplineSet
7 -2 m 29
 11 -2 l 25
 11 -4 l 25
 5 -4 l 25
 5 0 l 25
 7 0 l 25
 7 -2 l 29
7 0 m 25
 7 2 l 25
 9 2 l 25
 9 0 l 25
 7 0 l 25
11 6 m 25
 11 2 l 25
 9 2 l 25
 9 4 l 25
 5 4 l 25
 5 6 l 25
 11 6 l 25
5 18 m 25
 5 10 l 25
 7 10 l 25
 7 8 l 25
 1 8 l 25
 1 10 l 25
 3 10 l 25
 3 14 l 25
 1 14 l 25
 1 16 l 25
 3 16 l 25
 3 18 l 25
 5 18 l 25
9 12 m 25
 11 12 l 25
 11 10 l 25
 9 10 l 25
 9 12 l 25
7 10 m 25
 9 10 l 25
 9 8 l 25
 7 8 l 25
 7 10 l 25
1 4 m 25
 3 4 l 25
 3 2 l 25
 1 2 l 25
 1 4 l 25
3 6 m 25
 5 6 l 25
 5 4 l 25
 3 4 l 25
 3 6 l 25
5 8 m 25
 7 8 l 25
 7 6 l 25
 5 6 l 25
 5 8 l 25
EndSplineSet
EndChar

StartChar: onequarter
Encoding: 188 188 108
Width: 12
VWidth: 0
Flags: HW
LayerCount: 2
Fore
SplineSet
11 6 m 29
 11 -4 l 25
 9 -4 l 25
 9 0 l 25
 5 0 l 25
 5 6 l 25
 7 6 l 25
 7 2 l 25
 9 2 l 25
 9 6 l 25
 11 6 l 29
5 18 m 25
 5 10 l 25
 7 10 l 25
 7 8 l 25
 1 8 l 25
 1 10 l 25
 3 10 l 25
 3 14 l 25
 1 14 l 25
 1 16 l 25
 3 16 l 25
 3 18 l 25
 5 18 l 25
9 12 m 25
 11 12 l 25
 11 10 l 25
 9 10 l 25
 9 12 l 25
7 10 m 25
 9 10 l 25
 9 8 l 25
 7 8 l 25
 7 10 l 25
1 4 m 25
 3 4 l 25
 3 2 l 25
 1 2 l 25
 1 4 l 25
3 6 m 25
 5 6 l 25
 5 4 l 25
 3 4 l 25
 3 6 l 25
5 8 m 25
 7 8 l 25
 7 6 l 25
 5 6 l 25
 5 8 l 25
EndSplineSet
EndChar

StartChar: threequarters
Encoding: 190 190 109
Width: 12
VWidth: 0
Flags: HW
LayerCount: 2
Fore
SplineSet
1 8 m 29
 1 10 l 25
 5 10 l 25
 5 12 l 25
 3 12 l 25
 3 14 l 25
 5 14 l 25
 5 16 l 25
 1 16 l 25
 1 18 l 25
 7 18 l 25
 7 8 l 25
 1 8 l 29
11 6 m 25
 11 -4 l 25
 9 -4 l 25
 9 0 l 25
 5 0 l 25
 5 6 l 25
 7 6 l 25
 7 2 l 25
 9 2 l 25
 9 6 l 25
 11 6 l 25
9 12 m 25
 11 12 l 25
 11 10 l 25
 9 10 l 25
 9 12 l 25
7 10 m 25
 9 10 l 25
 9 8 l 25
 7 8 l 25
 7 10 l 25
1 4 m 25
 3 4 l 25
 3 2 l 25
 1 2 l 25
 1 4 l 25
3 6 m 25
 5 6 l 25
 5 4 l 25
 3 4 l 25
 3 6 l 25
5 8 m 25
 7 8 l 25
 7 6 l 25
 5 6 l 25
 5 8 l 25
EndSplineSet
EndChar

StartChar: cent
Encoding: 162 162 110
Width: 12
VWidth: 0
Flags: HW
LayerCount: 2
Fore
SplineSet
9 8 m 29
 9 10 l 25
 11 10 l 25
 11 8 l 25
 9 8 l 29
9 6 m 25
 11 6 l 25
 11 4 l 25
 9 4 l 25
 9 6 l 25
5 4 m 25
 5 10 l 25
 3 10 l 25
 3 4 l 25
 5 4 l 25
5 0 m 25
 5 2 l 25
 3 2 l 25
 3 4 l 25
 1 4 l 25
 1 10 l 25
 3 10 l 25
 3 12 l 25
 5 12 l 25
 5 14 l 25
 7 14 l 25
 7 12 l 25
 9 12 l 25
 9 10 l 25
 7 10 l 25
 7 4 l 25
 9 4 l 25
 9 2 l 25
 7 2 l 25
 7 0 l 25
 5 0 l 25
EndSplineSet
EndChar

StartChar: sterling
Encoding: 163 163 111
Width: 12
VWidth: 0
Flags: HW
LayerCount: 2
Fore
SplineSet
11 12 m 29
 11 10 l 25
 9 10 l 25
 9 12 l 25
 11 12 l 29
9 12 m 25
 5 12 l 25
 5 14 l 25
 9 14 l 25
 9 12 l 25
11 0 m 25
 1 0 l 25
 1 2 l 25
 3 2 l 25
 3 6 l 25
 1 6 l 25
 1 8 l 25
 3 8 l 25
 3 12 l 25
 5 12 l 25
 5 8 l 25
 9 8 l 25
 9 6 l 25
 5 6 l 25
 5 2 l 25
 11 2 l 25
 11 0 l 25
EndSplineSet
EndChar

StartChar: paragraph
Encoding: 182 182 112
Width: 12
VWidth: 0
Flags: HW
LayerCount: 2
Fore
SplineSet
11 14 m 29
 11 0 l 25
 9 0 l 25
 9 12 l 25
 7 12 l 25
 7 0 l 25
 5 0 l 25
 5 6 l 25
 3 6 l 25
 3 8 l 25
 1 8 l 25
 1 12 l 25
 3 12 l 25
 3 14 l 25
 11 14 l 29
EndSplineSet
EndChar

StartChar: multiply
Encoding: 215 215 113
Width: 12
VWidth: 0
Flags: HW
LayerCount: 2
Fore
SplineSet
9 12 m 29
 11 12 l 29
 11 10 l 29
 9 10 l 29
 9 12 l 29
7 10 m 29
 9 10 l 29
 9 8 l 29
 7 8 l 29
 7 10 l 29
1 2 m 29
 1 4 l 29
 3 4 l 29
 3 2 l 29
 1 2 l 29
3 4 m 29
 3 6 l 29
 5 6 l 29
 5 4 l 29
 3 4 l 29
9 2 m 29
 9 4 l 29
 11 4 l 29
 11 2 l 29
 9 2 l 29
7 4 m 29
 7 6 l 29
 9 6 l 29
 9 4 l 29
 7 4 l 29
5 6 m 29
 5 8 l 29
 7 8 l 29
 7 6 l 29
 5 6 l 29
3 8 m 29
 3 10 l 29
 5 10 l 29
 5 8 l 29
 3 8 l 29
1 12 m 29
 3 12 l 29
 3 10 l 29
 1 10 l 29
 1 12 l 29
EndSplineSet
EndChar

StartChar: divide
Encoding: 247 247 114
Width: 12
VWidth: 0
Flags: HW
LayerCount: 2
Fore
SplineSet
5 4 m 29
 7 4 l 25
 7 2 l 25
 5 2 l 25
 5 4 l 29
7 10 m 25
 5 10 l 25
 5 12 l 25
 7 12 l 25
 7 10 l 25
1 8 m 25
 11 8 l 25
 11 6 l 25
 1 6 l 25
 1 8 l 25
EndSplineSet
EndChar

StartChar: logicalnot
Encoding: 172 172 115
Width: 12
VWidth: 0
Flags: HW
LayerCount: 2
Fore
SplineSet
1 10 m 29
 11 10 l 29
 11 4 l 29
 9 4 l 29
 9 8 l 29
 1 8 l 29
 1 10 l 29
EndSplineSet
EndChar

StartChar: degree
Encoding: 176 176 116
Width: 8
VWidth: 0
Flags: HW
LayerCount: 2
Fore
SplineSet
3 12 m 29
 3 10 l 25
 5 10 l 25
 5 12 l 25
 3 12 l 29
1 14 m 25
 7 14 l 25
 7 8 l 25
 1 8 l 25
 1 14 l 25
EndSplineSet
EndChar

StartChar: dieresis
Encoding: 168 168 117
Width: 12
VWidth: 0
Flags: HW
LayerCount: 2
Fore
SplineSet
7 10 m 29
 7 14 l 25
 11 14 l 25
 11 10 l 25
 7 10 l 29
1 14 m 25
 5 14 l 25
 5 10 l 25
 1 10 l 25
 1 14 l 25
EndSplineSet
EndChar

StartChar: periodcentered
Encoding: 183 183 118
Width: 6
VWidth: 0
Flags: HW
LayerCount: 2
Fore
SplineSet
1 4 m 29
 1 8 l 25
 5 8 l 25
 5 4 l 25
 1 4 l 29
EndSplineSet
EndChar

StartChar: AE
Encoding: 198 198 119
Width: 12
VWidth: 0
Flags: HW
LayerCount: 2
Fore
SplineSet
3 8 m 29
 5 8 l 25
 5 12 l 25
 3 12 l 25
 3 8 l 29
1 0 m 25
 1 12 l 25
 3 12 l 25
 3 14 l 25
 11 14 l 25
 11 12 l 25
 7 12 l 25
 7 8 l 25
 11 8 l 25
 11 6 l 25
 7 6 l 25
 7 2 l 25
 11 2 l 25
 11 0 l 25
 5 0 l 25
 5 6 l 25
 3 6 l 25
 3 0 l 25
 1 0 l 25
EndSplineSet
EndChar

StartChar: ae
Encoding: 230 230 120
Width: 12
VWidth: 0
Flags: HW
LayerCount: 2
Fore
SplineSet
7 6 m 25
 9 6 l 25
 9 8 l 25
 7 8 l 25
 7 6 l 25
5 2 m 25
 5 4 l 25
 3 4 l 25
 3 2 l 25
 5 2 l 25
3 0 m 25
 3 2 l 25
 1 2 l 25
 1 4 l 25
 3 4 l 25
 3 6 l 25
 5 6 l 25
 5 8 l 25
 3 8 l 25
 3 10 l 25
 9 10 l 25
 9 8 l 25
 11 8 l 25
 11 4 l 25
 7 4 l 25
 7 2 l 25
 11 2 l 25
 11 0 l 25
 3 0 l 25
EndSplineSet
EndChar

StartChar: ograve
Encoding: 242 242 121
Width: 12
VWidth: 0
Flags: HW
LayerCount: 2
Fore
SplineSet
3 14 m 29
 3 16 l 29
 5 16 l 29
 5 14 l 29
 3 14 l 29
5 14 m 29
 7 14 l 29
 7 12 l 29
 5 12 l 29
 5 14 l 29
EndSplineSet
Refer: 3 111 N 1 0 0 1 0 0 2
EndChar

StartChar: oacute
Encoding: 243 243 122
Width: 12
VWidth: 0
Flags: HW
LayerCount: 2
Fore
SplineSet
7 16 m 29
 9 16 l 29
 9 14 l 29
 7 14 l 29
 7 16 l 29
5 14 m 29
 7 14 l 29
 7 12 l 29
 5 12 l 29
 5 14 l 29
EndSplineSet
Refer: 3 111 N 1 0 0 1 0 0 2
EndChar

StartChar: ocircumflex
Encoding: 244 244 123
Width: 12
VWidth: 0
Flags: HW
LayerCount: 2
Fore
SplineSet
9 14 m 29
 9 12 l 29
 7 12 l 29
 7 14 l 29
 9 14 l 29
3 14 m 29
 5 14 l 29
 5 12 l 29
 3 12 l 29
 3 14 l 29
5 16 m 29
 7 16 l 29
 7 14 l 29
 5 14 l 29
 5 16 l 29
EndSplineSet
Refer: 3 111 N 1 0 0 1 0 0 2
EndChar

StartChar: otilde
Encoding: 245 245 124
Width: 12
VWidth: 0
Flags: HW
LayerCount: 2
Fore
SplineSet
9 16 m 29
 11 16 l 29
 11 14 l 29
 9 14 l 29
 9 16 l 29
3 16 m 29
 7 16 l 29
 7 14 l 29
 9 14 l 29
 9 12 l 29
 5 12 l 29
 5 14 l 29
 3 14 l 29
 3 16 l 29
1 14 m 29
 3 14 l 29
 3 12 l 29
 1 12 l 29
 1 14 l 29
EndSplineSet
Refer: 3 111 N 1 0 0 1 0 0 2
EndChar

StartChar: odieresis
Encoding: 246 246 125
Width: 12
VWidth: 0
Flags: HW
LayerCount: 2
Fore
SplineSet
7 12 m 29
 7 14 l 29
 9 14 l 29
 9 12 l 29
 7 12 l 29
3 12 m 29
 3 14 l 29
 5 14 l 29
 5 12 l 29
 3 12 l 29
EndSplineSet
Refer: 3 111 N 1 0 0 1 0 0 2
EndChar

StartChar: ugrave
Encoding: 249 249 126
Width: 12
VWidth: 0
Flags: HW
LayerCount: 2
Fore
SplineSet
3 14 m 29
 3 16 l 29
 5 16 l 29
 5 14 l 29
 3 14 l 29
5 14 m 29
 7 14 l 29
 7 12 l 29
 5 12 l 29
 5 14 l 29
EndSplineSet
Refer: 47 117 N 1 0 0 1 0 0 2
EndChar

StartChar: uacute
Encoding: 250 250 127
Width: 12
VWidth: 0
Flags: HW
LayerCount: 2
Fore
SplineSet
7 16 m 29
 9 16 l 29
 9 14 l 29
 7 14 l 29
 7 16 l 29
5 14 m 29
 7 14 l 29
 7 12 l 29
 5 12 l 29
 5 14 l 29
EndSplineSet
Refer: 47 117 N 1 0 0 1 0 0 2
EndChar

StartChar: ucircumflex
Encoding: 251 251 128
Width: 12
VWidth: 0
Flags: HW
LayerCount: 2
Fore
SplineSet
9 14 m 29
 9 12 l 29
 7 12 l 29
 7 14 l 29
 9 14 l 29
3 14 m 29
 5 14 l 29
 5 12 l 29
 3 12 l 29
 3 14 l 29
5 16 m 29
 7 16 l 29
 7 14 l 29
 5 14 l 29
 5 16 l 29
EndSplineSet
Refer: 47 117 N 1 0 0 1 0 0 2
EndChar

StartChar: udieresis
Encoding: 252 252 129
Width: 12
VWidth: 0
Flags: HW
LayerCount: 2
Fore
SplineSet
7 12 m 29
 7 14 l 29
 9 14 l 29
 9 12 l 29
 7 12 l 29
3 12 m 29
 3 14 l 29
 5 14 l 29
 5 12 l 29
 3 12 l 29
EndSplineSet
Refer: 47 117 N 1 0 0 1 0 0 2
EndChar

StartChar: agrave
Encoding: 224 224 130
Width: 12
VWidth: 0
Flags: HW
LayerCount: 2
Fore
SplineSet
3 14 m 29
 3 16 l 29
 5 16 l 29
 5 14 l 29
 3 14 l 29
5 14 m 29
 7 14 l 29
 7 12 l 29
 5 12 l 29
 5 14 l 29
EndSplineSet
Refer: 9 97 N 1 0 0 1 0 0 2
EndChar

StartChar: aacute
Encoding: 225 225 131
Width: 12
VWidth: 0
Flags: HW
LayerCount: 2
Fore
SplineSet
7 16 m 29
 9 16 l 29
 9 14 l 29
 7 14 l 29
 7 16 l 29
5 14 m 29
 7 14 l 29
 7 12 l 29
 5 12 l 29
 5 14 l 29
EndSplineSet
Refer: 9 97 N 1 0 0 1 0 0 2
EndChar

StartChar: acircumflex
Encoding: 226 226 132
Width: 12
VWidth: 0
Flags: HW
LayerCount: 2
Fore
SplineSet
9 14 m 29
 9 12 l 29
 7 12 l 29
 7 14 l 29
 9 14 l 29
3 14 m 29
 5 14 l 29
 5 12 l 29
 3 12 l 29
 3 14 l 29
5 16 m 29
 7 16 l 29
 7 14 l 29
 5 14 l 29
 5 16 l 29
EndSplineSet
Refer: 9 97 N 1 0 0 1 0 0 2
EndChar

StartChar: atilde
Encoding: 227 227 133
Width: 12
VWidth: 0
Flags: HW
LayerCount: 2
Fore
SplineSet
9 16 m 29
 11 16 l 29
 11 14 l 29
 9 14 l 29
 9 16 l 29
3 16 m 29
 7 16 l 29
 7 14 l 29
 9 14 l 29
 9 12 l 29
 5 12 l 29
 5 14 l 29
 3 14 l 29
 3 16 l 29
1 14 m 29
 3 14 l 29
 3 12 l 29
 1 12 l 29
 1 14 l 29
EndSplineSet
Refer: 9 97 N 1 0 0 1 0 0 2
EndChar

StartChar: adieresis
Encoding: 228 228 134
Width: 12
VWidth: 0
Flags: HW
LayerCount: 2
Fore
SplineSet
7 12 m 29
 7 14 l 29
 9 14 l 29
 9 12 l 29
 7 12 l 29
3 12 m 29
 3 14 l 29
 5 14 l 29
 5 12 l 29
 3 12 l 29
EndSplineSet
Refer: 9 97 N 1 0 0 1 0 0 2
EndChar

StartChar: aring
Encoding: 229 229 135
Width: 12
VWidth: 0
Flags: HW
LayerCount: 2
Fore
SplineSet
3 12 m 29
 3 14 l 29
 5 14 l 29
 5 16 l 29
 7 16 l 29
 7 14 l 29
 9 14 l 29
 9 12 l 29
 7 12 l 29
 7 10 l 29
 5 10 l 29
 5 12 l 29
 3 12 l 29
5 12 m 29
 7 12 l 29
 7 14 l 29
 5 14 l 29
 5 12 l 29
EndSplineSet
Refer: 9 97 N 1 0 0 1 0 0 2
EndChar

StartChar: egrave
Encoding: 232 232 136
Width: 12
VWidth: 0
Flags: HW
LayerCount: 2
Fore
SplineSet
3 14 m 29
 3 16 l 29
 5 16 l 29
 5 14 l 29
 3 14 l 29
5 14 m 29
 7 14 l 29
 7 12 l 29
 5 12 l 29
 5 14 l 29
EndSplineSet
Refer: 8 101 N 1 0 0 1 0 0 2
EndChar

StartChar: eacute
Encoding: 233 233 137
Width: 12
VWidth: 0
Flags: HW
LayerCount: 2
Fore
SplineSet
7 16 m 29
 9 16 l 29
 9 14 l 29
 7 14 l 29
 7 16 l 29
5 14 m 29
 7 14 l 29
 7 12 l 29
 5 12 l 29
 5 14 l 29
EndSplineSet
Refer: 8 101 N 1 0 0 1 0 0 2
EndChar

StartChar: ecircumflex
Encoding: 234 234 138
Width: 12
VWidth: 0
Flags: HW
LayerCount: 2
Fore
SplineSet
9 14 m 29
 9 12 l 29
 7 12 l 29
 7 14 l 29
 9 14 l 29
3 14 m 29
 5 14 l 29
 5 12 l 29
 3 12 l 29
 3 14 l 29
5 16 m 29
 7 16 l 29
 7 14 l 29
 5 14 l 29
 5 16 l 29
EndSplineSet
Refer: 8 101 N 1 0 0 1 0 0 2
EndChar

StartChar: edieresis
Encoding: 235 235 139
Width: 12
VWidth: 0
Flags: HW
LayerCount: 2
Fore
SplineSet
7 12 m 29
 7 14 l 29
 9 14 l 29
 9 12 l 29
 7 12 l 29
3 12 m 29
 3 14 l 29
 5 14 l 29
 5 12 l 29
 3 12 l 29
EndSplineSet
Refer: 8 101 N 1 0 0 1 0 0 2
EndChar

StartChar: dotlessi
Encoding: 305 305 140
Width: 8
VWidth: 0
Flags: HW
LayerCount: 2
Fore
SplineSet
1 0 m 25
 1 2 l 25
 3 2 l 25
 3 8 l 25
 1 8 l 25
 1 10 l 25
 5 10 l 25
 5 2 l 25
 7 2 l 25
 7 0 l 25
 1 0 l 25
EndSplineSet
EndChar

StartChar: igrave
Encoding: 236 236 141
Width: 8
VWidth: 0
Flags: HW
LayerCount: 2
Fore
SplineSet
1 14 m 29
 1 16 l 29
 3 16 l 29
 3 14 l 29
 1 14 l 29
3 14 m 29
 5 14 l 29
 5 12 l 29
 3 12 l 29
 3 14 l 29
EndSplineSet
Refer: 140 305 N 1 0 0 1 0 0 2
EndChar

StartChar: iacute
Encoding: 237 237 142
Width: 8
VWidth: 0
Flags: HW
LayerCount: 2
Fore
SplineSet
5 16 m 29
 7 16 l 29
 7 14 l 29
 5 14 l 29
 5 16 l 29
3 14 m 29
 5 14 l 29
 5 12 l 29
 3 12 l 29
 3 14 l 29
EndSplineSet
Refer: 140 305 N 1 0 0 1 0 0 2
EndChar

StartChar: icircumflex
Encoding: 238 238 143
Width: 8
VWidth: 0
Flags: HW
LayerCount: 2
Fore
SplineSet
7 14 m 29
 7 12 l 29
 5 12 l 29
 5 14 l 29
 7 14 l 29
1 14 m 29
 3 14 l 29
 3 12 l 29
 1 12 l 29
 1 14 l 29
3 16 m 29
 5 16 l 29
 5 14 l 29
 3 14 l 29
 3 16 l 29
EndSplineSet
Refer: 140 305 N 1 0 0 1 0 0 2
EndChar

StartChar: idieresis
Encoding: 239 239 144
Width: 8
VWidth: 0
Flags: HW
LayerCount: 2
Fore
SplineSet
5 12 m 29
 5 14 l 29
 7 14 l 29
 7 12 l 29
 5 12 l 29
1 12 m 29
 1 14 l 29
 3 14 l 29
 3 12 l 29
 1 12 l 29
EndSplineSet
Refer: 140 305 N 1 0 0 1 0 0 2
EndChar

StartChar: ntilde
Encoding: 241 241 145
Width: 12
VWidth: 0
Flags: HW
LayerCount: 2
Fore
SplineSet
9 16 m 29
 11 16 l 29
 11 14 l 29
 9 14 l 29
 9 16 l 29
3 16 m 29
 7 16 l 29
 7 14 l 29
 9 14 l 29
 9 12 l 29
 5 12 l 29
 5 14 l 29
 3 14 l 29
 3 16 l 29
1 14 m 29
 3 14 l 29
 3 12 l 29
 1 12 l 29
 1 14 l 29
EndSplineSet
Refer: 26 110 N 1 0 0 1 0 0 2
EndChar

StartChar: Ugrave
Encoding: 217 217 146
Width: 12
VWidth: 0
Flags: HW
LayerCount: 2
Fore
SplineSet
3 16 m 29
 3 18 l 29
 5 18 l 29
 5 16 l 29
 3 16 l 29
5 16 m 29
 7 16 l 29
 7 14 l 29
 5 14 l 29
 5 16 l 29
EndSplineSet
Refer: 35 85 N 1 0 0 1 0 0 2
EndChar

StartChar: Uacute
Encoding: 218 218 147
Width: 12
VWidth: 0
Flags: HW
LayerCount: 2
Fore
SplineSet
7 18 m 29
 9 18 l 29
 9 16 l 29
 7 16 l 29
 7 18 l 29
5 16 m 29
 7 16 l 29
 7 14 l 29
 5 14 l 29
 5 16 l 29
EndSplineSet
Refer: 35 85 N 1 0 0 1 0 0 2
EndChar

StartChar: Udieresis
Encoding: 220 220 148
Width: 12
VWidth: 0
Flags: HW
LayerCount: 2
Fore
SplineSet
7 16 m 29
 7 18 l 29
 9 18 l 29
 9 16 l 29
 7 16 l 29
3 16 m 29
 3 18 l 29
 5 18 l 29
 5 16 l 29
 3 16 l 29
EndSplineSet
Refer: 35 85 N 1 0 0 1 0 0 2
EndChar

StartChar: Ucircumflex
Encoding: 219 219 149
Width: 12
VWidth: 0
Flags: HW
LayerCount: 2
Fore
SplineSet
9 16 m 29
 9 14 l 29
 7 14 l 29
 7 16 l 29
 9 16 l 29
3 16 m 29
 5 16 l 29
 5 14 l 29
 3 14 l 29
 3 16 l 29
5 18 m 29
 7 18 l 29
 7 16 l 29
 5 16 l 29
 5 18 l 29
11 2 m 25
 9 2 l 25
 9 12 l 25
 11 12 l 25
 11 2 l 25
3 0 m 25
 3 2 l 25
 9 2 l 25
 9 0 l 25
 3 0 l 25
1 2 m 25
 1 12 l 25
 3 12 l 25
 3 2 l 25
 1 2 l 25
EndSplineSet
EndChar

StartChar: ccedilla
Encoding: 231 231 150
Width: 12
VWidth: 0
Flags: HW
LayerCount: 2
Fore
SplineSet
7 -2 m 29
 5 -2 l 29
 5 0 l 29
 7 0 l 29
 7 -2 l 29
1 -4 m 29
 1 -2 l 29
 5 -2 l 29
 5 -4 l 29
 1 -4 l 29
EndSplineSet
Refer: 5 99 N 1 0 0 1 0 0 2
EndChar

StartChar: Ccedilla
Encoding: 199 199 151
Width: 12
VWidth: 0
Flags: HW
LayerCount: 2
Fore
SplineSet
7 -2 m 29
 5 -2 l 29
 5 0 l 29
 7 0 l 29
 7 -2 l 29
1 -4 m 29
 1 -2 l 29
 5 -2 l 29
 5 -4 l 29
 1 -4 l 29
EndSplineSet
Refer: 4 67 N 1 0 0 1 0 0 2
EndChar

StartChar: Ntilde
Encoding: 209 209 152
Width: 12
VWidth: 0
Flags: HW
LayerCount: 2
Fore
SplineSet
9 18 m 29
 11 18 l 29
 11 16 l 29
 9 16 l 29
 9 18 l 29
3 18 m 29
 7 18 l 29
 7 16 l 29
 9 16 l 29
 9 14 l 29
 5 14 l 29
 5 16 l 29
 3 16 l 29
 3 18 l 29
1 16 m 29
 3 16 l 29
 3 14 l 29
 1 14 l 29
 1 16 l 29
7 4 m 25
 7 6 l 25
 9 6 l 25
 9 12 l 25
 11 12 l 25
 11 0 l 25
 9 0 l 25
 9 4 l 25
 7 4 l 25
5 6 m 25
 5 8 l 25
 7 8 l 25
 7 6 l 25
 5 6 l 25
1 0 m 25
 1 12 l 25
 3 12 l 25
 3 10 l 25
 5 10 l 25
 5 8 l 25
 3 8 l 25
 3 0 l 25
 1 0 l 25
EndSplineSet
EndChar

StartChar: Adieresis
Encoding: 196 196 153
Width: 12
VWidth: 0
Flags: HW
LayerCount: 2
Fore
SplineSet
7 16 m 29
 7 18 l 29
 9 18 l 29
 9 16 l 29
 7 16 l 29
3 16 m 29
 3 18 l 29
 5 18 l 29
 5 16 l 29
 3 16 l 29
EndSplineSet
Refer: 11 65 N 1 0 0 1 0 0 2
EndChar

StartChar: Agrave
Encoding: 192 192 154
Width: 12
VWidth: 0
Flags: HW
LayerCount: 2
Fore
SplineSet
3 16 m 29
 3 18 l 29
 5 18 l 29
 5 16 l 29
 3 16 l 29
5 16 m 29
 7 16 l 29
 7 14 l 29
 5 14 l 29
 5 16 l 29
3 6 m 25
 9 6 l 25
 9 8 l 25
 7 8 l 25
 7 10 l 25
 5 10 l 25
 5 8 l 25
 3 8 l 25
 3 6 l 25
1 0 m 25
 1 8 l 25
 3 8 l 25
 3 10 l 25
 5 10 l 25
 5 12 l 25
 7 12 l 25
 7 10 l 25
 9 10 l 25
 9 8 l 25
 11 8 l 25
 11 0 l 25
 9 0 l 25
 9 4 l 25
 3 4 l 25
 3 0 l 25
 1 0 l 25
EndSplineSet
EndChar

StartChar: Aacute
Encoding: 193 193 155
Width: 12
VWidth: 0
Flags: HW
LayerCount: 2
Fore
SplineSet
7 18 m 29
 9 18 l 29
 9 16 l 29
 7 16 l 29
 7 18 l 29
5 16 m 29
 7 16 l 29
 7 14 l 29
 5 14 l 29
 5 16 l 29
3 6 m 25
 9 6 l 25
 9 8 l 25
 7 8 l 25
 7 10 l 25
 5 10 l 25
 5 8 l 25
 3 8 l 25
 3 6 l 25
1 0 m 25
 1 8 l 25
 3 8 l 25
 3 10 l 25
 5 10 l 25
 5 12 l 25
 7 12 l 25
 7 10 l 25
 9 10 l 25
 9 8 l 25
 11 8 l 25
 11 0 l 25
 9 0 l 25
 9 4 l 25
 3 4 l 25
 3 0 l 25
 1 0 l 25
EndSplineSet
EndChar

StartChar: Acircumflex
Encoding: 194 194 156
Width: 12
VWidth: 0
Flags: HW
LayerCount: 2
Fore
SplineSet
9 16 m 29
 9 14 l 29
 7 14 l 29
 7 16 l 29
 9 16 l 29
3 16 m 29
 5 16 l 29
 5 14 l 29
 3 14 l 29
 3 16 l 29
5 18 m 29
 7 18 l 29
 7 16 l 29
 5 16 l 29
 5 18 l 29
3 6 m 25
 9 6 l 25
 9 8 l 25
 7 8 l 25
 7 10 l 25
 5 10 l 25
 5 8 l 25
 3 8 l 25
 3 6 l 25
1 0 m 25
 1 8 l 25
 3 8 l 25
 3 10 l 25
 5 10 l 25
 5 12 l 25
 7 12 l 25
 7 10 l 25
 9 10 l 25
 9 8 l 25
 11 8 l 25
 11 0 l 25
 9 0 l 25
 9 4 l 25
 3 4 l 25
 3 0 l 25
 1 0 l 25
EndSplineSet
EndChar

StartChar: Atilde
Encoding: 195 195 157
Width: 12
VWidth: 0
Flags: HW
LayerCount: 2
Fore
SplineSet
9 18 m 29
 11 18 l 29
 11 16 l 29
 9 16 l 29
 9 18 l 29
3 18 m 29
 7 18 l 29
 7 16 l 29
 9 16 l 29
 9 14 l 29
 5 14 l 29
 5 16 l 29
 3 16 l 29
 3 18 l 29
1 16 m 29
 3 16 l 29
 3 14 l 29
 1 14 l 29
 1 16 l 29
3 6 m 25
 9 6 l 25
 9 8 l 25
 7 8 l 25
 7 10 l 25
 5 10 l 25
 5 8 l 25
 3 8 l 25
 3 6 l 25
1 0 m 25
 1 8 l 25
 3 8 l 25
 3 10 l 25
 5 10 l 25
 5 12 l 25
 7 12 l 25
 7 10 l 25
 9 10 l 25
 9 8 l 25
 11 8 l 25
 11 0 l 25
 9 0 l 25
 9 4 l 25
 3 4 l 25
 3 0 l 25
 1 0 l 25
EndSplineSet
EndChar

StartChar: Aring
Encoding: 197 197 158
Width: 12
VWidth: 0
Flags: HW
LayerCount: 2
Fore
SplineSet
9 16 m 29
 9 14 l 29
 7 14 l 29
 7 16 l 29
 9 16 l 29
3 16 m 29
 5 16 l 29
 5 14 l 29
 3 14 l 29
 3 16 l 29
5 18 m 29
 7 18 l 29
 7 16 l 29
 5 16 l 29
 5 18 l 29
EndSplineSet
Refer: 11 65 N 1 0 0 1 0 0 2
EndChar

StartChar: Edieresis
Encoding: 203 203 159
Width: 12
VWidth: 0
Flags: HW
LayerCount: 2
Fore
SplineSet
7 16 m 29
 7 18 l 29
 9 18 l 29
 9 16 l 29
 7 16 l 29
3 16 m 29
 3 18 l 29
 5 18 l 29
 5 16 l 29
 3 16 l 29
EndSplineSet
Refer: 6 69 N 1 0 0 1 0 0 2
EndChar

StartChar: Egrave
Encoding: 200 200 160
Width: 12
VWidth: 0
Flags: HW
LayerCount: 2
Fore
SplineSet
3 16 m 29
 3 18 l 29
 5 18 l 29
 5 16 l 29
 3 16 l 29
5 16 m 29
 7 16 l 29
 7 14 l 29
 5 14 l 29
 5 16 l 29
1 0 m 25
 1 12 l 25
 11 12 l 25
 11 10 l 25
 3 10 l 25
 3 8 l 25
 9 8 l 25
 9 6 l 25
 3 6 l 25
 3 2 l 25
 11 2 l 25
 11 0 l 25
 1 0 l 25
EndSplineSet
EndChar

StartChar: Eacute
Encoding: 201 201 161
Width: 12
VWidth: 0
Flags: HW
LayerCount: 2
Fore
SplineSet
7 18 m 29
 9 18 l 29
 9 16 l 29
 7 16 l 29
 7 18 l 29
5 16 m 29
 7 16 l 29
 7 14 l 29
 5 14 l 29
 5 16 l 29
1 0 m 25
 1 12 l 25
 11 12 l 25
 11 10 l 25
 3 10 l 25
 3 8 l 25
 9 8 l 25
 9 6 l 25
 3 6 l 25
 3 2 l 25
 11 2 l 25
 11 0 l 25
 1 0 l 25
EndSplineSet
EndChar

StartChar: Ecircumflex
Encoding: 202 202 162
Width: 12
VWidth: 0
Flags: HW
LayerCount: 2
Fore
SplineSet
9 16 m 29
 9 14 l 29
 7 14 l 29
 7 16 l 29
 9 16 l 29
3 16 m 29
 5 16 l 29
 5 14 l 29
 3 14 l 29
 3 16 l 29
5 18 m 29
 7 18 l 29
 7 16 l 29
 5 16 l 29
 5 18 l 29
1 0 m 25
 1 12 l 25
 11 12 l 25
 11 10 l 25
 3 10 l 25
 3 8 l 25
 9 8 l 25
 9 6 l 25
 3 6 l 25
 3 2 l 25
 11 2 l 25
 11 0 l 25
 1 0 l 25
EndSplineSet
EndChar

StartChar: Igrave
Encoding: 204 204 163
Width: 8
VWidth: 0
Flags: HW
LayerCount: 2
Fore
SplineSet
1 16 m 29
 1 18 l 29
 3 18 l 29
 3 16 l 29
 1 16 l 29
3 16 m 29
 5 16 l 29
 5 14 l 29
 3 14 l 29
 3 16 l 29
1 0 m 25
 1 2 l 25
 3 2 l 25
 3 10 l 25
 1 10 l 25
 1 12 l 25
 7 12 l 25
 7 10 l 25
 5 10 l 25
 5 2 l 25
 7 2 l 25
 7 0 l 25
 1 0 l 25
EndSplineSet
EndChar

StartChar: Iacute
Encoding: 205 205 164
Width: 8
VWidth: 0
Flags: HW
LayerCount: 2
Fore
SplineSet
5 18 m 29
 7 18 l 29
 7 16 l 29
 5 16 l 29
 5 18 l 29
3 16 m 29
 5 16 l 29
 5 14 l 29
 3 14 l 29
 3 16 l 29
1 0 m 25
 1 2 l 25
 3 2 l 25
 3 10 l 25
 1 10 l 25
 1 12 l 25
 7 12 l 25
 7 10 l 25
 5 10 l 25
 5 2 l 25
 7 2 l 25
 7 0 l 25
 1 0 l 25
EndSplineSet
EndChar

StartChar: Icircumflex
Encoding: 206 206 165
Width: 8
VWidth: 0
Flags: HW
LayerCount: 2
Fore
SplineSet
7 16 m 29
 7 14 l 29
 5 14 l 29
 5 16 l 29
 7 16 l 29
1 16 m 29
 3 16 l 29
 3 14 l 29
 1 14 l 29
 1 16 l 29
3 18 m 29
 5 18 l 29
 5 16 l 29
 3 16 l 29
 3 18 l 29
1 0 m 25
 1 2 l 25
 3 2 l 25
 3 10 l 25
 1 10 l 25
 1 12 l 25
 7 12 l 25
 7 10 l 25
 5 10 l 25
 5 2 l 25
 7 2 l 25
 7 0 l 25
 1 0 l 25
EndSplineSet
EndChar

StartChar: Idieresis
Encoding: 207 207 166
Width: 8
VWidth: 0
Flags: HW
LayerCount: 2
Fore
SplineSet
5 16 m 29
 5 18 l 29
 7 18 l 29
 7 16 l 29
 5 16 l 29
1 16 m 29
 1 18 l 29
 3 18 l 29
 3 16 l 29
 1 16 l 29
EndSplineSet
Refer: 0 73 N 1 0 0 1 0 0 2
EndChar

StartChar: Eth
Encoding: 208 208 167
Width: 12
VWidth: 0
Flags: HW
LayerCount: 2
Fore
SplineSet
3 2 m 9
 7 2 l 25
 7 4 l 25
 9 4 l 25
 9 10 l 25
 7 10 l 25
 7 12 l 25
 3 12 l 17
 3 8 l 1
 7 8 l 1
 7 6 l 5
 3 6 l 1
 3 2 l 9
1 0 m 25
 1 14 l 25
 7 14 l 25
 7 12 l 25
 9 12 l 25
 9 10 l 25
 11 10 l 25
 11 4 l 25
 9 4 l 25
 9 2 l 25
 7 2 l 25
 7 0 l 25
 1 0 l 25
EndSplineSet
EndChar

StartChar: Otilde
Encoding: 213 213 169
Width: 12
VWidth: 0
Flags: HW
LayerCount: 2
Fore
SplineSet
9 18 m 29
 11 18 l 29
 11 16 l 29
 9 16 l 29
 9 18 l 29
3 18 m 29
 7 18 l 29
 7 16 l 29
 9 16 l 29
 9 14 l 29
 5 14 l 29
 5 16 l 29
 3 16 l 29
 3 18 l 29
1 16 m 29
 3 16 l 29
 3 14 l 29
 1 14 l 29
 1 16 l 29
3 2 m 25
 9 2 l 25
 9 10 l 25
 3 10 l 25
 3 2 l 25
3 0 m 25
 3 2 l 25
 1 2 l 25
 1 10 l 25
 3 10 l 25
 3 12 l 25
 9 12 l 25
 9 10 l 25
 11 10 l 25
 11 2 l 25
 9 2 l 25
 9 0 l 25
 3 0 l 25
EndSplineSet
EndChar

StartChar: Ograve
Encoding: 210 210 170
Width: 12
VWidth: 0
Flags: HW
LayerCount: 2
Fore
SplineSet
3 16 m 29
 3 18 l 29
 5 18 l 29
 5 16 l 29
 3 16 l 29
5 16 m 29
 7 16 l 29
 7 14 l 29
 5 14 l 29
 5 16 l 29
3 2 m 25
 9 2 l 25
 9 10 l 25
 3 10 l 25
 3 2 l 25
3 0 m 25
 3 2 l 25
 1 2 l 25
 1 10 l 25
 3 10 l 25
 3 12 l 25
 9 12 l 25
 9 10 l 25
 11 10 l 25
 11 2 l 25
 9 2 l 25
 9 0 l 25
 3 0 l 25
EndSplineSet
EndChar

StartChar: Oacute
Encoding: 211 211 171
Width: 12
VWidth: 0
Flags: HW
LayerCount: 2
Fore
SplineSet
7 18 m 29
 9 18 l 29
 9 16 l 29
 7 16 l 29
 7 18 l 29
5 16 m 29
 7 16 l 29
 7 14 l 29
 5 14 l 29
 5 16 l 29
3 2 m 25
 9 2 l 25
 9 10 l 25
 3 10 l 25
 3 2 l 25
3 0 m 25
 3 2 l 25
 1 2 l 25
 1 10 l 25
 3 10 l 25
 3 12 l 25
 9 12 l 25
 9 10 l 25
 11 10 l 25
 11 2 l 25
 9 2 l 25
 9 0 l 25
 3 0 l 25
EndSplineSet
EndChar

StartChar: Ocircumflex
Encoding: 212 212 172
Width: 12
VWidth: 0
Flags: HW
LayerCount: 2
Fore
SplineSet
9 16 m 29
 9 14 l 29
 7 14 l 29
 7 16 l 29
 9 16 l 29
3 16 m 29
 5 16 l 29
 5 14 l 29
 3 14 l 29
 3 16 l 29
5 18 m 29
 7 18 l 29
 7 16 l 29
 5 16 l 29
 5 18 l 29
3 2 m 25
 9 2 l 25
 9 10 l 25
 3 10 l 25
 3 2 l 25
3 0 m 25
 3 2 l 25
 1 2 l 25
 1 10 l 25
 3 10 l 25
 3 12 l 25
 9 12 l 25
 9 10 l 25
 11 10 l 25
 11 2 l 25
 9 2 l 25
 9 0 l 25
 3 0 l 25
EndSplineSet
EndChar

StartChar: Yacute
Encoding: 221 221 173
Width: 12
VWidth: 0
Flags: HW
LayerCount: 2
Fore
SplineSet
7 18 m 29
 9 18 l 29
 9 16 l 29
 7 16 l 29
 7 18 l 29
5 16 m 29
 7 16 l 29
 7 14 l 29
 5 14 l 29
 5 16 l 29
EndSplineSet
Refer: 32 89 N 1 0 0 1 0 0 2
EndChar

StartChar: yacute
Encoding: 253 253 174
Width: 12
VWidth: 0
Flags: HW
LayerCount: 2
Fore
SplineSet
7 16 m 29
 9 16 l 29
 9 14 l 29
 7 14 l 29
 7 16 l 29
5 14 m 29
 7 14 l 29
 7 12 l 29
 5 12 l 29
 5 14 l 29
EndSplineSet
Refer: 51 121 N 1 0 0 1 0 0 2
EndChar

StartChar: ydieresis
Encoding: 255 255 175
Width: 12
VWidth: 0
Flags: HW
LayerCount: 2
Fore
SplineSet
7 12 m 29
 7 14 l 29
 9 14 l 29
 9 12 l 29
 7 12 l 29
3 12 m 29
 3 14 l 29
 5 14 l 29
 5 12 l 29
 3 12 l 29
EndSplineSet
Refer: 51 121 N 1 0 0 1 0 0 2
EndChar

StartChar: uni00B5
Encoding: 181 181 176
Width: 12
VWidth: 0
Flags: HW
LayerCount: 2
Fore
SplineSet
7 4 m 25
 9 4 l 25
 9 10 l 25
 11 10 l 25
 11 0 l 25
 9 0 l 25
 9 2 l 25
 7 2 l 25
 7 4 l 25
1 -4 m 25
 1 10 l 25
 3 10 l 25
 3 2 l 25
 7 2 l 25
 7 0 l 25
 3 0 l 25
 3 -4 l 25
 1 -4 l 25
EndSplineSet
EndChar

StartChar: cedilla
Encoding: 184 184 177
Width: 8
VWidth: 0
Flags: HW
LayerCount: 2
Fore
SplineSet
3 4 m 29
 3 6 l 25
 5 6 l 25
 5 4 l 25
 3 4 l 29
5 4 m 25
 7 4 l 25
 7 2 l 25
 5 2 l 25
 5 4 l 25
1 0 m 25
 1 2 l 25
 5 2 l 25
 5 0 l 25
 1 0 l 25
EndSplineSet
EndChar

StartChar: germandbls
Encoding: 223 223 178
Width: 12
VWidth: 0
Flags: HW
LayerCount: 2
Fore
SplineSet
5 2 m 29
 9 2 l 25
 9 0 l 25
 5 0 l 25
 5 2 l 29
11 6 m 25
 11 2 l 25
 9 2 l 25
 9 6 l 25
 11 6 l 25
5 8 m 25
 9 8 l 25
 9 6 l 25
 5 6 l 25
 5 8 l 25
11 12 m 25
 11 8 l 25
 9 8 l 25
 9 12 l 25
 11 12 l 25
3 14 m 25
 9 14 l 25
 9 12 l 25
 3 12 l 25
 3 14 l 25
1 0 m 25
 1 12 l 25
 3 12 l 25
 3 0 l 25
 1 0 l 25
EndSplineSet
EndChar

StartChar: Thorn
Encoding: 222 222 179
Width: 12
VWidth: 0
Flags: HW
LayerCount: 2
Fore
SplineSet
3 10 m 29
 3 4 l 25
 9 4 l 25
 9 10 l 25
 3 10 l 29
1 0 m 25
 1 14 l 25
 3 14 l 25
 3 12 l 25
 9 12 l 25
 9 10 l 25
 11 10 l 25
 11 4 l 25
 9 4 l 25
 9 2 l 25
 3 2 l 25
 3 0 l 25
 1 0 l 25
EndSplineSet
EndChar

StartChar: thorn
Encoding: 254 254 180
Width: 12
VWidth: 0
Flags: HW
LayerCount: 2
Fore
SplineSet
3 2 m 25
 9 2 l 25
 9 8 l 25
 5 8 l 25
 5 6 l 25
 3 6 l 25
 3 2 l 25
1 -4 m 13
 1 14 l 25
 3 14 l 25
 3 8 l 25
 5 8 l 25
 5 10 l 25
 9 10 l 25
 9 8 l 25
 11 8 l 25
 11 2 l 25
 9 2 l 25
 9 0 l 17
 3 0 l 1
 3 -4 l 1
 1 -4 l 13
EndSplineSet
EndChar

StartChar: section
Encoding: 167 167 181
Width: 12
VWidth: 0
Flags: HW
LayerCount: 2
Fore
SplineSet
3 14 m 25
 9 14 l 25
 9 12 l 25
 3 12 l 25
 3 14 l 25
1 10 m 25
 1 12 l 25
 3 12 l 25
 3 10 l 25
 1 10 l 25
3 8 m 25
 3 6 l 25
 9 6 l 25
 9 8 l 25
 3 8 l 25
3 4 m 25
 3 6 l 25
 1 6 l 25
 1 8 l 25
 3 8 l 25
 3 10 l 25
 9 10 l 25
 9 8 l 25
 11 8 l 25
 11 6 l 25
 9 6 l 25
 9 4 l 25
 3 4 l 25
11 2 m 25
 9 2 l 25
 9 4 l 25
 11 4 l 25
 11 2 l 25
3 0 m 25
 3 2 l 25
 9 2 l 25
 9 0 l 25
 3 0 l 25
EndSplineSet
EndChar

StartChar: currency
Encoding: 164 164 182
Width: 12
VWidth: 0
Flags: HW
LayerCount: 2
Fore
SplineSet
9 2 m 29
 11 2 l 25
 11 4 l 25
 9 4 l 25
 9 2 l 29
9 12 m 25
 11 12 l 25
 11 10 l 25
 9 10 l 25
 9 12 l 25
5 8 m 25
 5 6 l 25
 7 6 l 25
 7 8 l 25
 5 8 l 25
1 10 m 25
 1 12 l 25
 3 12 l 25
 3 10 l 25
 1 10 l 25
3 10 m 25
 9 10 l 25
 9 4 l 25
 3 4 l 25
 3 10 l 25
1 2 m 25
 1 4 l 25
 3 4 l 25
 3 2 l 25
 1 2 l 25
EndSplineSet
EndChar

StartChar: yen
Encoding: 165 165 183
Width: 12
VWidth: 0
Flags: HW
LayerCount: 2
Fore
SplineSet
9 14 m 29
 11 14 l 25
 11 10 l 25
 9 10 l 25
 9 14 l 29
1 10 m 25
 1 14 l 25
 3 14 l 25
 3 10 l 25
 1 10 l 25
5 0 m 25
 5 2 l 25
 1 2 l 25
 1 4 l 25
 5 4 l 25
 5 6 l 25
 1 6 l 25
 1 8 l 25
 3 8 l 25
 3 10 l 25
 5 10 l 25
 5 8 l 25
 7 8 l 25
 7 10 l 25
 9 10 l 25
 9 8 l 25
 11 8 l 25
 11 6 l 25
 7 6 l 25
 7 4 l 25
 11 4 l 25
 11 2 l 25
 7 2 l 25
 7 0 l 25
 5 0 l 25
EndSplineSet
EndChar

StartChar: ordmasculine
Encoding: 186 186 184
Width: 12
VWidth: 0
Flags: HW
LayerCount: 2
Fore
SplineSet
1 4 m 29
 11 4 l 25
 11 2 l 25
 1 2 l 25
 1 4 l 29
3 8 m 25
 9 8 l 25
 9 14 l 25
 3 14 l 25
 3 8 l 25
3 14 m 25
 3 16 l 25
 9 16 l 25
 9 14 l 25
 11 14 l 25
 11 8 l 25
 9 8 l 25
 9 6 l 25
 3 6 l 25
 3 8 l 25
 1 8 l 25
 1 14 l 25
 3 14 l 25
EndSplineSet
EndChar

StartChar: ordfeminine
Encoding: 170 170 185
Width: 12
VWidth: 0
Flags: HW
LayerCount: 2
Fore
SplineSet
9 10 m 29
 3 10 l 25
 3 8 l 25
 9 8 l 25
 9 10 l 29
3 14 m 25
 3 16 l 25
 9 16 l 25
 9 14 l 25
 3 14 l 25
11 6 m 25
 3 6 l 25
 3 8 l 25
 1 8 l 25
 1 10 l 25
 3 10 l 25
 3 12 l 25
 9 12 l 25
 9 14 l 25
 11 14 l 25
 11 6 l 25
1 2 m 25
 1 4 l 25
 11 4 l 25
 11 2 l 25
 1 2 l 25
EndSplineSet
EndChar

StartChar: eth
Encoding: 240 240 186
Width: 12
VWidth: 0
Flags: HW
LayerCount: 2
Fore
SplineSet
3 12 m 29
 3 14 l 25
 5 14 l 25
 5 12 l 25
 9 12 l 25
 9 10 l 25
 5 10 l 25
 5 8 l 25
 3 8 l 25
 3 10 l 25
 1 10 l 25
 1 12 l 25
 3 12 l 29
9 4 m 25
 3 4 l 25
 3 2 l 25
 9 2 l 25
 9 4 l 25
3 0 m 25
 3 2 l 25
 1 2 l 25
 1 4 l 25
 3 4 l 25
 3 6 l 25
 9 6 l 25
 9 10 l 25
 11 10 l 25
 11 2 l 25
 9 2 l 25
 9 0 l 25
 3 0 l 25
EndSplineSet
EndChar

StartChar: Oslash
Encoding: 216 216 187
Width: 12
VWidth: 0
Flags: HW
LayerCount: 2
Fore
SplineSet
5 10 m 29
 7 10 l 25
 7 4 l 25
 5 4 l 25
 5 10 l 29
3 12 m 25
 3 4 l 25
 5 4 l 25
 5 2 l 25
 9 2 l 25
 9 10 l 25
 7 10 l 25
 7 12 l 25
 3 12 l 25
9 14 m 25
 11 14 l 25
 11 12 l 25
 9 12 l 25
 9 14 l 25
1 4 m 25
 1 12 l 25
 3 12 l 25
 3 14 l 25
 7 14 l 25
 7 12 l 25
 9 12 l 25
 9 10 l 25
 11 10 l 25
 11 2 l 25
 9 2 l 25
 9 0 l 25
 5 0 l 25
 5 2 l 25
 3 2 l 25
 3 4 l 25
 1 4 l 25
1 0 m 25
 1 2 l 25
 3 2 l 25
 3 0 l 25
 1 0 l 25
EndSplineSet
EndChar

StartChar: oslash
Encoding: 248 248 188
Width: 12
VWidth: 0
Flags: HW
LayerCount: 2
Fore
SplineSet
5 6 m 25
 7 6 l 25
 7 4 l 25
 5 4 l 25
 5 6 l 25
3 8 m 25
 3 4 l 25
 5 4 l 25
 5 2 l 25
 9 2 l 25
 9 6 l 25
 7 6 l 25
 7 8 l 25
 3 8 l 25
9 10 m 25
 11 10 l 25
 11 8 l 25
 9 8 l 25
 9 10 l 25
1 4 m 25
 1 8 l 25
 3 8 l 25
 3 10 l 25
 7 10 l 25
 7 8 l 25
 9 8 l 25
 9 6 l 25
 11 6 l 25
 11 2 l 25
 9 2 l 25
 9 0 l 25
 5 0 l 25
 5 2 l 25
 3 2 l 25
 3 4 l 25
 1 4 l 25
1 0 m 25
 1 2 l 25
 3 2 l 25
 3 0 l 25
 1 0 l 25
EndSplineSet
EndChar

StartChar: uni0000
Encoding: 0 0 192
Width: 16
VWidth: 0
Flags: HW
LayerCount: 2
Fore
SplineSet
1 -4 m 29
 1 18 l 25
 15 18 l 25
 15 -4 l 25
 1 -4 l 29
7 2 m 25
 7 0 l 25
 9 0 l 25
 9 2 l 25
 7 2 l 25
7 6 m 25
 7 4 l 25
 9 4 l 25
 9 6 l 25
 7 6 l 25
9 8 m 25
 9 6 l 25
 11 6 l 25
 11 8 l 25
 9 8 l 25
13 12 m 25
 11 12 l 25
 11 8 l 25
 13 8 l 25
 13 12 l 25
5 14 m 25
 5 12 l 25
 11 12 l 25
 11 14 l 25
 5 14 l 25
3 12 m 25
 3 10 l 25
 5 10 l 25
 5 12 l 25
 3 12 l 25
EndSplineSet
EndChar

StartChar: Idotaccent
Encoding: 304 304 193
Width: 8
VWidth: 0
Flags: HW
LayerCount: 2
Fore
SplineSet
5 16 m 29
 3 16 l 25
 3 18 l 25
 5 18 l 25
 5 16 l 29
EndSplineSet
Refer: 0 73 N 1 0 0 1 0 0 2
EndChar

StartChar: afii10018
Encoding: 1041 1041 196
Width: 12
VWidth: 0
Flags: HW
LayerCount: 2
Fore
SplineSet
3 2 m 25
 9 2 l 25
 9 6 l 25
 3 6 l 25
 3 2 l 25
1 0 m 25
 1 14 l 25
 9 14 l 25
 9 12 l 25
 3 12 l 25
 3 8 l 25
 9 8 l 25
 9 6 l 25
 11 6 l 25
 11 2 l 25
 9 2 l 25
 9 0 l 25
 1 0 l 25
EndSplineSet
EndChar

StartChar: afii10020
Encoding: 1043 1043 197
Width: 12
VWidth: 0
Flags: HW
LayerCount: 2
Fore
SplineSet
1 0 m 29
 1 14 l 25
 11 14 l 25
 11 12 l 25
 3 12 l 25
 3 0 l 25
 1 0 l 29
EndSplineSet
EndChar

StartChar: afii10079
Encoding: 1085 1085 214
Width: 12
VWidth: 0
Flags: HW
LayerCount: 2
Fore
SplineSet
1 0 m 25
 1 10 l 25
 3 10 l 25
 3 6 l 25
 9 6 l 25
 9 10 l 25
 11 10 l 25
 11 0 l 25
 9 0 l 25
 9 4 l 25
 3 4 l 25
 3 0 l 25
 1 0 l 25
EndSplineSet
EndChar

StartChar: afii10084
Encoding: 1090 1090 215
Width: 12
VWidth: 0
Flags: HW
LayerCount: 2
Fore
SplineSet
1 10 m 29
 11 10 l 29
 11 8 l 29
 7 8 l 29
 7 0 l 25
 5 0 l 25
 5 8 l 29
 1 8 l 29
 1 10 l 29
EndSplineSet
EndChar

StartChar: afii10076
Encoding: 1082 1082 218
Width: 12
VWidth: 0
Flags: HW
LayerCount: 2
Fore
SplineSet
9 10 m 25
 11 10 l 25
 11 8 l 25
 9 8 l 25
 9 10 l 25
7 8 m 25
 9 8 l 25
 9 6 l 25
 7 6 l 25
 7 8 l 25
9 0 m 25
 9 2 l 25
 11 2 l 25
 11 0 l 25
 9 0 l 25
7 2 m 25
 7 4 l 25
 9 4 l 25
 9 2 l 25
 7 2 l 25
1 0 m 25
 1 10 l 29
 3 10 l 29
 3 6 l 25
 7 6 l 25
 7 4 l 25
 3 4 l 25
 3 0 l 25
 1 0 l 25
EndSplineSet
EndChar

StartChar: afii10026
Encoding: 1048 1048 219
Width: 12
VWidth: 0
Flags: HW
LayerCount: 2
Fore
SplineSet
7 8 m 25
 7 10 l 25
 9 10 l 25
 9 14 l 25
 11 14 l 25
 11 0 l 25
 9 0 l 25
 9 8 l 25
 7 8 l 25
5 6 m 25
 5 8 l 25
 7 8 l 25
 7 6 l 25
 5 6 l 25
1 0 m 25
 1 14 l 25
 3 14 l 25
 3 6 l 25
 5 6 l 25
 5 4 l 25
 3 4 l 25
 3 0 l 25
 1 0 l 25
EndSplineSet
EndChar

StartChar: afii10074
Encoding: 1080 1080 220
Width: 12
VWidth: 0
Flags: HW
LayerCount: 2
Fore
SplineSet
7 6 m 25
 7 8 l 25
 9 8 l 25
 9 10 l 25
 11 10 l 25
 11 0 l 25
 9 0 l 25
 9 6 l 25
 7 6 l 25
5 4 m 25
 5 6 l 25
 7 6 l 25
 7 4 l 25
 5 4 l 25
1 0 m 25
 1 10 l 25
 3 10 l 25
 3 4 l 25
 5 4 l 25
 5 2 l 25
 3 2 l 25
 3 0 l 25
 1 0 l 25
EndSplineSet
EndChar

StartChar: afii10075
Encoding: 1081 1081 221
Width: 12
VWidth: 0
Flags: HW
LayerCount: 2
Fore
SplineSet
3 16 m 29
 3 14 l 29
 1 14 l 29
 1 16 l 29
 3 16 l 29
11 14 m 29
 9 14 l 29
 9 16 l 29
 11 16 l 29
 11 14 l 29
9 12 m 29
 3 12 l 29
 3 14 l 29
 9 14 l 29
 9 12 l 29
EndSplineSet
Refer: 220 1080 N 1 0 0 1 0 0 2
EndChar

StartChar: afii10027
Encoding: 1049 1049 222
Width: 12
VWidth: 0
Flags: HW
LayerCount: 2
Fore
SplineSet
3 18 m 29
 3 16 l 29
 1 16 l 29
 1 18 l 29
 3 18 l 29
11 16 m 29
 9 16 l 29
 9 18 l 29
 11 18 l 29
 11 16 l 29
9 14 m 29
 3 14 l 29
 3 16 l 29
 9 16 l 29
 9 14 l 29
7 8 m 25
 7 10 l 25
 9 10 l 25
 9 12 l 25
 11 12 l 25
 11 0 l 25
 9 0 l 25
 9 8 l 25
 7 8 l 25
5 6 m 25
 5 8 l 25
 7 8 l 25
 7 6 l 25
 5 6 l 25
1 0 m 25
 1 12 l 25
 3 12 l 25
 3 6 l 25
 5 6 l 25
 5 4 l 25
 3 4 l 25
 3 0 l 25
 1 0 l 25
EndSplineSet
EndChar

StartChar: afii10078
Encoding: 1084 1084 223
Width: 12
VWidth: 0
Flags: HW
LayerCount: 2
Fore
SplineSet
7 8 m 25
 9 8 l 25
 9 10 l 25
 11 10 l 25
 11 0 l 25
 9 0 l 25
 9 6 l 25
 7 6 l 25
 7 8 l 25
5 2 m 25
 5 6 l 25
 7 6 l 25
 7 2 l 25
 5 2 l 25
1 0 m 25
 1 10 l 25
 3 10 l 25
 3 8 l 25
 5 8 l 25
 5 6 l 25
 3 6 l 25
 3 0 l 25
 1 0 l 25
EndSplineSet
EndChar

StartChar: afii10067
Encoding: 1074 1074 224
Width: 12
VWidth: 0
Flags: HW
LayerCount: 2
Fore
SplineSet
3 6 m 25
 9 6 l 25
 9 8 l 25
 3 8 l 25
 3 6 l 25
3 2 m 25
 9 2 l 25
 9 4 l 25
 3 4 l 25
 3 2 l 25
1 0 m 25
 1 10 l 25
 9 10 l 25
 9 8 l 25
 11 8 l 25
 11 6 l 25
 9 6 l 25
 9 4 l 25
 11 4 l 25
 11 2 l 25
 9 2 l 25
 9 0 l 25
 1 0 l 25
EndSplineSet
EndChar

StartChar: afii10068
Encoding: 1075 1075 225
Width: 12
VWidth: 0
Flags: HW
LayerCount: 2
Fore
SplineSet
1 0 m 25
 1 10 l 25
 11 10 l 25
 11 8 l 25
 3 8 l 25
 3 0 l 25
 1 0 l 25
EndSplineSet
EndChar

StartChar: afii10024
Encoding: 1046 1046 226
Width: 12
VWidth: 0
Flags: HW
LayerCount: 2
Fore
SplineSet
9 0 m 29
 9 4 l 25
 11 4 l 25
 11 0 l 25
 9 0 l 29
9 14 m 25
 11 14 l 25
 11 10 l 25
 9 10 l 25
 9 14 l 25
1 10 m 25
 1 14 l 25
 3 14 l 25
 3 10 l 25
 1 10 l 25
5 0 m 25
 5 4 l 25
 3 4 l 25
 3 6 l 25
 5 6 l 25
 5 8 l 25
 3 8 l 25
 3 10 l 25
 5 10 l 25
 5 14 l 25
 7 14 l 25
 7 10 l 25
 9 10 l 25
 9 8 l 25
 7 8 l 25
 7 6 l 25
 9 6 l 25
 9 4 l 25
 7 4 l 25
 7 0 l 25
 5 0 l 25
1 0 m 25
 1 4 l 25
 3 4 l 25
 3 0 l 25
 1 0 l 25
EndSplineSet
EndChar

StartChar: afii10072
Encoding: 1078 1078 227
Width: 12
VWidth: 0
Flags: HW
LayerCount: 2
Fore
SplineSet
9 0 m 25
 9 2 l 25
 11 2 l 25
 11 0 l 25
 9 0 l 25
9 10 m 25
 11 10 l 25
 11 8 l 25
 9 8 l 25
 9 10 l 25
1 8 m 25
 1 10 l 25
 3 10 l 25
 3 8 l 25
 1 8 l 25
5 0 m 25
 5 2 l 25
 3 2 l 25
 3 4 l 25
 5 4 l 25
 5 6 l 25
 3 6 l 25
 3 8 l 25
 5 8 l 25
 5 10 l 25
 7 10 l 25
 7 8 l 25
 9 8 l 25
 9 6 l 25
 7 6 l 25
 7 4 l 25
 9 4 l 25
 9 2 l 25
 7 2 l 25
 7 0 l 25
 5 0 l 25
1 0 m 25
 1 2 l 25
 3 2 l 25
 3 0 l 25
 1 0 l 25
EndSplineSet
EndChar

StartChar: afii10025
Encoding: 1047 1047 228
Width: 12
VWidth: 0
Flags: HW
LayerCount: 2
Fore
SplineSet
1 12 m 25
 1 14 l 25
 9 14 l 25
 9 12 l 25
 1 12 l 25
11 8 m 25
 9 8 l 25
 9 12 l 25
 11 12 l 25
 11 8 l 25
3 6 m 25
 3 8 l 25
 9 8 l 25
 9 6 l 25
 3 6 l 25
11 2 m 25
 9 2 l 25
 9 6 l 25
 11 6 l 25
 11 2 l 25
1 0 m 25
 1 2 l 25
 9 2 l 25
 9 0 l 25
 1 0 l 25
EndSplineSet
EndChar

StartChar: afii10073
Encoding: 1079 1079 229
Width: 12
VWidth: 0
Flags: HW
LayerCount: 2
Fore
SplineSet
1 8 m 25
 1 10 l 25
 9 10 l 25
 9 8 l 25
 1 8 l 25
11 6 m 25
 9 6 l 25
 9 8 l 25
 11 8 l 25
 11 6 l 25
3 4 m 25
 3 6 l 25
 9 6 l 25
 9 4 l 25
 3 4 l 25
11 2 m 25
 9 2 l 25
 9 4 l 25
 11 4 l 25
 11 2 l 25
1 0 m 25
 1 2 l 25
 9 2 l 25
 9 0 l 25
 1 0 l 25
EndSplineSet
EndChar

StartChar: afii10049
Encoding: 1071 1071 230
Width: 12
VWidth: 0
Flags: HW
LayerCount: 2
Fore
SplineSet
9 8 m 29
 9 12 l 25
 3 12 l 25
 3 8 l 25
 9 8 l 29
1 0 m 25
 1 2 l 25
 3 2 l 25
 3 0 l 25
 1 0 l 25
3 2 m 25
 3 4 l 25
 5 4 l 25
 5 2 l 25
 3 2 l 25
11 0 m 25
 9 0 l 25
 9 6 l 25
 7 6 l 25
 7 4 l 25
 5 4 l 25
 5 6 l 25
 3 6 l 25
 3 8 l 25
 1 8 l 25
 1 12 l 25
 3 12 l 25
 3 14 l 25
 11 14 l 25
 11 0 l 25
EndSplineSet
EndChar

StartChar: afii10048
Encoding: 1070 1070 231
Width: 12
VWidth: 0
Flags: HW
LayerCount: 2
Fore
SplineSet
7 12 m 25
 7 2 l 25
 9 2 l 25
 9 12 l 25
 7 12 l 25
1 0 m 25
 1 14 l 25
 3 14 l 25
 3 8 l 25
 5 8 l 25
 5 12 l 25
 7 12 l 25
 7 14 l 25
 9 14 l 25
 9 12 l 25
 11 12 l 25
 11 2 l 25
 9 2 l 25
 9 0 l 25
 7 0 l 25
 7 2 l 25
 5 2 l 25
 5 6 l 25
 3 6 l 25
 3 0 l 25
 1 0 l 25
EndSplineSet
EndChar

StartChar: afii10096
Encoding: 1102 1102 232
Width: 12
VWidth: 0
Flags: HW
LayerCount: 2
Fore
SplineSet
7 8 m 25
 7 2 l 25
 9 2 l 25
 9 8 l 25
 7 8 l 25
1 0 m 25
 1 10 l 25
 3 10 l 25
 3 6 l 25
 5 6 l 25
 5 8 l 25
 7 8 l 25
 7 10 l 25
 9 10 l 25
 9 8 l 25
 11 8 l 25
 11 2 l 25
 9 2 l 25
 9 0 l 25
 7 0 l 25
 7 2 l 25
 5 2 l 25
 5 4 l 25
 3 4 l 25
 3 0 l 25
 1 0 l 25
EndSplineSet
EndChar

StartChar: afii10033
Encoding: 1055 1055 233
Width: 12
VWidth: 0
Flags: HW
LayerCount: 2
Fore
SplineSet
1 0 m 29
 1 14 l 25
 11 14 l 25
 11 0 l 25
 9 0 l 25
 9 12 l 25
 3 12 l 25
 3 0 l 25
 1 0 l 29
EndSplineSet
EndChar

StartChar: afii10081
Encoding: 1087 1087 234
Width: 12
VWidth: 0
Flags: HW
LayerCount: 2
Fore
SplineSet
1 0 m 25
 1 10 l 25
 11 10 l 25
 11 0 l 25
 9 0 l 25
 9 8 l 25
 3 8 l 25
 3 0 l 25
 1 0 l 25
EndSplineSet
EndChar

StartChar: afii10021
Encoding: 1044 1044 235
Width: 12
VWidth: 0
Flags: HW
LayerCount: 2
Fore
SplineSet
5 4 m 25
 9 4 l 25
 9 12 l 25
 5 12 l 25
 5 4 l 25
1 0 m 25
 1 4 l 25
 3 4 l 25
 3 14 l 25
 11 14 l 25
 11 0 l 25
 9 0 l 25
 9 2 l 25
 3 2 l 25
 3 0 l 25
 1 0 l 25
EndSplineSet
EndChar

StartChar: afii10069
Encoding: 1076 1076 236
Width: 12
VWidth: 0
Flags: HW
LayerCount: 2
Fore
SplineSet
5 4 m 25
 9 4 l 25
 9 8 l 25
 5 8 l 25
 5 4 l 25
1 0 m 25
 1 4 l 25
 3 4 l 25
 3 10 l 25
 11 10 l 25
 11 0 l 25
 9 0 l 25
 9 2 l 25
 3 2 l 25
 3 0 l 25
 1 0 l 25
EndSplineSet
EndChar

StartChar: afii10029
Encoding: 1051 1051 237
Width: 12
VWidth: 0
Flags: HW
LayerCount: 2
Fore
SplineSet
1 0 m 29
 1 2 l 25
 3 2 l 25
 3 0 l 25
 1 0 l 29
3 2 m 25
 3 14 l 25
 11 14 l 25
 11 0 l 25
 9 0 l 25
 9 12 l 25
 5 12 l 25
 5 2 l 25
 3 2 l 25
EndSplineSet
EndChar

StartChar: afii10077
Encoding: 1083 1083 238
Width: 12
VWidth: 0
Flags: HW
LayerCount: 2
Fore
SplineSet
1 0 m 25
 1 2 l 25
 3 2 l 25
 3 0 l 25
 1 0 l 25
3 2 m 25
 3 10 l 25
 11 10 l 25
 11 0 l 25
 9 0 l 25
 9 8 l 25
 5 8 l 25
 5 2 l 25
 3 2 l 25
EndSplineSet
EndChar

StartChar: afii10047
Encoding: 1069 1069 239
Width: 12
VWidth: 0
Flags: HW
LayerCount: 2
Fore
SplineSet
7 14 m 29
 7 12 l 25
 1 12 l 25
 1 14 l 25
 7 14 l 29
9 12 m 25
 9 10 l 25
 7 10 l 25
 7 12 l 25
 9 12 l 25
11 4 m 25
 9 4 l 25
 9 6 l 25
 3 6 l 25
 3 8 l 25
 9 8 l 25
 9 10 l 25
 11 10 l 25
 11 4 l 25
9 2 m 25
 7 2 l 25
 7 4 l 25
 9 4 l 25
 9 2 l 25
1 0 m 25
 1 2 l 25
 7 2 l 25
 7 0 l 25
 1 0 l 25
EndSplineSet
EndChar

StartChar: afii10095
Encoding: 1101 1101 240
Width: 12
VWidth: 0
Flags: HW
LayerCount: 2
Fore
SplineSet
1 8 m 29
 1 10 l 25
 9 10 l 25
 9 8 l 25
 1 8 l 29
11 2 m 25
 9 2 l 25
 9 4 l 25
 3 4 l 25
 3 6 l 25
 9 6 l 25
 9 8 l 25
 11 8 l 25
 11 2 l 25
1 0 m 25
 1 2 l 25
 9 2 l 25
 9 0 l 25
 1 0 l 25
EndSplineSet
EndChar

StartChar: afii10097
Encoding: 1103 1103 241
Width: 12
VWidth: 0
Flags: HW
LayerCount: 2
Fore
SplineSet
3 0 m 29
 1 0 l 25
 1 4 l 25
 3 4 l 25
 3 0 l 29
9 6 m 25
 9 8 l 25
 3 8 l 25
 3 6 l 25
 9 6 l 25
11 0 m 25
 9 0 l 25
 9 4 l 25
 3 4 l 25
 3 6 l 25
 1 6 l 25
 1 8 l 25
 3 8 l 25
 3 10 l 25
 11 10 l 25
 11 0 l 25
EndSplineSet
EndChar

StartChar: afii10041
Encoding: 1063 1063 243
Width: 12
VWidth: 0
Flags: HW
LayerCount: 2
Fore
SplineSet
1 6 m 29
 1 14 l 25
 3 14 l 25
 3 6 l 25
 1 6 l 29
7 4 m 25
 3 4 l 25
 3 6 l 25
 7 6 l 25
 7 4 l 25
11 0 m 25
 9 0 l 25
 9 6 l 25
 7 6 l 25
 7 8 l 25
 9 8 l 25
 9 14 l 25
 11 14 l 25
 11 0 l 25
EndSplineSet
EndChar

StartChar: afii10089
Encoding: 1095 1095 244
Width: 12
VWidth: 0
Flags: HW
LayerCount: 2
Fore
SplineSet
1 6 m 25
 1 10 l 25
 3 10 l 25
 3 6 l 25
 1 6 l 25
11 0 m 25
 9 0 l 25
 9 4 l 25
 3 4 l 25
 3 6 l 25
 9 6 l 25
 9 10 l 25
 11 10 l 25
 11 0 l 25
EndSplineSet
EndChar

StartChar: afii10046
Encoding: 1068 1068 245
Width: 12
VWidth: 0
Flags: HW
LayerCount: 2
Fore
SplineSet
3 2 m 29
 9 2 l 25
 9 8 l 25
 3 8 l 25
 3 2 l 29
1 0 m 25
 1 14 l 25
 3 14 l 25
 3 10 l 25
 9 10 l 25
 9 8 l 25
 11 8 l 25
 11 2 l 25
 9 2 l 25
 9 0 l 25
 1 0 l 25
EndSplineSet
EndChar

StartChar: afii10045
Encoding: 1067 1067 246
Width: 12
VWidth: 0
Flags: HW
LayerCount: 2
Fore
SplineSet
9 0 m 29
 9 14 l 25
 11 14 l 25
 11 0 l 25
 9 0 l 29
3 2 m 25
 5 2 l 25
 5 8 l 25
 3 8 l 25
 3 2 l 25
1 0 m 25
 1 14 l 25
 3 14 l 25
 3 10 l 25
 5 10 l 25
 5 8 l 25
 7 8 l 25
 7 2 l 25
 5 2 l 25
 5 0 l 25
 1 0 l 25
EndSplineSet
EndChar

StartChar: afii10093
Encoding: 1099 1099 247
Width: 12
VWidth: 0
Flags: HW
LayerCount: 2
Fore
SplineSet
9 0 m 25
 9 10 l 25
 11 10 l 25
 11 0 l 25
 9 0 l 25
3 2 m 25
 5 2 l 25
 5 6 l 25
 3 6 l 25
 3 2 l 25
1 0 m 25
 1 10 l 25
 3 10 l 25
 3 8 l 25
 5 8 l 25
 5 6 l 25
 7 6 l 25
 7 2 l 25
 5 2 l 25
 5 0 l 25
 1 0 l 25
EndSplineSet
EndChar

StartChar: afii10094
Encoding: 1100 1100 248
Width: 12
VWidth: 0
Flags: HW
LayerCount: 2
Fore
SplineSet
3 2 m 29
 9 2 l 25
 9 6 l 25
 5 6 l 25
 5 4 l 25
 3 4 l 25
 3 2 l 29
1 0 m 25
 1 10 l 25
 3 10 l 25
 3 6 l 25
 5 6 l 25
 5 8 l 25
 9 8 l 25
 9 6 l 25
 11 6 l 25
 11 2 l 25
 9 2 l 25
 9 0 l 25
 1 0 l 25
EndSplineSet
EndChar

StartChar: afii10092
Encoding: 1098 1098 249
Width: 12
VWidth: 0
Flags: HW
LayerCount: 2
Fore
SplineSet
5 2 m 25
 9 2 l 25
 9 6 l 25
 7 6 l 25
 7 4 l 25
 5 4 l 25
 5 2 l 25
3 0 m 17
 3 8 l 1
 1 8 l 1
 1 10 l 13
 5 10 l 25
 5 6 l 25
 7 6 l 25
 7 8 l 25
 9 8 l 25
 9 6 l 25
 11 6 l 25
 11 2 l 25
 9 2 l 25
 9 0 l 25
 3 0 l 17
EndSplineSet
EndChar

StartChar: afii10044
Encoding: 1066 1066 250
Width: 12
VWidth: 0
Flags: HW
LayerCount: 2
Fore
SplineSet
5 2 m 25
 9 2 l 25
 9 8 l 25
 5 8 l 25
 5 2 l 25
3 0 m 17
 3 12 l 1
 1 12 l 1
 1 14 l 9
 5 14 l 25
 5 10 l 25
 9 10 l 25
 9 8 l 25
 11 8 l 25
 11 2 l 25
 9 2 l 25
 9 0 l 25
 3 0 l 17
EndSplineSet
EndChar

StartChar: afii10040
Encoding: 1062 1062 251
Width: 12
VWidth: 0
Flags: HW
LayerCount: 2
Fore
SplineSet
11 -4 m 13
 9 -4 l 29
 9 0 l 29
 1 0 l 25
 1 14 l 25
 3 14 l 25
 3 2 l 25
 7 2 l 29
 7 14 l 29
 9 14 l 21
 9 2 l 5
 11 2 l 5
 11 -4 l 13
EndSplineSet
EndChar

StartChar: afii10088
Encoding: 1094 1094 252
Width: 12
VWidth: 0
Flags: HW
LayerCount: 2
Fore
SplineSet
11 -4 m 9
 9 -4 l 25
 9 0 l 25
 1 0 l 25
 1 10 l 25
 3 10 l 25
 3 2 l 25
 7 2 l 25
 7 10 l 25
 9 10 l 17
 9 2 l 5
 11 2 l 1
 11 -4 l 9
EndSplineSet
EndChar

StartChar: afii10042
Encoding: 1064 1064 253
Width: 12
VWidth: 0
Flags: HW
LayerCount: 2
Fore
SplineSet
1 0 m 29
 1 14 l 25
 3 14 l 25
 3 2 l 25
 5 2 l 25
 5 12 l 25
 7 12 l 25
 7 2 l 25
 9 2 l 25
 9 14 l 25
 11 14 l 25
 11 0 l 25
 1 0 l 29
EndSplineSet
EndChar

StartChar: afii10043
Encoding: 1065 1065 254
Width: 14
VWidth: 0
Flags: HW
LayerCount: 2
Fore
SplineSet
13 -4 m 13
 11 -4 l 29
 11 0 l 29
 1 0 l 29
 1 14 l 25
 3 14 l 25
 3 2 l 21
 5 2 l 5
 5 12 l 1
 7 12 l 1
 7 2 l 5
 9 2 l 13
 9 14 l 25
 11 14 l 17
 11 2 l 5
 13 2 l 5
 13 -4 l 13
EndSplineSet
EndChar

StartChar: afii10091
Encoding: 1097 1097 255
Width: 14
VWidth: 0
Flags: HW
LayerCount: 2
Fore
SplineSet
13 -4 m 13
 11 -4 l 29
 11 0 l 29
 1 0 l 25
 1 10 l 25
 3 10 l 25
 3 2 l 17
 5 2 l 1
 5 8 l 1
 7 8 l 1
 7 2 l 1
 9 2 l 9
 9 10 l 25
 11 10 l 17
 11 2 l 1
 13 2 l 1
 13 -4 l 13
EndSplineSet
EndChar

StartChar: afii10090
Encoding: 1096 1096 256
Width: 12
VWidth: 0
Flags: HW
LayerCount: 2
Fore
SplineSet
1 0 m 25
 1 10 l 29
 3 10 l 29
 3 2 l 25
 5 2 l 25
 5 8 l 29
 7 8 l 29
 7 2 l 25
 9 2 l 25
 9 10 l 29
 11 10 l 29
 11 0 l 25
 1 0 l 25
EndSplineSet
EndChar

StartChar: afii10038
Encoding: 1060 1060 257
Width: 12
VWidth: 0
Flags: HW
LayerCount: 2
Fore
SplineSet
7 4 m 29
 9 4 l 25
 9 10 l 25
 7 10 l 25
 7 4 l 29
5 4 m 25
 5 10 l 25
 3 10 l 25
 3 4 l 25
 5 4 l 25
5 0 m 25
 5 2 l 25
 3 2 l 25
 3 4 l 25
 1 4 l 25
 1 10 l 25
 3 10 l 25
 3 12 l 25
 5 12 l 25
 5 14 l 25
 7 14 l 25
 7 12 l 25
 9 12 l 25
 9 10 l 25
 11 10 l 25
 11 4 l 25
 9 4 l 25
 9 2 l 25
 7 2 l 25
 7 0 l 25
 5 0 l 25
EndSplineSet
EndChar

StartChar: afii10066
Encoding: 1073 1073 258
Width: 12
VWidth: 0
Flags: HW
LayerCount: 2
Fore
SplineSet
3 8 m 29
 3 2 l 25
 9 2 l 25
 9 8 l 25
 3 8 l 29
9 14 m 25
 9 12 l 25
 3 12 l 25
 3 14 l 25
 9 14 l 25
3 0 m 25
 3 2 l 25
 1 2 l 25
 1 12 l 25
 3 12 l 25
 3 10 l 25
 9 10 l 25
 9 8 l 25
 11 8 l 25
 11 2 l 25
 9 2 l 25
 9 0 l 25
 3 0 l 25
EndSplineSet
EndChar

StartChar: afii10086
Encoding: 1092 1092 259
Width: 12
VWidth: 0
Flags: HW
LayerCount: 2
Fore
SplineSet
7 2 m 25
 9 2 l 25
 9 6 l 25
 7 6 l 25
 7 2 l 25
5 2 m 25
 5 6 l 25
 3 6 l 25
 3 2 l 25
 5 2 l 25
5 -4 m 25
 5 0 l 25
 3 0 l 25
 3 2 l 25
 1 2 l 25
 1 6 l 25
 3 6 l 25
 3 8 l 25
 5 8 l 25
 5 10 l 25
 7 10 l 25
 7 8 l 25
 9 8 l 25
 9 6 l 25
 11 6 l 25
 11 2 l 25
 9 2 l 25
 9 0 l 25
 7 0 l 25
 7 -4 l 25
 5 -4 l 25
EndSplineSet
EndChar

StartChar: afii10037
Encoding: 1059 1059 260
Width: 12
VWidth: 0
Flags: HW
LayerCount: 2
Fore
SplineSet
11 8 m 29
 9 8 l 25
 9 14 l 25
 11 14 l 25
 11 8 l 29
9 6 m 25
 7 6 l 25
 7 8 l 25
 9 8 l 25
 9 6 l 25
7 4 m 25
 5 4 l 25
 5 6 l 25
 7 6 l 25
 7 4 l 25
5 2 m 25
 3 2 l 25
 3 4 l 25
 5 4 l 25
 5 2 l 25
1 0 m 25
 1 2 l 25
 3 2 l 25
 3 0 l 25
 1 0 l 25
5 8 m 25
 5 6 l 25
 3 6 l 25
 3 8 l 25
 5 8 l 25
1 14 m 25
 3 14 l 25
 3 8 l 25
 1 8 l 25
 1 14 l 25
EndSplineSet
EndChar

StartChar: afii10085
Encoding: 1091 1091 261
Width: 12
VWidth: 0
Flags: HW
LayerCount: 2
Fore
SplineSet
11 6 m 25
 9 6 l 25
 9 10 l 25
 11 10 l 25
 11 6 l 25
9 2 m 25
 7 2 l 25
 7 6 l 25
 9 6 l 25
 9 2 l 25
7 0 m 25
 5 0 l 25
 5 2 l 25
 7 2 l 25
 7 0 l 25
5 -2 m 25
 3 -2 l 25
 3 0 l 25
 5 0 l 25
 5 -2 l 25
1 -4 m 25
 1 -2 l 25
 3 -2 l 25
 3 -4 l 25
 1 -4 l 25
5 6 m 25
 5 2 l 25
 3 2 l 25
 3 6 l 25
 5 6 l 25
1 10 m 25
 3 10 l 25
 3 6 l 25
 1 6 l 25
 1 10 l 25
EndSplineSet
EndChar

StartChar: afii10053
Encoding: 1028 1028 262
Width: 12
VWidth: 0
Flags: HW
LayerCount: 2
Fore
SplineSet
9 10 m 29
 9 12 l 25
 11 12 l 25
 11 10 l 25
 9 10 l 29
3 14 m 25
 9 14 l 25
 9 12 l 25
 3 12 l 25
 3 14 l 25
9 4 m 25
 11 4 l 25
 11 2 l 25
 9 2 l 25
 9 4 l 25
3 0 m 25
 3 2 l 25
 9 2 l 25
 9 0 l 25
 3 0 l 25
1 2 m 25
 1 12 l 25
 3 12 l 25
 3 8 l 25
 7 8 l 25
 7 6 l 25
 3 6 l 25
 3 2 l 25
 1 2 l 25
EndSplineSet
EndChar

StartChar: afii10101
Encoding: 1108 1108 263
Width: 12
VWidth: 0
Flags: HW
LayerCount: 2
Fore
SplineSet
3 10 m 29
 11 10 l 25
 11 8 l 25
 3 8 l 25
 3 10 l 29
1 2 m 25
 1 8 l 25
 3 8 l 25
 3 6 l 25
 9 6 l 25
 9 4 l 25
 3 4 l 25
 3 2 l 25
 1 2 l 25
11 0 m 25
 3 0 l 25
 3 2 l 25
 11 2 l 25
 11 0 l 25
EndSplineSet
EndChar

StartChar: afii10100
Encoding: 1107 1107 272
Width: 12
VWidth: 0
Flags: HW
LayerCount: 2
Fore
SplineSet
7 16 m 29
 9 16 l 29
 9 14 l 29
 7 14 l 29
 7 16 l 29
5 14 m 29
 7 14 l 29
 7 12 l 29
 5 12 l 29
 5 14 l 29
EndSplineSet
Refer: 225 1075 N 1 0 0 1 0 0 2
EndChar

StartChar: afii10052
Encoding: 1027 1027 273
Width: 12
VWidth: 0
Flags: HW
LayerCount: 2
Fore
SplineSet
7 18 m 29
 9 18 l 29
 9 16 l 29
 7 16 l 29
 7 18 l 29
5 16 m 29
 7 16 l 29
 7 14 l 29
 5 14 l 29
 5 16 l 29
1 0 m 25
 1 12 l 25
 11 12 l 25
 11 10 l 25
 3 10 l 25
 3 0 l 25
 1 0 l 25
EndSplineSet
EndChar

StartChar: afii10109
Encoding: 1116 1116 274
Width: 12
VWidth: 0
Flags: HW
LayerCount: 2
Fore
SplineSet
7 16 m 29
 9 16 l 29
 9 14 l 29
 7 14 l 29
 7 16 l 29
5 14 m 29
 7 14 l 29
 7 12 l 29
 5 12 l 29
 5 14 l 29
EndSplineSet
Refer: 218 1082 N 1 0 0 1 0 0 2
EndChar

StartChar: afii10061
Encoding: 1036 1036 275
Width: 12
VWidth: 0
Flags: HW
LayerCount: 2
Fore
SplineSet
7 18 m 29
 9 18 l 29
 9 16 l 29
 7 16 l 29
 7 18 l 29
5 16 m 29
 7 16 l 29
 7 14 l 29
 5 14 l 29
 5 16 l 29
EndSplineSet
Refer: 202 1050 N 1 0 0 1 0 0 2
EndChar

StartChar: uni040D
Encoding: 1037 1037 276
Width: 12
VWidth: 0
Flags: HW
LayerCount: 2
Fore
SplineSet
3 18 m 29
 5 18 l 29
 5 16 l 29
 3 16 l 29
 3 18 l 29
5 16 m 29
 7 16 l 29
 7 14 l 29
 5 14 l 29
 5 16 l 29
EndSplineSet
Refer: 219 1048 N 1 0 0 1 0 0 2
EndChar

StartChar: uni045D
Encoding: 1117 1117 277
Width: 12
VWidth: 0
Flags: HW
LayerCount: 2
Fore
SplineSet
3 16 m 29
 5 16 l 29
 5 14 l 29
 3 14 l 29
 3 16 l 29
5 14 m 29
 7 14 l 29
 7 12 l 29
 5 12 l 29
 5 14 l 29
EndSplineSet
Refer: 220 1080 N 1 0 0 1 0 0 2
EndChar

StartChar: afii10059
Encoding: 1034 1034 278
Width: 12
VWidth: 0
Flags: HW
LayerCount: 2
Fore
SplineSet
7 2 m 29
 9 2 l 25
 9 6 l 25
 7 6 l 25
 7 2 l 29
1 0 m 25
 1 14 l 25
 3 14 l 25
 3 8 l 25
 5 8 l 25
 5 14 l 25
 7 14 l 25
 7 8 l 25
 9 8 l 25
 9 6 l 25
 11 6 l 25
 11 2 l 25
 9 2 l 25
 9 0 l 25
 5 0 l 25
 5 6 l 25
 3 6 l 25
 3 0 l 25
 1 0 l 25
EndSplineSet
EndChar

StartChar: afii10110
Encoding: 1118 1118 279
Width: 12
VWidth: 0
Flags: HW
LayerCount: 2
Fore
SplineSet
3 16 m 29
 3 14 l 29
 1 14 l 29
 1 16 l 29
 3 16 l 29
11 14 m 29
 9 14 l 29
 9 16 l 29
 11 16 l 29
 11 14 l 29
9 12 m 29
 3 12 l 29
 3 14 l 29
 9 14 l 29
 9 12 l 29
EndSplineSet
Refer: 261 1091 N 1 0 0 1 0 0 2
EndChar

StartChar: afii10062
Encoding: 1038 1038 280
Width: 12
VWidth: 0
Flags: HW
LayerCount: 2
Fore
SplineSet
3 18 m 29
 3 16 l 29
 1 16 l 29
 1 18 l 29
 3 18 l 29
11 16 m 29
 9 16 l 29
 9 18 l 29
 11 18 l 29
 11 16 l 29
9 14 m 29
 3 14 l 29
 3 16 l 29
 9 16 l 29
 9 14 l 29
11 8 m 25
 9 8 l 25
 9 12 l 25
 11 12 l 25
 11 8 l 25
9 6 m 25
 7 6 l 25
 7 8 l 25
 9 8 l 25
 9 6 l 25
7 4 m 25
 5 4 l 25
 5 6 l 25
 7 6 l 25
 7 4 l 25
5 2 m 25
 3 2 l 25
 3 4 l 25
 5 4 l 25
 5 2 l 25
1 0 m 25
 1 2 l 25
 3 2 l 25
 3 0 l 25
 1 0 l 25
5 8 m 25
 5 6 l 25
 3 6 l 25
 3 8 l 25
 5 8 l 25
1 12 m 25
 3 12 l 25
 3 8 l 25
 1 8 l 25
 1 12 l 25
EndSplineSet
EndChar

StartChar: afii10145
Encoding: 1039 1039 281
Width: 12
VWidth: 0
Flags: HW
LayerCount: 2
Fore
SplineSet
5 -2 m 29
 5 2 l 25
 1 2 l 25
 1 14 l 25
 3 14 l 25
 3 4 l 25
 9 4 l 25
 9 14 l 25
 11 14 l 25
 11 2 l 25
 7 2 l 25
 7 -2 l 25
 5 -2 l 29
EndSplineSet
EndChar

StartChar: afii10193
Encoding: 1119 1119 282
Width: 12
VWidth: 0
Flags: HW
LayerCount: 2
Fore
SplineSet
5 -4 m 25
 5 0 l 25
 1 0 l 25
 1 10 l 25
 3 10 l 25
 3 2 l 25
 9 2 l 25
 9 10 l 25
 11 10 l 25
 11 0 l 25
 7 0 l 25
 7 -4 l 25
 5 -4 l 25
EndSplineSet
EndChar

StartChar: afii10107
Encoding: 1114 1114 283
Width: 12
VWidth: 0
Flags: HW
LayerCount: 2
Fore
SplineSet
7 2 m 25
 9 2 l 25
 9 4 l 25
 7 4 l 25
 7 2 l 25
1 0 m 25
 1 10 l 25
 3 10 l 25
 3 6 l 25
 5 6 l 25
 5 10 l 25
 7 10 l 25
 7 6 l 25
 9 6 l 25
 9 4 l 25
 11 4 l 25
 11 2 l 25
 9 2 l 25
 9 0 l 25
 5 0 l 25
 5 4 l 25
 3 4 l 25
 3 0 l 25
 1 0 l 25
EndSplineSet
EndChar

StartChar: afii10058
Encoding: 1033 1033 284
Width: 14
VWidth: 0
Flags: HW
LayerCount: 2
Fore
SplineSet
9 2 m 25
 11 2 l 25
 11 6 l 25
 9 6 l 25
 9 2 l 25
5 2 m 25
 3 2 l 25
 3 14 l 25
 9 14 l 25
 9 8 l 25
 11 8 l 25
 11 6 l 25
 13 6 l 25
 13 2 l 25
 11 2 l 25
 11 0 l 25
 7 0 l 25
 7 12 l 25
 5 12 l 25
 5 2 l 25
1 0 m 25
 1 2 l 25
 3 2 l 25
 3 0 l 25
 1 0 l 25
EndSplineSet
EndChar

StartChar: afii10106
Encoding: 1113 1113 285
Width: 14
VWidth: 0
Flags: HW
LayerCount: 2
Fore
SplineSet
9 2 m 25
 11 2 l 25
 11 4 l 25
 9 4 l 25
 9 2 l 25
5 2 m 25
 3 2 l 25
 3 10 l 25
 9 10 l 25
 9 6 l 25
 11 6 l 25
 11 4 l 25
 13 4 l 25
 13 2 l 25
 11 2 l 25
 11 0 l 25
 7 0 l 25
 7 8 l 25
 5 8 l 25
 5 2 l 25
1 0 m 25
 1 2 l 25
 3 2 l 25
 3 0 l 25
 1 0 l 25
EndSplineSet
EndChar

StartChar: afii10060
Encoding: 1035 1035 286
Width: 12
VWidth: 0
Flags: HW
LayerCount: 2
Fore
SplineSet
9 0 m 25
 9 6 l 25
 11 6 l 25
 11 0 l 25
 9 0 l 25
3 0 m 25
 3 12 l 25
 1 12 l 25
 1 14 l 25
 9 14 l 25
 9 12 l 25
 5 12 l 25
 5 8 l 25
 9 8 l 25
 9 6 l 25
 5 6 l 25
 5 0 l 25
 3 0 l 25
EndSplineSet
EndChar

StartChar: afii10108
Encoding: 1115 1115 287
Width: 12
VWidth: 0
Flags: HW
LayerCount: 2
Fore
SplineSet
9 0 m 25
 9 6 l 25
 11 6 l 25
 11 0 l 25
 9 0 l 25
5 8 m 25
 9 8 l 25
 9 6 l 25
 5 6 l 25
 5 8 l 25
1 0 m 25
 1 14 l 25
 3 14 l 17
 3 12 l 1
 9 12 l 1
 9 10 l 5
 3 10 l 1
 3 6 l 9
 5 6 l 25
 5 4 l 25
 3 4 l 25
 3 0 l 25
 1 0 l 25
EndSplineSet
EndChar

StartChar: afii10051
Encoding: 1026 1026 288
Width: 12
VWidth: 0
Flags: HW
LayerCount: 2
Fore
SplineSet
5 0 m 29
 9 0 l 25
 9 -2 l 25
 5 -2 l 25
 5 0 l 29
9 0 m 25
 9 8 l 25
 11 8 l 25
 11 0 l 25
 9 0 l 25
3 2 m 25
 3 12 l 25
 1 12 l 25
 1 14 l 25
 9 14 l 25
 9 12 l 25
 5 12 l 25
 5 10 l 25
 9 10 l 25
 9 8 l 25
 5 8 l 25
 5 2 l 25
 3 2 l 25
EndSplineSet
EndChar

StartChar: afii10099
Encoding: 1106 1106 289
Width: 12
VWidth: 0
Flags: HW
LayerCount: 2
Fore
SplineSet
7 0 m 29
 9 0 l 25
 9 -2 l 25
 7 -2 l 25
 7 0 l 29
3 -4 m 25
 3 -2 l 25
 7 -2 l 25
 7 -4 l 25
 3 -4 l 25
9 0 m 25
 9 6 l 25
 11 6 l 25
 11 0 l 25
 9 0 l 25
5 8 m 25
 9 8 l 25
 9 6 l 25
 5 6 l 25
 5 8 l 25
1 0 m 25
 1 14 l 25
 3 14 l 17
 3 12 l 1
 9 12 l 1
 9 10 l 1
 3 10 l 1
 3 6 l 9
 5 6 l 25
 5 4 l 25
 3 4 l 25
 3 0 l 25
 1 0 l 25
EndSplineSet
EndChar

StartChar: Emacron
Encoding: 274 274 290
Width: 12
VWidth: 0
Flags: HW
LayerCount: 2
Fore
SplineSet
1 16 m 29
 1 18 l 25
 11 18 l 25
 11 16 l 25
 1 16 l 29
EndSplineSet
Refer: 6 69 N 1 0 0 1 0 0 2
EndChar

StartChar: Ebreve
Encoding: 276 276 291
Width: 12
VWidth: 0
Flags: HW
LayerCount: 2
Fore
SplineSet
9 18 m 29
 11 18 l 25
 11 16 l 25
 9 16 l 25
 9 18 l 29
1 16 m 25
 1 18 l 25
 3 18 l 25
 3 16 l 25
 1 16 l 25
3 14 m 25
 3 16 l 25
 9 16 l 25
 9 14 l 25
 3 14 l 25
1 0 m 25
 1 12 l 25
 11 12 l 25
 11 10 l 25
 3 10 l 25
 3 8 l 25
 9 8 l 25
 9 6 l 25
 3 6 l 25
 3 2 l 25
 11 2 l 25
 11 0 l 25
 1 0 l 25
EndSplineSet
EndChar

StartChar: Edotaccent
Encoding: 278 278 292
Width: 12
VWidth: 0
Flags: HW
LayerCount: 2
Fore
SplineSet
5 16 m 29
 5 18 l 25
 7 18 l 25
 7 16 l 25
 5 16 l 29
EndSplineSet
Refer: 6 69 N 1 0 0 1 0 0 2
EndChar

StartChar: Eogonek
Encoding: 280 280 293
Width: 12
VWidth: 0
Flags: HW
LayerCount: 2
Fore
SplineSet
11 -2 m 25
 11 -4 l 25
 7 -4 l 29
 7 -2 l 29
 11 -2 l 25
7 0 m 29
 7 -2 l 29
 5 -2 l 29
 5 0 l 29
 7 0 l 29
EndSplineSet
Refer: 6 69 N 1 0 0 1 0 0 2
EndChar

StartChar: Ecaron
Encoding: 282 282 294
Width: 12
VWidth: 0
Flags: HW
LayerCount: 2
Fore
SplineSet
7 18 m 29
 9 18 l 25
 9 16 l 25
 7 16 l 25
 7 18 l 29
3 16 m 25
 3 18 l 25
 5 18 l 25
 5 16 l 25
 3 16 l 25
5 14 m 25
 5 16 l 25
 7 16 l 25
 7 14 l 25
 5 14 l 25
1 0 m 25
 1 12 l 25
 11 12 l 25
 11 10 l 25
 3 10 l 25
 3 8 l 25
 9 8 l 25
 9 6 l 25
 3 6 l 25
 3 2 l 25
 11 2 l 25
 11 0 l 25
 1 0 l 25
EndSplineSet
EndChar

StartChar: emacron
Encoding: 275 275 295
Width: 12
VWidth: 0
Flags: HW
LayerCount: 2
Fore
SplineSet
1 14 m 29
 11 14 l 25
 11 12 l 25
 1 12 l 25
 1 14 l 29
EndSplineSet
Refer: 8 101 N 1 0 0 1 0 0 2
EndChar

StartChar: ebreve
Encoding: 277 277 296
Width: 12
VWidth: 0
Flags: HW
LayerCount: 2
Fore
SplineSet
9 16 m 29
 11 16 l 25
 11 14 l 25
 9 14 l 25
 9 16 l 29
1 14 m 25
 1 16 l 25
 3 16 l 25
 3 14 l 25
 1 14 l 25
3 12 m 25
 3 14 l 25
 9 14 l 25
 9 12 l 25
 3 12 l 25
EndSplineSet
Refer: 8 101 N 1 0 0 1 0 0 2
EndChar

StartChar: edotaccent
Encoding: 279 279 297
Width: 12
VWidth: 0
Flags: HW
LayerCount: 2
Fore
SplineSet
5 14 m 29
 7 14 l 25
 7 12 l 25
 5 12 l 25
 5 14 l 29
EndSplineSet
Refer: 8 101 N 1 0 0 1 0 0 2
EndChar

StartChar: eogonek
Encoding: 281 281 298
Width: 12
VWidth: 0
Flags: HW
LayerCount: 2
Fore
SplineSet
11 -2 m 29
 11 -4 l 25
 7 -4 l 25
 7 -2 l 25
 11 -2 l 29
5 -2 m 25
 5 0 l 25
 7 0 l 25
 7 -2 l 25
 5 -2 l 25
EndSplineSet
Refer: 8 101 N 1 0 0 1 0 0 2
EndChar

StartChar: ecaron
Encoding: 283 283 299
Width: 12
VWidth: 0
Flags: HW
LayerCount: 2
Fore
SplineSet
7 16 m 29
 9 16 l 25
 9 14 l 25
 7 14 l 25
 7 16 l 29
3 14 m 25
 3 16 l 25
 5 16 l 25
 5 14 l 25
 3 14 l 25
5 12 m 25
 5 14 l 25
 7 14 l 25
 7 12 l 25
 5 12 l 25
EndSplineSet
Refer: 8 101 N 1 0 0 1 0 0 2
EndChar

StartChar: cacute
Encoding: 263 263 300
Width: 12
VWidth: 0
Flags: HW
LayerCount: 2
Fore
SplineSet
9 14 m 29
 7 14 l 25
 7 16 l 25
 9 16 l 25
 9 14 l 29
5 12 m 25
 5 14 l 25
 7 14 l 25
 7 12 l 25
 5 12 l 25
EndSplineSet
Refer: 5 99 N 1 0 0 1 0 0 2
EndChar

StartChar: ccircumflex
Encoding: 265 265 301
Width: 12
VWidth: 0
Flags: HW
LayerCount: 2
Fore
SplineSet
9 14 m 29
 9 12 l 25
 7 12 l 25
 7 14 l 25
 9 14 l 29
5 16 m 25
 7 16 l 25
 7 14 l 25
 5 14 l 25
 5 16 l 25
5 14 m 25
 5 12 l 25
 3 12 l 25
 3 14 l 25
 5 14 l 25
EndSplineSet
Refer: 5 99 N 1 0 0 1 0 0 2
EndChar

StartChar: cdotaccent
Encoding: 267 267 302
Width: 12
VWidth: 0
Flags: HW
LayerCount: 2
Fore
SplineSet
5 14 m 29
 7 14 l 25
 7 12 l 25
 5 12 l 25
 5 14 l 29
EndSplineSet
Refer: 5 99 N 1 0 0 1 0 0 2
EndChar

StartChar: ccaron
Encoding: 269 269 303
Width: 12
VWidth: 0
Flags: HW
LayerCount: 2
Fore
SplineSet
7 16 m 29
 9 16 l 25
 9 14 l 25
 7 14 l 25
 7 16 l 29
3 14 m 25
 3 16 l 25
 5 16 l 25
 5 14 l 25
 3 14 l 25
5 14 m 25
 7 14 l 25
 7 12 l 25
 5 12 l 25
 5 14 l 25
EndSplineSet
Refer: 5 99 N 1 0 0 1 0 0 2
EndChar

StartChar: Cdotaccent
Encoding: 266 266 304
Width: 12
VWidth: 0
Flags: HW
LayerCount: 2
Fore
SplineSet
5 18 m 25
 7 18 l 25
 7 16 l 29
 5 16 l 25
 5 18 l 25
EndSplineSet
Refer: 4 67 N 1 0 0 1 0 0 2
EndChar

StartChar: Cacute
Encoding: 262 262 305
Width: 12
VWidth: 0
Flags: HW
LayerCount: 2
Fore
SplineSet
7 18 m 29
 9 18 l 25
 9 16 l 25
 7 16 l 25
 7 18 l 29
5 14 m 25
 5 16 l 25
 7 16 l 25
 7 14 l 25
 5 14 l 25
9 8 m 25
 9 10 l 25
 11 10 l 25
 11 8 l 25
 9 8 l 25
9 12 m 25
 9 10 l 25
 3 10 l 25
 3 12 l 25
 9 12 l 25
11 2 m 25
 9 2 l 25
 9 4 l 25
 11 4 l 25
 11 2 l 25
3 0 m 25
 3 2 l 25
 9 2 l 25
 9 0 l 25
 3 0 l 25
1 2 m 25
 1 10 l 25
 3 10 l 25
 3 2 l 25
 1 2 l 25
EndSplineSet
EndChar

StartChar: Ccircumflex
Encoding: 264 264 306
Width: 12
VWidth: 0
Flags: HW
LayerCount: 2
Fore
SplineSet
9 16 m 29
 9 14 l 25
 7 14 l 25
 7 16 l 25
 9 16 l 29
5 18 m 25
 7 18 l 25
 7 16 l 25
 5 16 l 25
 5 18 l 25
3 14 m 25
 3 16 l 25
 5 16 l 25
 5 14 l 25
 3 14 l 25
9 8 m 25
 9 10 l 25
 11 10 l 25
 11 8 l 25
 9 8 l 25
9 12 m 25
 9 10 l 25
 3 10 l 25
 3 12 l 25
 9 12 l 25
11 2 m 25
 9 2 l 25
 9 4 l 25
 11 4 l 25
 11 2 l 25
3 0 m 25
 3 2 l 25
 9 2 l 25
 9 0 l 25
 3 0 l 25
1 2 m 25
 1 10 l 25
 3 10 l 25
 3 2 l 25
 1 2 l 25
EndSplineSet
EndChar

StartChar: Ccaron
Encoding: 268 268 307
Width: 12
VWidth: 0
Flags: HW
LayerCount: 2
Fore
SplineSet
7 18 m 29
 9 18 l 25
 9 16 l 25
 7 16 l 25
 7 18 l 29
3 16 m 25
 3 18 l 25
 5 18 l 25
 5 16 l 25
 3 16 l 25
5 14 m 25
 5 16 l 25
 7 16 l 25
 7 14 l 25
 5 14 l 25
9 8 m 25
 9 10 l 25
 11 10 l 25
 11 8 l 25
 9 8 l 25
9 12 m 25
 9 10 l 25
 3 10 l 25
 3 12 l 25
 9 12 l 25
11 2 m 25
 9 2 l 25
 9 4 l 25
 11 4 l 25
 11 2 l 25
3 0 m 25
 3 2 l 25
 9 2 l 25
 9 0 l 25
 3 0 l 25
1 2 m 25
 1 10 l 25
 3 10 l 25
 3 2 l 25
 1 2 l 25
EndSplineSet
EndChar

StartChar: dcroat
Encoding: 273 273 309
Width: 12
VWidth: 0
Flags: HW
LayerCount: 2
Fore
SplineSet
9 6 m 25
 3 6 l 25
 3 2 l 25
 7 2 l 25
 7 4 l 25
 9 4 l 25
 9 6 l 25
11 0 m 25
 9 0 l 25
 9 2 l 25
 7 2 l 25
 7 0 l 25
 3 0 l 25
 3 2 l 25
 1 2 l 25
 1 6 l 25
 3 6 l 25
 3 8 l 25
 9 8 l 17
 9 10 l 1
 3 10 l 1
 3 12 l 5
 9 12 l 1
 9 14 l 9
 11 14 l 25
 11 0 l 25
EndSplineSet
EndChar

StartChar: Dcaron
Encoding: 270 270 310
Width: 12
VWidth: 0
Flags: HW
LayerCount: 2
Fore
SplineSet
7 18 m 29
 9 18 l 25
 9 16 l 25
 7 16 l 25
 7 18 l 29
3 16 m 25
 3 18 l 25
 5 18 l 25
 5 16 l 25
 3 16 l 25
7 14 m 25
 5 14 l 25
 5 16 l 25
 7 16 l 25
 7 14 l 25
3 2 m 25
 7 2 l 25
 7 4 l 25
 9 4 l 25
 9 8 l 25
 7 8 l 25
 7 10 l 25
 3 10 l 25
 3 2 l 25
1 0 m 25
 1 12 l 25
 7 12 l 25
 7 10 l 25
 9 10 l 25
 9 8 l 25
 11 8 l 25
 11 4 l 25
 9 4 l 25
 9 2 l 25
 7 2 l 25
 7 0 l 25
 1 0 l 25
EndSplineSet
EndChar

StartChar: dcaron
Encoding: 271 271 311
Width: 12
VWidth: 0
Flags: HW
LayerCount: 2
Fore
SplineSet
7 18 m 29
 9 18 l 25
 9 16 l 25
 7 16 l 25
 7 18 l 29
3 16 m 25
 3 18 l 25
 5 18 l 25
 5 16 l 25
 3 16 l 25
5 14 m 25
 5 16 l 25
 7 16 l 25
 7 14 l 25
 5 14 l 25
EndSplineSet
Refer: 50 100 N 1 0 0 1 0 0 2
EndChar

StartChar: Imacron
Encoding: 298 298 312
Width: 8
VWidth: 0
Flags: HW
LayerCount: 2
Fore
SplineSet
1 18 m 29
 7 18 l 25
 7 16 l 25
 1 16 l 25
 1 18 l 29
EndSplineSet
Refer: 0 73 N 1 0 0 1 0 0 2
EndChar

StartChar: Iogonek
Encoding: 302 302 313
Width: 8
VWidth: 0
Flags: HW
LayerCount: 2
Fore
SplineSet
7 -2 m 29
 7 -4 l 25
 3 -4 l 25
 3 -2 l 25
 7 -2 l 29
1 -2 m 25
 1 0 l 25
 3 0 l 25
 3 -2 l 25
 1 -2 l 25
EndSplineSet
Refer: 0 73 N 1 0 0 1 0 0 2
EndChar

StartChar: Itilde
Encoding: 296 296 314
Width: 8
VWidth: 0
Flags: HW
LayerCount: 2
Fore
SplineSet
7 18 m 29
 9 18 l 29
 9 16 l 29
 7 16 l 29
 7 18 l 29
1 18 m 29
 5 18 l 29
 5 16 l 29
 7 16 l 29
 7 14 l 29
 3 14 l 29
 3 16 l 29
 1 16 l 29
 1 18 l 29
-1 16 m 29
 1 16 l 29
 1 14 l 29
 -1 14 l 29
 -1 16 l 29
1 0 m 25
 1 2 l 25
 3 2 l 25
 3 10 l 25
 1 10 l 25
 1 12 l 25
 7 12 l 25
 7 10 l 25
 5 10 l 25
 5 2 l 25
 7 2 l 25
 7 0 l 25
 1 0 l 25
EndSplineSet
EndChar

StartChar: Ibreve
Encoding: 300 300 315
Width: 8
VWidth: 0
Flags: HW
LayerCount: 2
Fore
SplineSet
7 18 m 29
 9 18 l 29
 9 16 l 29
 7 16 l 29
 7 18 l 29
1 18 m 29
 1 16 l 29
 -1 16 l 29
 -1 18 l 29
 1 18 l 29
1 14 m 29
 1 16 l 29
 7 16 l 29
 7 14 l 29
 1 14 l 29
1 0 m 25
 1 2 l 25
 3 2 l 25
 3 10 l 25
 1 10 l 25
 1 12 l 25
 7 12 l 25
 7 10 l 25
 5 10 l 25
 5 2 l 25
 7 2 l 25
 7 0 l 25
 1 0 l 25
EndSplineSet
EndChar

StartChar: itilde
Encoding: 297 297 316
Width: 8
VWidth: 0
Flags: HW
LayerCount: 2
Fore
SplineSet
7 16 m 29
 9 16 l 29
 9 14 l 29
 7 14 l 29
 7 16 l 29
1 16 m 29
 5 16 l 29
 5 14 l 29
 7 14 l 29
 7 12 l 29
 3 12 l 29
 3 14 l 29
 1 14 l 29
 1 16 l 29
-1 14 m 29
 1 14 l 29
 1 12 l 29
 -1 12 l 29
 -1 14 l 29
EndSplineSet
Refer: 140 305 N 1 0 0 1 0 0 2
EndChar

StartChar: ibreve
Encoding: 301 301 317
Width: 8
VWidth: 0
Flags: HW
LayerCount: 2
Fore
SplineSet
7 16 m 29
 9 16 l 29
 9 14 l 29
 7 14 l 29
 7 16 l 29
1 16 m 29
 1 14 l 29
 -1 14 l 29
 -1 16 l 29
 1 16 l 29
1 12 m 29
 1 14 l 29
 7 14 l 29
 7 12 l 29
 1 12 l 29
EndSplineSet
Refer: 140 305 N 1 0 0 1 0 0 2
EndChar

StartChar: imacron
Encoding: 299 299 318
Width: 8
VWidth: 0
Flags: HW
LayerCount: 2
Fore
SplineSet
1 12 m 29
 1 14 l 25
 7 14 l 25
 7 12 l 25
 1 12 l 29
EndSplineSet
Refer: 140 305 N 1 0 0 1 0 0 2
EndChar

StartChar: iogonek
Encoding: 303 303 319
Width: 8
VWidth: 0
Flags: HW
LayerCount: 2
Fore
SplineSet
7 -2 m 29
 7 -4 l 25
 3 -4 l 25
 3 -2 l 25
 7 -2 l 29
3 -2 m 25
 1 -2 l 25
 1 0 l 25
 3 0 l 25
 3 -2 l 25
EndSplineSet
Refer: 1 105 N 1 0 0 1 0 0 2
EndChar

StartChar: Amacron
Encoding: 256 256 320
Width: 12
VWidth: 0
Flags: HW
LayerCount: 2
Fore
SplineSet
1 18 m 29
 11 18 l 25
 11 16 l 25
 1 16 l 25
 1 18 l 29
EndSplineSet
Refer: 11 65 N 1 0 0 1 0 0 2
EndChar

StartChar: Aogonek
Encoding: 260 260 321
Width: 12
VWidth: 0
Flags: HW
LayerCount: 2
Fore
SplineSet
7 -4 m 29
 7 -2 l 29
 11 -2 l 29
 11 -4 l 29
 7 -4 l 29
5 0 m 29
 7 0 l 29
 7 -2 l 29
 5 -2 l 29
 5 0 l 29
7 0 m 29
 7 2 l 29
 11 2 l 29
 11 0 l 29
 7 0 l 29
EndSplineSet
Refer: 11 65 N 1 0 0 1 0 0 2
EndChar

StartChar: Abreve
Encoding: 258 258 322
Width: 12
VWidth: 0
Flags: HW
LayerCount: 2
Fore
SplineSet
9 18 m 29
 11 18 l 29
 11 16 l 29
 9 16 l 29
 9 18 l 29
1 16 m 29
 1 18 l 29
 3 18 l 29
 3 16 l 29
 1 16 l 29
3 14 m 29
 3 16 l 29
 9 16 l 29
 9 14 l 29
 3 14 l 29
3 6 m 25
 9 6 l 25
 9 8 l 25
 7 8 l 25
 7 10 l 25
 5 10 l 25
 5 8 l 25
 3 8 l 25
 3 6 l 25
1 0 m 25
 1 8 l 25
 3 8 l 25
 3 10 l 25
 5 10 l 25
 5 12 l 25
 7 12 l 25
 7 10 l 25
 9 10 l 25
 9 8 l 25
 11 8 l 25
 11 0 l 25
 9 0 l 25
 9 4 l 25
 3 4 l 25
 3 0 l 25
 1 0 l 25
EndSplineSet
EndChar

StartChar: amacron
Encoding: 257 257 323
Width: 12
VWidth: 0
Flags: HW
LayerCount: 2
Fore
SplineSet
1 14 m 29
 11 14 l 25
 11 12 l 25
 1 12 l 25
 1 14 l 29
EndSplineSet
Refer: 9 97 N 1 0 0 1 0 0 2
EndChar

StartChar: abreve
Encoding: 259 259 324
Width: 12
VWidth: 0
Flags: HW
LayerCount: 2
Fore
SplineSet
9 16 m 29
 11 16 l 29
 11 14 l 29
 9 14 l 29
 9 16 l 29
1 14 m 29
 1 16 l 29
 3 16 l 29
 3 14 l 29
 1 14 l 29
3 12 m 29
 3 14 l 29
 9 14 l 29
 9 12 l 29
 3 12 l 29
EndSplineSet
Refer: 9 97 N 1 0 0 1 0 0 2
EndChar

StartChar: aogonek
Encoding: 261 261 325
Width: 12
VWidth: 0
Flags: HW
LayerCount: 2
Fore
SplineSet
11 -2 m 29
 11 -4 l 25
 7 -4 l 25
 7 -2 l 25
 11 -2 l 29
5 -2 m 25
 5 0 l 25
 7 0 l 25
 7 -2 l 25
 5 -2 l 25
EndSplineSet
Refer: 9 97 N 1 0 0 1 0 0 2
EndChar

StartChar: Gdotaccent
Encoding: 288 288 326
Width: 12
VWidth: 0
Flags: HW
LayerCount: 2
Fore
SplineSet
5 16 m 29
 5 18 l 25
 7 18 l 25
 7 16 l 25
 5 16 l 29
EndSplineSet
Refer: 46 71 N 1 0 0 1 0 0 2
EndChar

StartChar: Gcommaaccent
Encoding: 290 290 327
Width: 12
VWidth: 0
Flags: HW
LayerCount: 2
Fore
SplineSet
1 -2 m 29
 5 -2 l 25
 5 -4 l 25
 1 -4 l 25
 1 -2 l 29
5 0 m 25
 7 0 l 25
 7 -2 l 25
 5 -2 l 25
 5 0 l 25
EndSplineSet
Refer: 46 71 N 1 0 0 1 0 0 2
EndChar

StartChar: Gcircumflex
Encoding: 284 284 328
Width: 12
VWidth: 0
Flags: HW
LayerCount: 2
Fore
SplineSet
9 16 m 29
 9 14 l 25
 7 14 l 25
 7 16 l 25
 9 16 l 29
5 18 m 25
 7 18 l 25
 7 16 l 25
 5 16 l 25
 5 18 l 25
3 14 m 25
 3 16 l 25
 5 16 l 25
 5 14 l 25
 3 14 l 25
3 12 m 25
 11 12 l 25
 11 10 l 25
 3 10 l 25
 3 12 l 25
3 0 m 25
 3 2 l 25
 9 2 l 25
 9 6 l 25
 5 6 l 25
 5 8 l 25
 11 8 l 25
 11 0 l 25
 3 0 l 25
1 2 m 25
 1 10 l 25
 3 10 l 25
 3 2 l 25
 1 2 l 25
EndSplineSet
EndChar

StartChar: Gbreve
Encoding: 286 286 329
Width: 12
VWidth: 0
Flags: HW
LayerCount: 2
Fore
SplineSet
9 18 m 29
 11 18 l 25
 11 16 l 25
 9 16 l 25
 9 18 l 29
1 16 m 25
 1 18 l 25
 3 18 l 25
 3 16 l 25
 1 16 l 25
3 14 m 25
 3 16 l 25
 9 16 l 25
 9 14 l 25
 3 14 l 25
3 12 m 25
 11 12 l 25
 11 10 l 25
 3 10 l 25
 3 12 l 25
3 0 m 25
 3 2 l 25
 9 2 l 25
 9 6 l 25
 5 6 l 25
 5 8 l 25
 11 8 l 25
 11 0 l 25
 3 0 l 25
1 2 m 25
 1 10 l 25
 3 10 l 25
 3 2 l 25
 1 2 l 25
EndSplineSet
EndChar

StartChar: gcircumflex
Encoding: 285 285 330
Width: 12
VWidth: 0
Flags: HW
LayerCount: 2
Fore
SplineSet
5 16 m 29
 7 16 l 25
 7 14 l 25
 5 14 l 25
 5 16 l 29
3 12 m 25
 3 14 l 25
 5 14 l 25
 5 12 l 25
 3 12 l 25
7 12 m 25
 7 14 l 25
 9 14 l 25
 9 12 l 25
 7 12 l 25
EndSplineSet
Refer: 52 103 N 1 0 0 1 0 0 2
EndChar

StartChar: gbreve
Encoding: 287 287 331
Width: 12
VWidth: 0
Flags: HW
LayerCount: 2
Fore
SplineSet
9 16 m 29
 11 16 l 25
 11 14 l 25
 9 14 l 25
 9 16 l 29
1 14 m 25
 1 16 l 25
 3 16 l 25
 3 14 l 25
 1 14 l 25
3 12 m 25
 3 14 l 25
 9 14 l 25
 9 12 l 25
 3 12 l 25
EndSplineSet
Refer: 52 103 N 1 0 0 1 0 0 2
EndChar

StartChar: gdotaccent
Encoding: 289 289 332
Width: 12
VWidth: 0
Flags: HW
LayerCount: 2
Fore
SplineSet
5 12 m 29
 5 14 l 25
 7 14 l 25
 7 12 l 25
 5 12 l 29
EndSplineSet
Refer: 52 103 N 1 0 0 1 0 0 2
EndChar

StartChar: gcommaaccent
Encoding: 291 291 333
Width: 12
VWidth: 0
Flags: HW
LayerCount: 2
Fore
SplineSet
7 14 m 29
 11 14 l 25
 11 12 l 25
 7 12 l 25
 7 14 l 29
5 12 m 25
 7 12 l 25
 7 10 l 25
 5 10 l 25
 5 12 l 25
EndSplineSet
Refer: 52 103 N 1 0 0 1 0 0 2
EndChar

StartChar: Hcircumflex
Encoding: 292 292 334
Width: 12
VWidth: 0
Flags: HW
LayerCount: 2
Fore
SplineSet
5 18 m 29
 7 18 l 25
 7 16 l 25
 5 16 l 25
 5 18 l 29
7 16 m 25
 9 16 l 25
 9 14 l 25
 7 14 l 25
 7 16 l 25
3 14 m 25
 3 16 l 25
 5 16 l 25
 5 14 l 25
 3 14 l 25
1 0 m 25
 1 12 l 25
 3 12 l 25
 3 8 l 25
 9 8 l 25
 9 12 l 25
 11 12 l 25
 11 0 l 25
 9 0 l 25
 9 6 l 25
 3 6 l 25
 3 0 l 25
 1 0 l 25
EndSplineSet
EndChar

StartChar: Hbar
Encoding: 294 294 335
Width: 12
VWidth: 0
Flags: HW
LayerCount: 2
Fore
SplineSet
3 10 m 29
 3 8 l 25
 9 8 l 25
 9 10 l 25
 3 10 l 29
1 0 m 25
 1 14 l 25
 3 14 l 25
 3 12 l 25
 9 12 l 25
 9 14 l 25
 11 14 l 25
 11 0 l 25
 9 0 l 25
 9 6 l 25
 3 6 l 25
 3 0 l 25
 1 0 l 25
EndSplineSet
EndChar

StartChar: hcircumflex
Encoding: 293 293 336
Width: 12
VWidth: 0
Flags: HW
LayerCount: 2
Fore
SplineSet
9 0 m 25
 9 6 l 29
 11 6 l 29
 11 0 l 25
 9 0 l 25
5 8 m 29
 9 8 l 29
 9 6 l 29
 5 6 l 29
 5 8 l 29
1 0 m 25
 1 12 l 25
 3 12 l 25
 3 6 l 29
 5 6 l 29
 5 4 l 29
 3 4 l 29
 3 0 l 25
 1 0 l 25
7 14 m 25
 7 16 l 25
 9 16 l 25
 9 14 l 25
 7 14 l 25
5 18 m 25
 7 18 l 25
 7 16 l 25
 5 16 l 25
 5 18 l 25
3 16 m 25
 5 16 l 25
 5 14 l 25
 3 14 l 25
 3 16 l 25
EndSplineSet
EndChar

StartChar: hbar
Encoding: 295 295 337
Width: 12
VWidth: 0
Flags: HW
LayerCount: 2
Fore
SplineSet
9 0 m 25
 9 6 l 25
 11 6 l 25
 11 0 l 25
 9 0 l 25
5 8 m 25
 9 8 l 25
 9 6 l 25
 5 6 l 25
 5 8 l 25
1 0 m 25
 1 14 l 25
 3 14 l 17
 3 12 l 1
 9 12 l 1
 9 10 l 5
 3 10 l 1
 3 6 l 9
 5 6 l 25
 5 4 l 25
 3 4 l 25
 3 0 l 25
 1 0 l 25
EndSplineSet
EndChar

StartChar: IJ
Encoding: 306 306 338
Width: 12
VWidth: 0
Flags: HW
LayerCount: 2
Fore
SplineSet
11 2 m 25
 9 2 l 25
 9 14 l 25
 11 14 l 25
 11 2 l 25
1 0 m 25
 1 2 l 25
 3 2 l 25
 3 12 l 25
 1 12 l 25
 1 14 l 25
 7 14 l 25
 7 12 l 25
 5 12 l 25
 5 2 l 25
 9 2 l 25
 9 0 l 25
 1 0 l 25
EndSplineSet
EndChar

StartChar: ij
Encoding: 307 307 339
Width: 12
VWidth: 0
Flags: HW
LayerCount: 2
Fore
SplineSet
5 14 m 29
 5 12 l 25
 3 12 l 25
 3 14 l 25
 5 14 l 29
9 12 m 25
 7 12 l 25
 7 14 l 25
 9 14 l 25
 9 12 l 25
5 -2 m 25
 9 -2 l 25
 9 -4 l 25
 5 -4 l 25
 5 -2 l 25
1 0 m 25
 1 2 l 25
 3 2 l 25
 3 8 l 25
 1 8 l 25
 1 10 l 25
 11 10 l 17
 11 -2 l 1
 9 -2 l 1
 9 8 l 1
 5 8 l 1
 5 2 l 9
 7 2 l 25
 7 0 l 25
 1 0 l 25
EndSplineSet
EndChar

StartChar: jcircumflex
Encoding: 309 309 340
Width: 8
VWidth: 0
Flags: HW
LayerCount: 2
Fore
SplineSet
5 12 m 29
 5 14 l 25
 7 14 l 25
 7 12 l 25
 5 12 l 29
1 12 m 25
 1 14 l 25
 3 14 l 25
 3 12 l 25
 1 12 l 25
3 14 m 25
 3 16 l 25
 5 16 l 25
 5 14 l 25
 3 14 l 25
1 0 m 25
 1 -2 l 25
 -1 -2 l 25
 -1 0 l 25
 1 0 l 25
1 -4 m 25
 1 -2 l 25
 5 -2 l 25
 5 -4 l 25
 1 -4 l 25
1 10 m 25
 7 10 l 25
 7 -2 l 25
 5 -2 l 25
 5 8 l 25
 1 8 l 25
 1 10 l 25
EndSplineSet
EndChar

StartChar: Jcircumflex
Encoding: 308 308 341
Width: 12
VWidth: 0
Flags: HW
LayerCount: 2
Fore
SplineSet
5 18 m 29
 7 18 l 25
 7 16 l 25
 5 16 l 25
 5 18 l 29
7 14 m 25
 7 16 l 25
 9 16 l 25
 9 14 l 25
 7 14 l 25
3 14 m 25
 3 16 l 25
 5 16 l 25
 5 14 l 25
 3 14 l 25
9 12 m 25
 11 12 l 25
 11 2 l 25
 9 2 l 25
 9 12 l 25
3 0 m 25
 3 2 l 25
 9 2 l 25
 9 0 l 25
 3 0 l 25
1 2 m 25
 1 6 l 25
 3 6 l 25
 3 2 l 25
 1 2 l 25
EndSplineSet
EndChar

StartChar: Omacron
Encoding: 332 332 342
Width: 12
VWidth: 0
Flags: HW
LayerCount: 2
Fore
SplineSet
1 18 m 25
 11 18 l 25
 11 16 l 25
 1 16 l 29
 1 18 l 25
EndSplineSet
Refer: 2 79 N 1 0 0 1 0 0 2
EndChar

StartChar: Obreve
Encoding: 334 334 343
Width: 12
VWidth: 0
Flags: HW
LayerCount: 2
Fore
SplineSet
9 18 m 29
 11 18 l 25
 11 16 l 25
 9 16 l 25
 9 18 l 29
1 16 m 25
 1 18 l 25
 3 18 l 25
 3 16 l 25
 1 16 l 25
3 14 m 25
 3 16 l 25
 9 16 l 25
 9 14 l 25
 3 14 l 25
3 2 m 25
 9 2 l 25
 9 10 l 25
 3 10 l 25
 3 2 l 25
3 0 m 25
 3 2 l 25
 1 2 l 25
 1 10 l 25
 3 10 l 25
 3 12 l 25
 9 12 l 25
 9 10 l 25
 11 10 l 25
 11 2 l 25
 9 2 l 25
 9 0 l 25
 3 0 l 25
EndSplineSet
EndChar

StartChar: Ohungarumlaut
Encoding: 336 336 344
Width: 12
VWidth: 0
Flags: HW
LayerCount: 2
Fore
SplineSet
9 18 m 29
 11 18 l 29
 11 16 l 29
 9 16 l 29
 9 18 l 29
7 14 m 29
 7 16 l 29
 9 16 l 29
 9 14 l 29
 7 14 l 29
3 18 m 29
 5 18 l 29
 5 16 l 29
 3 16 l 29
 3 18 l 29
1 14 m 29
 1 16 l 29
 3 16 l 29
 3 14 l 29
 1 14 l 29
3 2 m 25
 9 2 l 25
 9 10 l 25
 3 10 l 25
 3 2 l 25
3 0 m 25
 3 2 l 25
 1 2 l 25
 1 10 l 25
 3 10 l 25
 3 12 l 25
 9 12 l 25
 9 10 l 25
 11 10 l 25
 11 2 l 25
 9 2 l 25
 9 0 l 25
 3 0 l 25
EndSplineSet
EndChar

StartChar: omacron
Encoding: 333 333 345
Width: 12
VWidth: 0
Flags: HW
LayerCount: 2
Fore
SplineSet
1 12 m 29
 1 14 l 25
 11 14 l 25
 11 12 l 25
 1 12 l 29
EndSplineSet
Refer: 3 111 N 1 0 0 1 0 0 2
EndChar

StartChar: obreve
Encoding: 335 335 346
Width: 12
VWidth: 0
Flags: HW
LayerCount: 2
Fore
SplineSet
9 16 m 29
 11 16 l 25
 11 14 l 25
 9 14 l 25
 9 16 l 29
1 14 m 25
 1 16 l 25
 3 16 l 25
 3 14 l 25
 1 14 l 25
3 14 m 25
 9 14 l 25
 9 12 l 25
 3 12 l 25
 3 14 l 25
EndSplineSet
Refer: 3 111 N 1 0 0 1 0 0 2
EndChar

StartChar: ohungarumlaut
Encoding: 337 337 347
Width: 12
VWidth: 0
Flags: HW
LayerCount: 2
Fore
SplineSet
9 16 m 29
 11 16 l 29
 11 14 l 29
 9 14 l 29
 9 16 l 29
7 12 m 29
 7 14 l 29
 9 14 l 29
 9 12 l 29
 7 12 l 29
3 16 m 29
 5 16 l 29
 5 14 l 29
 3 14 l 29
 3 16 l 29
1 12 m 29
 1 14 l 29
 3 14 l 29
 3 12 l 29
 1 12 l 29
EndSplineSet
Refer: 3 111 N 1 0 0 1 0 0 2
EndChar

StartChar: OE
Encoding: 338 338 348
Width: 12
VWidth: 0
Flags: HW
LayerCount: 2
Fore
SplineSet
3 0 m 29
 3 2 l 25
 5 2 l 25
 5 12 l 25
 3 12 l 25
 3 14 l 25
 11 14 l 25
 11 12 l 25
 7 12 l 25
 7 8 l 25
 11 8 l 25
 11 6 l 25
 7 6 l 25
 7 2 l 25
 11 2 l 25
 11 0 l 25
 3 0 l 29
1 2 m 25
 1 12 l 25
 3 12 l 25
 3 2 l 25
 1 2 l 25
EndSplineSet
EndChar

StartChar: oe
Encoding: 339 339 349
Width: 12
VWidth: 0
Flags: HW
LayerCount: 2
Fore
SplineSet
7 6 m 29
 9 6 l 25
 9 8 l 25
 7 8 l 25
 7 6 l 29
3 0 m 25
 3 2 l 25
 5 2 l 25
 5 8 l 25
 3 8 l 25
 3 10 l 25
 9 10 l 25
 9 8 l 25
 11 8 l 25
 11 4 l 25
 7 4 l 25
 7 2 l 25
 11 2 l 25
 11 0 l 25
 3 0 l 25
1 2 m 25
 1 8 l 25
 3 8 l 25
 3 2 l 25
 1 2 l 25
EndSplineSet
EndChar

StartChar: Umacron
Encoding: 362 362 350
Width: 12
VWidth: 0
Flags: HW
LayerCount: 2
Fore
SplineSet
1 16 m 29
 1 18 l 25
 11 18 l 25
 11 16 l 25
 1 16 l 29
EndSplineSet
Refer: 35 85 N 1 0 0 1 0 0 2
EndChar

StartChar: Uogonek
Encoding: 370 370 351
Width: 12
VWidth: 0
Flags: HW
LayerCount: 2
Fore
SplineSet
7 -4 m 29
 7 -2 l 25
 11 -2 l 25
 11 -4 l 25
 7 -4 l 29
5 -2 m 25
 5 0 l 25
 7 0 l 25
 7 -2 l 25
 5 -2 l 25
EndSplineSet
Refer: 35 85 N 1 0 0 1 0 0 2
EndChar

StartChar: Utilde
Encoding: 360 360 352
Width: 12
VWidth: 0
Flags: HW
LayerCount: 2
Fore
SplineSet
9 18 m 29
 11 18 l 29
 11 16 l 29
 9 16 l 29
 9 18 l 29
3 18 m 29
 7 18 l 29
 7 16 l 29
 9 16 l 29
 9 14 l 29
 5 14 l 29
 5 16 l 29
 3 16 l 29
 3 18 l 29
1 16 m 29
 3 16 l 29
 3 14 l 29
 1 14 l 29
 1 16 l 29
11 2 m 25
 9 2 l 25
 9 12 l 25
 11 12 l 25
 11 2 l 25
3 0 m 25
 3 2 l 25
 9 2 l 25
 9 0 l 25
 3 0 l 25
1 2 m 25
 1 12 l 25
 3 12 l 25
 3 2 l 25
 1 2 l 25
EndSplineSet
EndChar

StartChar: Ubreve
Encoding: 364 364 353
Width: 12
VWidth: 0
Flags: HW
LayerCount: 2
Fore
SplineSet
9 18 m 29
 11 18 l 25
 11 16 l 25
 9 16 l 25
 9 18 l 29
1 16 m 25
 1 18 l 25
 3 18 l 25
 3 16 l 25
 1 16 l 25
3 14 m 25
 3 16 l 25
 9 16 l 25
 9 14 l 25
 3 14 l 25
11 2 m 25
 9 2 l 25
 9 12 l 25
 11 12 l 25
 11 2 l 25
3 0 m 25
 3 2 l 25
 9 2 l 25
 9 0 l 25
 3 0 l 25
1 2 m 25
 1 12 l 25
 3 12 l 25
 3 2 l 25
 1 2 l 25
EndSplineSet
EndChar

StartChar: Uring
Encoding: 366 366 354
Width: 12
VWidth: 0
Flags: HW
LayerCount: 2
Fore
SplineSet
5 16 m 29
 5 18 l 29
 7 18 l 29
 7 16 l 29
 5 16 l 29
7 14 m 29
 7 16 l 29
 9 16 l 29
 9 14 l 29
 7 14 l 29
5 12 m 29
 5 14 l 29
 7 14 l 29
 7 12 l 29
 5 12 l 29
3 14 m 29
 3 16 l 29
 5 16 l 29
 5 14 l 29
 3 14 l 29
11 2 m 25
 9 2 l 25
 9 12 l 25
 11 12 l 25
 11 2 l 25
3 0 m 25
 3 2 l 25
 9 2 l 25
 9 0 l 25
 3 0 l 25
1 2 m 25
 1 12 l 25
 3 12 l 25
 3 2 l 25
 1 2 l 25
EndSplineSet
EndChar

StartChar: Uhungarumlaut
Encoding: 368 368 355
Width: 12
VWidth: 0
Flags: HW
LayerCount: 2
Fore
SplineSet
9 18 m 29
 11 18 l 29
 11 16 l 29
 9 16 l 29
 9 18 l 29
7 14 m 29
 7 16 l 29
 9 16 l 29
 9 14 l 29
 7 14 l 29
3 18 m 29
 5 18 l 29
 5 16 l 29
 3 16 l 29
 3 18 l 29
1 14 m 29
 1 16 l 29
 3 16 l 29
 3 14 l 29
 1 14 l 29
11 2 m 25
 9 2 l 25
 9 12 l 25
 11 12 l 25
 11 2 l 25
3 0 m 25
 3 2 l 25
 9 2 l 25
 9 0 l 25
 3 0 l 25
1 2 m 25
 1 12 l 25
 3 12 l 25
 3 2 l 25
 1 2 l 25
EndSplineSet
EndChar

StartChar: utilde
Encoding: 361 361 356
Width: 12
VWidth: 0
Flags: HW
LayerCount: 2
Fore
SplineSet
9 16 m 29
 11 16 l 29
 11 14 l 29
 9 14 l 29
 9 16 l 29
3 16 m 29
 7 16 l 29
 7 14 l 29
 9 14 l 29
 9 12 l 29
 5 12 l 29
 5 14 l 29
 3 14 l 29
 3 16 l 29
1 14 m 29
 3 14 l 29
 3 12 l 29
 1 12 l 29
 1 14 l 29
EndSplineSet
Refer: 47 117 N 1 0 0 1 0 0 2
EndChar

StartChar: umacron
Encoding: 363 363 357
Width: 12
VWidth: 0
Flags: HW
LayerCount: 2
Fore
SplineSet
1 12 m 29
 1 14 l 25
 11 14 l 25
 11 12 l 25
 1 12 l 29
EndSplineSet
Refer: 47 117 N 1 0 0 1 0 0 2
EndChar

StartChar: ubreve
Encoding: 365 365 358
Width: 12
VWidth: 0
Flags: HW
LayerCount: 2
Fore
SplineSet
9 16 m 29
 11 16 l 25
 11 14 l 25
 9 14 l 25
 9 16 l 29
1 14 m 25
 1 16 l 25
 3 16 l 25
 3 14 l 25
 1 14 l 25
3 12 m 25
 3 14 l 25
 9 14 l 25
 9 12 l 25
 3 12 l 25
EndSplineSet
Refer: 47 117 N 1 0 0 1 0 0 2
EndChar

StartChar: uring
Encoding: 367 367 359
Width: 12
VWidth: 0
Flags: HW
LayerCount: 2
Fore
SplineSet
5 14 m 29
 5 16 l 29
 7 16 l 29
 7 14 l 29
 5 14 l 29
7 12 m 29
 7 14 l 29
 9 14 l 29
 9 12 l 29
 7 12 l 29
5 10 m 29
 5 12 l 29
 7 12 l 29
 7 10 l 29
 5 10 l 29
3 12 m 29
 3 14 l 29
 5 14 l 29
 5 12 l 29
 3 12 l 29
EndSplineSet
Refer: 47 117 N 1 0 0 1 0 0 2
EndChar

StartChar: uhungarumlaut
Encoding: 369 369 360
Width: 12
VWidth: 0
Flags: HW
LayerCount: 2
Fore
SplineSet
9 16 m 29
 11 16 l 29
 11 14 l 29
 9 14 l 29
 9 16 l 29
7 12 m 29
 7 14 l 29
 9 14 l 29
 9 12 l 29
 7 12 l 29
3 16 m 29
 5 16 l 29
 5 14 l 29
 3 14 l 29
 3 16 l 29
1 12 m 29
 1 14 l 29
 3 14 l 29
 3 12 l 29
 1 12 l 29
EndSplineSet
Refer: 47 117 N 1 0 0 1 0 0 2
EndChar

StartChar: uogonek
Encoding: 371 371 361
Width: 12
VWidth: 0
Flags: HW
LayerCount: 2
Fore
SplineSet
11 -2 m 29
 11 -4 l 25
 7 -4 l 25
 7 -2 l 25
 11 -2 l 29
5 -2 m 25
 5 0 l 25
 7 0 l 25
 7 -2 l 25
 5 -2 l 25
EndSplineSet
Refer: 47 117 N 1 0 0 1 0 0 2
EndChar

StartChar: tbar
Encoding: 359 359 362
Width: 12
VWidth: 0
Flags: HW
LayerCount: 2
Fore
SplineSet
11 2 m 25
 9 2 l 25
 9 4 l 25
 11 4 l 25
 11 2 l 25
5 0 m 25
 5 2 l 25
 9 2 l 25
 9 0 l 25
 5 0 l 25
1 12 m 25
 3 12 l 25
 3 14 l 25
 5 14 l 25
 5 12 l 25
 9 12 l 25
 9 10 l 25
 5 10 l 17
 5 8 l 1
 9 8 l 1
 9 6 l 5
 5 6 l 1
 5 2 l 9
 3 2 l 17
 3 6 l 1
 1 6 l 1
 1 8 l 1
 3 8 l 1
 3 10 l 9
 1 10 l 25
 1 12 l 25
EndSplineSet
EndChar

StartChar: Tbar
Encoding: 358 358 363
Width: 12
VWidth: 0
Flags: HW
LayerCount: 2
Fore
SplineSet
1 14 m 25
 11 14 l 25
 11 12 l 25
 7 12 l 17
 7 8 l 1
 11 8 l 1
 11 6 l 5
 7 6 l 1
 7 0 l 9
 5 0 l 17
 5 6 l 1
 1 6 l 1
 1 8 l 1
 5 8 l 1
 5 12 l 9
 1 12 l 25
 1 14 l 25
EndSplineSet
EndChar

StartChar: Rcommaaccent
Encoding: 342 342 364
Width: 12
VWidth: 0
Flags: HW
LayerCount: 2
Fore
SplineSet
1 -4 m 29
 1 -2 l 25
 5 -2 l 25
 5 -4 l 25
 1 -4 l 29
7 0 m 25
 7 -2 l 25
 5 -2 l 25
 5 0 l 25
 7 0 l 25
5 2 m 25
 5 0 l 25
 1 0 l 25
 1 2 l 25
 5 2 l 25
EndSplineSet
Refer: 42 82 N 1 0 0 1 0 0 2
EndChar

StartChar: Racute
Encoding: 340 340 365
Width: 12
VWidth: 0
Flags: HW
LayerCount: 2
Fore
SplineSet
7 18 m 29
 9 18 l 25
 9 16 l 25
 7 16 l 25
 7 18 l 29
5 14 m 25
 5 16 l 25
 7 16 l 25
 7 14 l 25
 5 14 l 25
9 0 m 25
 9 2 l 25
 11 2 l 25
 11 0 l 25
 9 0 l 25
3 6 m 25
 9 6 l 25
 9 10 l 25
 3 10 l 25
 3 6 l 25
9 2 m 17
 7 2 l 1
 7 4 l 1
 3 4 l 9
 3 0 l 25
 1 0 l 25
 1 12 l 25
 9 12 l 25
 9 10 l 25
 11 10 l 25
 11 6 l 25
 9 6 l 25
 9 2 l 17
EndSplineSet
EndChar

StartChar: Rcaron
Encoding: 344 344 366
Width: 12
VWidth: 0
Flags: HW
LayerCount: 2
Fore
SplineSet
7 18 m 29
 9 18 l 25
 9 16 l 25
 7 16 l 25
 7 18 l 29
3 16 m 25
 3 18 l 25
 5 18 l 25
 5 16 l 25
 3 16 l 25
5 14 m 25
 5 16 l 25
 7 16 l 25
 7 14 l 25
 5 14 l 25
9 0 m 25
 9 2 l 25
 11 2 l 25
 11 0 l 25
 9 0 l 25
3 6 m 25
 9 6 l 25
 9 10 l 25
 3 10 l 25
 3 6 l 25
9 2 m 17
 7 2 l 1
 7 4 l 1
 3 4 l 9
 3 0 l 25
 1 0 l 25
 1 12 l 25
 9 12 l 25
 9 10 l 25
 11 10 l 25
 11 6 l 25
 9 6 l 25
 9 2 l 17
EndSplineSet
EndChar

StartChar: racute
Encoding: 341 341 367
Width: 12
VWidth: 0
Flags: HW
LayerCount: 2
Fore
SplineSet
7 16 m 29
 9 16 l 25
 9 14 l 25
 7 14 l 25
 7 16 l 29
5 14 m 25
 7 14 l 25
 7 12 l 25
 5 12 l 25
 5 14 l 25
EndSplineSet
Refer: 45 114 N 1 0 0 1 0 0 2
EndChar

StartChar: rcommaaccent
Encoding: 343 343 368
Width: 12
VWidth: 0
Flags: HW
LayerCount: 2
Fore
SplineSet
1 -4 m 29
 1 -2 l 25
 5 -2 l 25
 5 -4 l 25
 1 -4 l 29
7 0 m 25
 7 -2 l 25
 5 -2 l 25
 5 0 l 25
 7 0 l 25
5 2 m 25
 5 0 l 25
 1 0 l 25
 1 2 l 25
 5 2 l 25
EndSplineSet
Refer: 45 114 N 1 0 0 1 0 0 2
EndChar

StartChar: rcaron
Encoding: 345 345 369
Width: 12
VWidth: 0
Flags: HW
LayerCount: 2
Fore
SplineSet
7 16 m 29
 9 16 l 25
 9 14 l 25
 7 14 l 25
 7 16 l 29
3 14 m 25
 3 16 l 25
 5 16 l 25
 5 14 l 25
 3 14 l 25
5 12 m 25
 5 14 l 25
 7 14 l 25
 7 12 l 25
 5 12 l 25
EndSplineSet
Refer: 45 114 N 1 0 0 1 0 0 2
EndChar

StartChar: Scedilla
Encoding: 350 350 370
Width: 12
VWidth: 0
Flags: HW
LayerCount: 2
Fore
SplineSet
7 -2 m 29
 5 -2 l 25
 5 0 l 25
 7 0 l 25
 7 -2 l 29
1 -4 m 25
 1 -2 l 25
 5 -2 l 25
 5 -4 l 25
 1 -4 l 25
EndSplineSet
Refer: 37 83 N 1 0 0 1 0 0 2
EndChar

StartChar: Sacute
Encoding: 346 346 371
Width: 12
VWidth: 0
Flags: HW
LayerCount: 2
Fore
SplineSet
9 16 m 29
 7 16 l 25
 7 18 l 25
 9 18 l 25
 9 16 l 29
5 14 m 25
 5 16 l 25
 7 16 l 25
 7 14 l 25
 5 14 l 25
3 12 m 25
 9 12 l 25
 9 10 l 25
 3 10 l 25
 3 12 l 25
1 8 m 25
 1 10 l 25
 3 10 l 25
 3 8 l 25
 1 8 l 25
3 6 m 25
 3 8 l 25
 9 8 l 25
 9 6 l 25
 3 6 l 25
11 2 m 25
 9 2 l 25
 9 6 l 25
 11 6 l 25
 11 2 l 25
3 0 m 25
 3 2 l 25
 9 2 l 25
 9 0 l 25
 3 0 l 25
1 2 m 25
 1 4 l 25
 3 4 l 25
 3 2 l 25
 1 2 l 25
EndSplineSet
EndChar

StartChar: Scircumflex
Encoding: 348 348 372
Width: 12
VWidth: 0
Flags: HW
LayerCount: 2
Fore
SplineSet
9 16 m 29
 9 14 l 25
 7 14 l 25
 7 16 l 25
 9 16 l 29
5 18 m 25
 7 18 l 25
 7 16 l 25
 5 16 l 25
 5 18 l 25
3 14 m 25
 3 16 l 25
 5 16 l 25
 5 14 l 25
 3 14 l 25
3 12 m 25
 9 12 l 25
 9 10 l 25
 3 10 l 25
 3 12 l 25
1 8 m 25
 1 10 l 25
 3 10 l 25
 3 8 l 25
 1 8 l 25
3 6 m 25
 3 8 l 25
 9 8 l 25
 9 6 l 25
 3 6 l 25
11 2 m 25
 9 2 l 25
 9 6 l 25
 11 6 l 25
 11 2 l 25
3 0 m 25
 3 2 l 25
 9 2 l 25
 9 0 l 25
 3 0 l 25
1 2 m 25
 1 4 l 25
 3 4 l 25
 3 2 l 25
 1 2 l 25
EndSplineSet
EndChar

StartChar: Scaron
Encoding: 352 352 373
Width: 12
VWidth: 0
Flags: HW
LayerCount: 2
Fore
SplineSet
5 18 m 29
 5 16 l 25
 3 16 l 25
 3 18 l 25
 5 18 l 29
7 18 m 25
 9 18 l 25
 9 16 l 25
 7 16 l 25
 7 18 l 25
5 14 m 25
 5 16 l 25
 7 16 l 25
 7 14 l 25
 5 14 l 25
3 12 m 25
 9 12 l 25
 9 10 l 25
 3 10 l 25
 3 12 l 25
1 8 m 25
 1 10 l 25
 3 10 l 25
 3 8 l 25
 1 8 l 25
3 6 m 25
 3 8 l 25
 9 8 l 25
 9 6 l 25
 3 6 l 25
11 2 m 25
 9 2 l 25
 9 6 l 25
 11 6 l 25
 11 2 l 25
3 0 m 25
 3 2 l 25
 9 2 l 25
 9 0 l 25
 3 0 l 25
1 2 m 25
 1 4 l 25
 3 4 l 25
 3 2 l 25
 1 2 l 25
EndSplineSet
EndChar

StartChar: sacute
Encoding: 347 347 374
Width: 12
VWidth: 0
Flags: HW
LayerCount: 2
Fore
SplineSet
7 16 m 29
 9 16 l 25
 9 14 l 25
 7 14 l 25
 7 16 l 29
5 14 m 25
 7 14 l 25
 7 12 l 25
 5 12 l 25
 5 14 l 25
EndSplineSet
Refer: 38 115 N 1 0 0 1 0 0 2
EndChar

StartChar: scircumflex
Encoding: 349 349 375
Width: 12
VWidth: 0
Flags: HW
LayerCount: 2
Fore
SplineSet
9 14 m 29
 9 12 l 25
 7 12 l 25
 7 14 l 25
 9 14 l 29
5 16 m 25
 7 16 l 25
 7 14 l 25
 5 14 l 25
 5 16 l 25
3 12 m 25
 3 14 l 25
 5 14 l 25
 5 12 l 25
 3 12 l 25
EndSplineSet
Refer: 38 115 N 1 0 0 1 0 0 2
EndChar

StartChar: scedilla
Encoding: 351 351 376
Width: 12
VWidth: 0
Flags: HW
LayerCount: 2
Fore
SplineSet
7 -2 m 29
 5 -2 l 25
 5 0 l 25
 7 0 l 25
 7 -2 l 29
1 -4 m 25
 1 -2 l 25
 5 -2 l 25
 5 -4 l 25
 1 -4 l 25
EndSplineSet
Refer: 38 115 N 1 0 0 1 0 0 2
EndChar

StartChar: scaron
Encoding: 353 353 377
Width: 12
VWidth: 0
Flags: HW
LayerCount: 2
Fore
SplineSet
7 16 m 29
 9 16 l 25
 9 14 l 25
 7 14 l 25
 7 16 l 29
3 14 m 25
 3 16 l 25
 5 16 l 25
 5 14 l 25
 3 14 l 25
5 14 m 25
 7 14 l 25
 7 12 l 25
 5 12 l 25
 5 14 l 25
EndSplineSet
Refer: 38 115 N 1 0 0 1 0 0 2
EndChar

StartChar: Zdotaccent
Encoding: 379 379 378
Width: 12
VWidth: 0
Flags: HW
LayerCount: 2
Fore
SplineSet
5 16 m 29
 5 18 l 25
 7 18 l 25
 7 16 l 25
 5 16 l 29
EndSplineSet
Refer: 33 90 N 1 0 0 1 0 0 2
EndChar

StartChar: Zacute
Encoding: 377 377 379
Width: 12
VWidth: 0
Flags: HW
LayerCount: 2
Fore
SplineSet
7 18 m 29
 9 18 l 25
 9 16 l 25
 7 16 l 25
 7 18 l 29
5 14 m 25
 5 16 l 25
 7 16 l 25
 7 14 l 25
 5 14 l 25
1 4 m 25
 3 4 l 25
 3 2 l 25
 11 2 l 25
 11 0 l 25
 1 0 l 25
 1 4 l 25
3 6 m 25
 5 6 l 25
 5 4 l 25
 3 4 l 25
 3 6 l 25
5 8 m 25
 7 8 l 25
 7 6 l 25
 5 6 l 25
 5 8 l 25
1 10 m 25
 1 12 l 25
 11 12 l 17
 11 10 l 1
 9 10 l 1
 9 8 l 9
 7 8 l 25
 7 10 l 25
 1 10 l 25
EndSplineSet
EndChar

StartChar: Zcaron
Encoding: 381 381 380
Width: 12
VWidth: 0
Flags: HW
LayerCount: 2
Fore
SplineSet
7 18 m 29
 9 18 l 29
 9 16 l 29
 7 16 l 29
 7 18 l 29
3 16 m 29
 3 18 l 29
 5 18 l 29
 5 16 l 29
 3 16 l 29
5 14 m 29
 5 16 l 29
 7 16 l 29
 7 14 l 29
 5 14 l 29
1 4 m 25
 3 4 l 25
 3 2 l 25
 11 2 l 25
 11 0 l 25
 1 0 l 25
 1 4 l 25
3 6 m 25
 5 6 l 25
 5 4 l 25
 3 4 l 25
 3 6 l 25
5 8 m 25
 7 8 l 25
 7 6 l 25
 5 6 l 25
 5 8 l 25
1 10 m 25
 1 12 l 25
 11 12 l 17
 11 10 l 1
 9 10 l 1
 9 8 l 9
 7 8 l 25
 7 10 l 25
 1 10 l 25
EndSplineSet
EndChar

StartChar: zacute
Encoding: 378 378 381
Width: 12
VWidth: 0
Flags: HW
LayerCount: 2
Fore
SplineSet
7 16 m 29
 9 16 l 25
 9 14 l 25
 7 14 l 25
 7 16 l 29
5 12 m 25
 5 14 l 25
 7 14 l 25
 7 12 l 25
 5 12 l 25
EndSplineSet
Refer: 34 122 N 1 0 0 1 0 0 2
EndChar

StartChar: zdotaccent
Encoding: 380 380 382
Width: 12
VWidth: 0
Flags: HW
LayerCount: 2
Fore
SplineSet
5 14 m 29
 7 14 l 25
 7 12 l 25
 5 12 l 25
 5 14 l 29
EndSplineSet
Refer: 34 122 N 1 0 0 1 0 0 2
EndChar

StartChar: zcaron
Encoding: 382 382 383
Width: 12
VWidth: 0
Flags: HW
LayerCount: 2
Fore
SplineSet
7 16 m 29
 9 16 l 29
 9 14 l 29
 7 14 l 29
 7 16 l 29
3 14 m 29
 3 16 l 29
 5 16 l 29
 5 14 l 29
 3 14 l 29
5 12 m 29
 5 14 l 29
 7 14 l 29
 7 12 l 29
 5 12 l 29
EndSplineSet
Refer: 34 122 N 1 0 0 1 0 0 2
EndChar

StartChar: longs
Encoding: 383 383 384
Width: 12
VWidth: 0
Flags: HW
LayerCount: 2
Fore
SplineSet
9 10 m 25
 9 12 l 25
 11 12 l 25
 11 10 l 25
 9 10 l 25
5 14 m 25
 9 14 l 25
 9 12 l 25
 5 12 l 25
 5 14 l 25
5 0 m 25
 3 0 l 25
 3 6 l 25
 1 6 l 25
 1 8 l 25
 3 8 l 25
 3 12 l 25
 5 12 l 25
 5 0 l 25
EndSplineSet
EndChar

StartChar: Ncommaaccent
Encoding: 325 325 385
Width: 12
VWidth: 0
Flags: HW
LayerCount: 2
Fore
SplineSet
5 2 m 29
 5 0 l 25
 1 0 l 25
 1 2 l 25
 5 2 l 29
5 0 m 25
 7 0 l 25
 7 -2 l 25
 5 -2 l 25
 5 0 l 25
1 -4 m 25
 1 -2 l 25
 5 -2 l 25
 5 -4 l 25
 1 -4 l 25
EndSplineSet
Refer: 23 78 N 1 0 0 1 0 0 2
EndChar

StartChar: Nacute
Encoding: 323 323 386
Width: 12
VWidth: 0
Flags: HW
LayerCount: 2
Fore
SplineSet
9 16 m 25
 7 16 l 25
 7 18 l 25
 9 18 l 25
 9 16 l 25
5 14 m 25
 5 16 l 25
 7 16 l 25
 7 14 l 25
 5 14 l 25
EndSplineSet
Refer: 23 78 S 1 0 0 1 0 0 2
EndChar

StartChar: Ncaron
Encoding: 327 327 387
Width: 12
VWidth: 0
Flags: HW
LayerCount: 2
Fore
SplineSet
7 18 m 25
 9 18 l 25
 9 16 l 25
 7 16 l 25
 7 18 l 25
3 16 m 25
 3 18 l 25
 5 18 l 25
 5 16 l 25
 3 16 l 25
5 14 m 25
 5 16 l 25
 7 16 l 25
 7 14 l 25
 5 14 l 25
EndSplineSet
Refer: 23 78 S 1 0 0 1 0 0 2
EndChar

StartChar: nacute
Encoding: 324 324 388
Width: 12
VWidth: 0
Flags: HW
LayerCount: 2
Fore
SplineSet
9 14 m 29
 7 14 l 25
 7 16 l 25
 9 16 l 25
 9 14 l 29
5 12 m 25
 5 14 l 25
 7 14 l 25
 7 12 l 25
 5 12 l 25
EndSplineSet
Refer: 26 110 N 1 0 0 1 0 0 2
EndChar

StartChar: ncommaaccent
Encoding: 326 326 389
Width: 12
VWidth: 0
Flags: HW
LayerCount: 2
Fore
SplineSet
1 -4 m 29
 1 -2 l 25
 5 -2 l 25
 5 -4 l 25
 1 -4 l 29
7 0 m 25
 7 -2 l 25
 5 -2 l 25
 5 0 l 25
 7 0 l 25
5 2 m 25
 5 0 l 25
 1 0 l 25
 1 2 l 25
 5 2 l 25
EndSplineSet
Refer: 26 110 N 1 0 0 1 0 0 2
EndChar

StartChar: ncaron
Encoding: 328 328 390
Width: 12
VWidth: 0
Flags: HW
LayerCount: 2
Fore
SplineSet
7 16 m 29
 9 16 l 29
 9 14 l 29
 7 14 l 29
 7 16 l 29
3 14 m 29
 3 16 l 29
 5 16 l 29
 5 14 l 29
 3 14 l 29
5 12 m 29
 5 14 l 29
 7 14 l 29
 7 12 l 29
 5 12 l 29
EndSplineSet
Refer: 26 110 N 1 0 0 1 0 0 2
EndChar

StartChar: Ydieresis
Encoding: 376 376 391
Width: 12
VWidth: 0
Flags: HW
LayerCount: 2
Fore
SplineSet
7 16 m 29
 7 18 l 25
 9 18 l 25
 9 16 l 25
 7 16 l 29
3 18 m 25
 5 18 l 25
 5 16 l 25
 3 16 l 25
 3 18 l 25
EndSplineSet
Refer: 32 89 N 1 0 0 1 0 0 2
EndChar

StartChar: Ycircumflex
Encoding: 374 374 392
Width: 12
VWidth: 0
Flags: HW
LayerCount: 2
Fore
SplineSet
7 14 m 29
 7 16 l 25
 9 16 l 25
 9 14 l 25
 7 14 l 29
5 18 m 25
 7 18 l 25
 7 16 l 25
 5 16 l 25
 5 18 l 25
3 14 m 25
 3 16 l 25
 5 16 l 25
 5 14 l 25
 3 14 l 25
9 12 m 25
 11 12 l 25
 11 8 l 25
 9 8 l 25
 9 12 l 25
7 8 m 25
 9 8 l 25
 9 6 l 25
 7 6 l 25
 7 8 l 25
5 0 m 25
 5 6 l 25
 7 6 l 25
 7 0 l 25
 5 0 l 25
3 6 m 25
 3 8 l 25
 5 8 l 25
 5 6 l 25
 3 6 l 25
1 12 m 25
 3 12 l 25
 3 8 l 25
 1 8 l 25
 1 12 l 25
EndSplineSet
EndChar

StartChar: ycircumflex
Encoding: 375 375 393
Width: 12
VWidth: 0
Flags: HW
LayerCount: 2
Fore
SplineSet
9 14 m 29
 9 12 l 25
 7 12 l 25
 7 14 l 25
 9 14 l 29
5 16 m 25
 7 16 l 25
 7 14 l 25
 5 14 l 25
 5 16 l 25
3 12 m 25
 3 14 l 25
 5 14 l 25
 5 12 l 25
 3 12 l 25
EndSplineSet
Refer: 51 121 N 1 0 0 1 0 0 2
EndChar

StartChar: Wcircumflex
Encoding: 372 372 394
Width: 12
VWidth: 0
Flags: HW
LayerCount: 2
Fore
SplineSet
7 14 m 29
 7 16 l 25
 9 16 l 25
 9 14 l 25
 7 14 l 29
5 18 m 25
 7 18 l 25
 7 16 l 25
 5 16 l 25
 5 18 l 25
3 14 m 25
 3 16 l 25
 5 16 l 25
 5 14 l 25
 3 14 l 25
11 2 m 25
 9 2 l 25
 9 12 l 25
 11 12 l 25
 11 2 l 25
7 0 m 25
 7 2 l 25
 9 2 l 25
 9 0 l 25
 7 0 l 25
5 8 m 25
 7 8 l 25
 7 2 l 25
 5 2 l 25
 5 8 l 25
3 0 m 25
 3 2 l 25
 5 2 l 25
 5 0 l 25
 3 0 l 25
1 2 m 25
 1 12 l 25
 3 12 l 25
 3 2 l 25
 1 2 l 25
EndSplineSet
EndChar

StartChar: wcircumflex
Encoding: 373 373 395
Width: 12
VWidth: 0
Flags: HW
LayerCount: 2
Fore
SplineSet
5 16 m 29
 7 16 l 25
 7 14 l 25
 5 14 l 25
 5 16 l 29
7 12 m 25
 7 14 l 25
 9 14 l 25
 9 12 l 25
 7 12 l 25
3 12 m 25
 3 14 l 25
 5 14 l 25
 5 12 l 25
 3 12 l 25
EndSplineSet
Refer: 29 119 N 1 0 0 1 0 0 2
EndChar

StartChar: Tcommaaccent
Encoding: 354 354 396
Width: 12
VWidth: 0
Flags: HW
LayerCount: 2
Fore
SplineSet
5 -4 m 29
 5 -2 l 25
 9 -2 l 25
 9 -4 l 25
 5 -4 l 29
11 0 m 25
 11 -2 l 25
 9 -2 l 25
 9 0 l 25
 11 0 l 25
9 2 m 25
 9 0 l 25
 5 0 l 25
 5 2 l 25
 9 2 l 25
EndSplineSet
Refer: 36 84 N 1 0 0 1 0 0 2
EndChar

StartChar: Tcaron
Encoding: 356 356 397
Width: 12
VWidth: 0
Flags: HW
LayerCount: 2
Fore
SplineSet
7 18 m 29
 9 18 l 25
 9 16 l 25
 7 16 l 25
 7 18 l 29
3 16 m 25
 3 18 l 25
 5 18 l 25
 5 16 l 25
 3 16 l 25
5 14 m 25
 5 16 l 25
 7 16 l 25
 7 14 l 25
 5 14 l 25
1 12 m 25
 11 12 l 25
 11 10 l 25
 7 10 l 25
 7 0 l 25
 5 0 l 25
 5 10 l 25
 1 10 l 25
 1 12 l 25
EndSplineSet
EndChar

StartChar: tcaron
Encoding: 357 357 398
Width: 12
VWidth: 0
Flags: HW
LayerCount: 2
Fore
SplineSet
7 18 m 29
 9 18 l 25
 9 16 l 25
 7 16 l 25
 7 18 l 29
3 16 m 25
 3 18 l 25
 5 18 l 25
 5 16 l 25
 3 16 l 25
5 14 m 25
 5 16 l 25
 7 16 l 25
 7 14 l 25
 5 14 l 25
11 2 m 25
 9 2 l 25
 9 4 l 25
 11 4 l 25
 11 2 l 25
5 0 m 25
 5 2 l 25
 9 2 l 25
 9 0 l 25
 5 0 l 25
1 10 m 25
 3 10 l 25
 3 12 l 25
 5 12 l 25
 5 10 l 25
 9 10 l 25
 9 8 l 25
 5 8 l 25
 5 2 l 25
 3 2 l 25
 3 8 l 25
 1 8 l 25
 1 10 l 25
EndSplineSet
EndChar

StartChar: tcommaaccent
Encoding: 355 355 399
Width: 12
VWidth: 0
Flags: HW
LayerCount: 2
Fore
SplineSet
1 -2 m 29
 5 -2 l 25
 5 -4 l 25
 1 -4 l 25
 1 -2 l 29
5 -2 m 25
 5 0 l 25
 7 0 l 25
 7 -2 l 25
 5 -2 l 25
EndSplineSet
Refer: 39 116 N 1 0 0 1 0 0 2
EndChar

StartChar: kgreenlandic
Encoding: 312 312 400
Width: 12
VWidth: 0
Flags: HW
LayerCount: 2
Fore
SplineSet
9 10 m 25
 11 10 l 25
 11 8 l 25
 9 8 l 25
 9 10 l 25
7 8 m 25
 9 8 l 25
 9 6 l 25
 7 6 l 25
 7 8 l 25
9 0 m 25
 9 2 l 25
 11 2 l 25
 11 0 l 25
 9 0 l 25
7 2 m 25
 7 4 l 25
 9 4 l 25
 9 2 l 25
 7 2 l 25
1 0 m 25
 1 10 l 29
 3 10 l 29
 3 6 l 25
 7 6 l 25
 7 4 l 25
 3 4 l 25
 3 0 l 25
 1 0 l 25
EndSplineSet
EndChar

StartChar: kcommaaccent
Encoding: 311 311 401
Width: 12
VWidth: 0
Flags: HW
LayerCount: 2
Fore
SplineSet
1 -2 m 29
 5 -2 l 29
 5 -4 l 29
 1 -4 l 29
 1 -2 l 29
5 -2 m 29
 5 0 l 29
 7 0 l 29
 7 -2 l 29
 5 -2 l 29
5 0 m 29
 1 0 l 29
 1 2 l 29
 5 2 l 29
 5 0 l 29
EndSplineSet
Refer: 18 107 N 1 0 0 1 0 0 2
EndChar

StartChar: Kcommaaccent
Encoding: 310 310 402
Width: 12
VWidth: 0
Flags: HW
LayerCount: 2
Fore
SplineSet
1 -2 m 29
 5 -2 l 29
 5 -4 l 29
 1 -4 l 29
 1 -2 l 29
5 -2 m 29
 5 0 l 29
 7 0 l 29
 7 -2 l 29
 5 -2 l 29
5 0 m 29
 1 0 l 29
 1 2 l 29
 5 2 l 29
 5 0 l 29
EndSplineSet
Refer: 17 75 N 1 0 0 1 0 0 2
EndChar

StartChar: napostrophe
Encoding: 329 329 403
Width: 16
VWidth: 0
Flags: HW
LayerCount: 2
Fore
SplineSet
1 14 m 25
 3 14 l 25
 3 8 l 29
 1 8 l 29
 1 14 l 25
EndSplineSet
Refer: 26 110 N 1 0 0 1 4 0 2
EndChar

StartChar: eng
Encoding: 331 331 404
Width: 12
VWidth: 0
Flags: HW
LayerCount: 2
Fore
SplineSet
5 -4 m 29
 5 -2 l 25
 9 -2 l 25
 9 -4 l 25
 5 -4 l 29
9 -2 m 25
 9 8 l 25
 11 8 l 25
 11 -2 l 25
 9 -2 l 25
5 10 m 25
 9 10 l 25
 9 8 l 25
 5 8 l 25
 5 10 l 25
1 0 m 25
 1 10 l 25
 3 10 l 25
 3 8 l 25
 5 8 l 25
 5 6 l 25
 3 6 l 25
 3 0 l 25
 1 0 l 25
EndSplineSet
EndChar

StartChar: Eng
Encoding: 330 330 405
Width: 12
VWidth: 0
Flags: HW
LayerCount: 2
Fore
SplineSet
5 -4 m 25
 5 -2 l 25
 9 -2 l 25
 9 -4 l 25
 5 -4 l 25
9 -2 m 25
 9 12 l 29
 11 12 l 29
 11 -2 l 25
 9 -2 l 25
5 14 m 29
 9 14 l 29
 9 12 l 29
 5 12 l 29
 5 14 l 29
1 0 m 25
 1 14 l 29
 3 14 l 29
 3 12 l 29
 5 12 l 29
 5 10 l 29
 3 10 l 29
 3 0 l 25
 1 0 l 25
EndSplineSet
EndChar

StartChar: Lcommaaccent
Encoding: 315 315 406
Width: 12
VWidth: 0
Flags: HW
LayerCount: 2
Fore
SplineSet
1 -4 m 29
 1 -2 l 25
 5 -2 l 25
 5 -4 l 25
 1 -4 l 29
5 0 m 25
 7 0 l 25
 7 -2 l 25
 5 -2 l 25
 5 0 l 25
EndSplineSet
Refer: 20 76 N 1 0 0 1 0 0 2
EndChar

StartChar: Ldot
Encoding: 319 319 407
Width: 12
VWidth: 0
Flags: HW
LayerCount: 2
Fore
SplineSet
5 9 m 29
 7 9 l 29
 7 7 l 25
 5 7 l 25
 5 9 l 29
EndSplineSet
Refer: 20 76 N 1 0 0 1 0 0 2
EndChar

StartChar: Lslash
Encoding: 321 321 408
Width: 12
VWidth: 0
Flags: HW
LayerCount: 2
Fore
SplineSet
5 10 m 25
 7 10 l 25
 7 8 l 25
 5 8 l 25
 5 10 l 25
5 8 m 25
 5 6 l 25
 3 6 l 29
 3 8 l 29
 5 8 l 25
EndSplineSet
Refer: 20 76 N 1 0 0 1 0 0 2
EndChar

StartChar: Lcaron
Encoding: 317 317 409
Width: 12
VWidth: 0
Flags: HW
LayerCount: 2
Fore
SplineSet
7 18 m 29
 9 18 l 25
 9 16 l 25
 7 16 l 25
 7 18 l 29
3 16 m 25
 3 18 l 25
 5 18 l 25
 5 16 l 25
 3 16 l 25
5 14 m 25
 5 16 l 25
 7 16 l 25
 7 14 l 25
 5 14 l 25
EndSplineSet
Refer: 20 76 N 1 0 0 1 0 0 2
EndChar

StartChar: Lacute
Encoding: 313 313 410
Width: 12
VWidth: 0
Flags: HW
LayerCount: 2
Fore
SplineSet
7 18 m 29
 9 18 l 25
 9 16 l 25
 7 16 l 25
 7 18 l 29
5 14 m 25
 5 16 l 25
 7 16 l 25
 7 14 l 25
 5 14 l 25
EndSplineSet
Refer: 20 76 N 1 0 0 1 0 0 2
EndChar

StartChar: lacute
Encoding: 314 314 411
Width: 8
VWidth: 0
Flags: HW
LayerCount: 2
Fore
SplineSet
5 18 m 29
 7 18 l 25
 7 16 l 25
 5 16 l 25
 5 18 l 29
3 14 m 25
 3 16 l 25
 5 16 l 25
 5 14 l 25
 3 14 l 25
1 0 m 25
 1 2 l 25
 3 2 l 25
 3 10 l 25
 1 10 l 25
 1 12 l 25
 5 12 l 25
 5 2 l 25
 7 2 l 25
 7 0 l 25
 1 0 l 25
EndSplineSet
EndChar

StartChar: lcommaaccent
Encoding: 316 316 412
Width: 8
VWidth: 0
Flags: HW
LayerCount: 2
Fore
SplineSet
1 -2 m 29
 5 -2 l 25
 5 -4 l 25
 1 -4 l 25
 1 -2 l 29
5 -2 m 25
 5 0 l 25
 7 0 l 25
 7 -2 l 25
 5 -2 l 25
EndSplineSet
Refer: 25 108 N 1 0 0 1 0 0 2
EndChar

StartChar: ldot
Encoding: 320 320 413
Width: 10
VWidth: 0
Flags: HW
LayerCount: 2
Fore
SplineSet
7 8 m 29
 9 8 l 25
 9 6 l 25
 7 6 l 25
 7 8 l 29
EndSplineSet
Refer: 25 108 N 1 0 0 1 0 0 2
EndChar

StartChar: lslash
Encoding: 322 322 414
Width: 8
VWidth: 0
Flags: HW
LayerCount: 2
Fore
SplineSet
5 8 m 29
 5 10 l 25
 7 10 l 25
 7 8 l 25
 5 8 l 29
1 6 m 25
 3 6 l 25
 3 4 l 25
 1 4 l 25
 1 6 l 25
EndSplineSet
Refer: 25 108 N 1 0 0 1 0 0 2
EndChar

StartChar: lcaron
Encoding: 318 318 415
Width: 8
VWidth: 0
Flags: HW
LayerCount: 2
Fore
SplineSet
5 18 m 25
 7 18 l 25
 7 16 l 29
 5 16 l 25
 5 18 l 25
1 16 m 25
 1 18 l 25
 3 18 l 25
 3 16 l 25
 1 16 l 25
3 14 m 25
 3 16 l 25
 5 16 l 25
 5 14 l 25
 3 14 l 25
1 0 m 25
 1 2 l 25
 3 2 l 25
 3 10 l 25
 1 10 l 25
 1 12 l 25
 5 12 l 25
 5 2 l 25
 7 2 l 25
 7 0 l 25
 1 0 l 25
EndSplineSet
EndChar
